<?xml version="1.0" encoding="utf-8"?>
<!-- Generator: Adobe Illustrator 28.0.0, SVG Export Plug-In . SVG Version: 6.00 Build 0)  -->
<svg version="1.1" id="图层_1" xmlns="http://www.w3.org/2000/svg" xmlns:xlink="http://www.w3.org/1999/xlink" x="0px" y="0px"
	 viewBox="0 0 280 80.7" style="enable-background:new 0 0 280 80.7;" xml:space="preserve">
<style type="text/css">
	.st0{fill:#333333;}
	.st1{fill-rule:evenodd;clip-rule:evenodd;fill:#222222;}
	.st2{fill:#222222;}
	.st3{fill:#FE7125;}
	.st4{fill:#FEFEFE;}
</style>
<g>
	<path class="st0" d="M88.1,66.6h4.4v1.2h-4.4V66.6z"/>
	<path class="st0" d="M104,64c-0.2,0.7-0.4,1.3-0.6,1.9h7.5l0.2-0.1l1,0.6c-1.2,1.3-3,3-4.6,4.5c1.1,0.5,2.1,0.9,2.8,1.3l-0.8,1.1
		c-1.7-1.1-5.1-2.4-7.8-3.2l0.7-1c1.1,0.3,2.4,0.7,3.7,1.2c1.2-1.1,2.4-2.3,3.4-3.4h-8c0.4-0.9,0.7-2,1.1-3.1h-4.4v-1.2h4.8
		c0.2-0.7,0.5-1.4,0.7-2h-4.1v-1.2h4.4c0.2-0.7,0.4-1.3,0.5-1.9h1.4c-0.2,0.6-0.4,1.2-0.6,1.9h6.7v1.2h-7c-0.2,0.7-0.4,1.4-0.6,2
		h8.9v1.2L104,64L104,64z"/>
	<path class="st0" d="M130.8,71.2v1.3h-15.2v-1.3h4.8V57.7h1.3v13.4h2.9V57.7h1.3v13.4L130.8,71.2L130.8,71.2z M118.4,67.9
		c-0.4-1.5-1.4-4.1-2.4-6.1l1.2-0.4c0.9,1.9,2,4.5,2.4,6L118.4,67.9z M130.5,62.1c-0.8,2-2,4.4-3,6l-1.1-0.6c1-1.6,2.2-4.1,2.9-6
		L130.5,62.1z"/>
	<path class="st0" d="M133.5,58.2h1.6V62l0,1.9c0.9-0.9,1.8-1.6,3.1-1.6c2,0,2.9,1.3,2.9,3.7v6h-1.6v-5.8c0-1.8-0.5-2.5-1.8-2.5
		c-1,0-1.6,0.5-2.6,1.4V72h-1.6L133.5,58.2L133.5,58.2z"/>
	<path class="st0" d="M144.4,69.1v-5.2h-1.4v-1.2l1.5-0.1l0.2-2.6h1.3v2.6h2.5v1.3h-2.5v5.3c0,1.2,0.4,1.8,1.4,1.8
		c0.3,0,0.8-0.1,1.1-0.2l0.3,1.2c-0.5,0.2-1.2,0.4-1.7,0.4C145,72.3,144.4,71,144.4,69.1z"/>
	<path class="st0" d="M150.5,69.1v-5.2h-1.4v-1.2l1.5-0.1l0.2-2.6h1.3v2.6h2.5v1.3h-2.5v5.3c0,1.2,0.4,1.8,1.4,1.8
		c0.3,0,0.8-0.1,1.1-0.2l0.3,1.2c-0.5,0.2-1.2,0.4-1.7,0.4C151.2,72.3,150.5,71,150.5,69.1z"/>
	<path class="st0" d="M156.8,62.6h1.3l0.1,1.1h0c0.8-0.7,1.9-1.3,3-1.3c2.4,0,3.7,1.9,3.7,4.8c0,3.2-1.9,5.1-4.1,5.1
		c-0.8,0-1.8-0.4-2.6-1.1l0,1.7v3.2h-1.6L156.8,62.6L156.8,62.6z M163.4,67.2c0-2.1-0.7-3.5-2.5-3.5c-0.8,0-1.6,0.5-2.5,1.3V70
		c0.8,0.7,1.7,1,2.3,1C162.3,70.9,163.4,69.5,163.4,67.2z"/>
	<path class="st0" d="M166.5,71l0.8-1.1c0.8,0.7,1.7,1.1,2.8,1.1c1.2,0,1.9-0.7,1.9-1.5c0-1-1.1-1.4-2.2-1.8
		c-1.3-0.5-2.8-1.1-2.8-2.7c0-1.5,1.2-2.7,3.2-2.7c1.2,0,2.2,0.5,2.9,1.1l-0.8,1c-0.7-0.5-1.3-0.8-2.2-0.8c-1.2,0-1.7,0.6-1.7,1.3
		c0,0.9,1,1.2,2.1,1.6c1.4,0.5,2.9,1.1,2.9,2.9c0,1.5-1.2,2.8-3.4,2.8C168.7,72.3,167.4,71.7,166.5,71z"/>
	<path class="st0" d="M187,65.5c-0.6,1.6-1.4,2.9-2.5,4c2.2,0.9,4.1,1.9,5.4,2.7l-1.1,1.1c-1.3-0.9-3.3-1.9-5.5-2.9
		c-1.8,1.4-4.2,2.3-7,2.9c-0.1-0.3-0.5-0.9-0.8-1.2c2.6-0.5,4.8-1.2,6.5-2.3c-1.6-0.6-3.1-1.2-4.6-1.7l0,0c0.6-0.7,1.2-1.7,1.8-2.7
		h-4v-1.2h4.7c0.5-1,1-1.9,1.4-2.8l1.4,0.3c-0.4,0.8-0.8,1.7-1.2,2.5h8.7v1.2L187,65.5L187,65.5L187,65.5z M177,63h-1.3v-3.5h6.4
		c-0.2-0.5-0.6-1.2-0.8-1.7l1.3-0.3c0.4,0.6,0.7,1.4,1,2h6.2V63h-1.3v-2.3H177V63z M180.9,65.5c-0.5,0.8-1,1.5-1.4,2.1
		c1.2,0.4,2.5,0.8,3.7,1.3c1-0.9,1.8-2.1,2.3-3.5H180.9z"/>
	<path class="st0" d="M202.2,65v2.7h4.7v1.1h-4.7v2.8h6.7v1.2h-14.7v-1.2h6.6v-2.8h-4.5v-1.1h4.5V65h-4.6v-1.1
		c-0.7,0.5-1.3,0.8-2,1.2c-0.2-0.4-0.6-0.8-0.9-1.1c3.1-1.4,6.3-4,8-6.7l1.1,0.5c-0.1,0.1-0.2,0.3-0.3,0.5c2.2,2.5,4.7,4.3,7.5,5.8
		c-0.3,0.3-0.7,0.7-0.9,1.1c-0.7-0.4-1.3-0.8-2-1.2V65L202.2,65L202.2,65z M206.8,63.9c-1.9-1.3-3.6-2.8-5.3-4.6
		c-1.4,1.8-3.2,3.4-5.2,4.6H206.8z"/>
	<path class="st0" d="M218.6,71.8c0,0.7-0.1,1.1-0.6,1.3c-0.4,0.2-1.1,0.2-2.3,0.2c0-0.3-0.2-0.9-0.4-1.2c0.8,0,1.5,0,1.7,0
		c0.2,0,0.3-0.1,0.3-0.3v-4.3h-2.7c-0.1,2-0.5,4.2-1.3,5.9c-0.2-0.2-0.7-0.5-1.1-0.6c1.2-2.4,1.3-5.9,1.3-8.4v-6.2h5L218.6,71.8
		L218.6,71.8z M217.4,66.3v-2.9h-2.6v1c0,0.6,0,1.3,0,2H217.4z M214.7,59.3v2.9h2.6v-2.9H214.7z M227.9,64.3
		c-0.5,2.4-1.3,4.3-2.4,5.9c0.8,1,1.8,1.7,2.9,2.3c-0.3,0.2-0.6,0.7-0.8,1c-1.1-0.6-2-1.4-2.8-2.3c-0.8,0.9-1.7,1.7-2.6,2.2
		c-0.2-0.3-0.5-0.7-0.8-1c1-0.5,1.9-1.3,2.6-2.2c-1-1.4-1.7-3.1-2.3-4.9h-0.4v8.1h-1.2V58.2h7.3v3.4c0,0.7-0.1,1-0.7,1.2
		c-0.6,0.2-1.4,0.2-2.7,0.2c0-0.4-0.2-0.8-0.4-1.1c1.1,0,2,0,2.2,0c0.3,0,0.4-0.1,0.4-0.3v-2.1h-4.9V64h5.6l0.2,0L227.9,64.3z
		 M222.9,65.3c0.5,1.4,1.1,2.8,1.9,3.9c0.7-1.1,1.3-2.4,1.7-3.9H222.9z"/>
	<path class="st0" d="M245.3,59.8c-1.1,1.6-2.6,2.8-4.6,3.7c1.8,0.6,4,0.9,6.3,1c-0.2,0.3-0.6,0.8-0.7,1.2c-2.6-0.2-5.1-0.7-7.1-1.5
		c-2.3,0.9-4.9,1.4-7.4,1.7c-0.1-0.3-0.3-0.8-0.5-1.1c2.2-0.2,4.5-0.6,6.5-1.3c-1-0.6-1.9-1.2-2.6-2c-0.7,0.6-1.5,1.1-2.4,1.6
		c-0.2-0.3-0.5-0.7-0.8-1c2.4-1.2,4.2-3,5-4.5l1.3,0.3c-0.3,0.5-0.7,1-1.1,1.5h7l0.2-0.1L245.3,59.8z M245.4,67.1c0,0,0,0.4-0.1,0.6
		c-0.4,3.1-0.8,4.4-1.3,5c-0.4,0.4-0.8,0.4-1.4,0.5c-0.5,0-1.6,0-2.6,0c0-0.4-0.2-0.8-0.4-1.1c1.1,0.1,2.2,0.1,2.6,0.1
		c0.4,0,0.6,0,0.7-0.1c0.4-0.3,0.7-1.4,1.1-3.7h-5.3c-1.1,2.8-3.2,4.3-6.6,5.1c-0.1-0.3-0.5-0.8-0.7-1.1c3.1-0.6,5-1.8,6-4h-4.8
		v-1.1h5.2c0.1-0.5,0.2-1.1,0.3-1.7l1.3,0.1c-0.1,0.6-0.2,1.1-0.3,1.6L245.4,67.1L245.4,67.1z M236,60.6c0.8,1,1.9,1.7,3.2,2.3
		c1.6-0.7,3.1-1.5,4.1-2.5h-7L236,60.6z"/>
	<path class="st0" d="M265.4,59.4v1.1h-15.1v-1.1h7.2c-0.2-0.5-0.4-1.1-0.7-1.6l1.2-0.3c0.3,0.6,0.6,1.3,0.8,1.9L265.4,59.4
		L265.4,59.4z M264.5,71.9c0,0.7-0.2,1-0.7,1.2c-0.5,0.1-1.4,0.2-2.9,0.2c-0.1-0.3-0.2-0.7-0.4-1c1.1,0,2.1,0,2.4,0
		c0.3,0,0.4-0.1,0.4-0.4v-7.8h-10.8v9.3h-1.2V63h8c0.5-0.7,1-1.7,1.3-2.4L262,61c-0.4,0.7-0.9,1.4-1.3,2.1h3.9L264.5,71.9
		L264.5,71.9z M257,64.8c-0.9,1.1-2.3,2.2-3.4,3c-0.1-0.2-0.4-0.8-0.6-1c1-0.6,2.2-1.5,3-2.4L257,64.8z M255.1,60.5
		c0.4,0.6,0.9,1.4,1.1,1.9l-1.2,0.5c-0.2-0.5-0.7-1.4-1.1-2L255.1,60.5z M255.8,71.2V72h-1.1v-4.7h6.4v4L255.8,71.2L255.8,71.2z
		 M255.8,68.2v2h4.1v-2H255.8z M262.2,67.7c-0.7-0.7-2.2-1.9-3.4-2.7l0.7-0.8c1.1,0.8,2.6,1.9,3.4,2.5L262.2,67.7z"/>
	<path class="st0" d="M274,66.6h4.4v1.2H274V66.6z"/>
</g>
<g>
	<polygon class="st1" points="104.1,41.7 110.8,41.7 116.5,9.5 118.7,7.6 110.1,7.6 	"/>
	<polygon class="st1" points="89.3,39.9 88.7,41.7 104.8,41.7 104.8,35.1 90.9,35.1 	"/>
	<polygon class="st1" points="183.5,28.1 190.2,28.1 193.9,7.6 187.2,7.6 	"/>
	<polygon class="st1" points="205.5,41.7 212.2,41.7 215.7,21.5 209,21.5 	"/>
	<polygon class="st1" points="189.1,28.1 211.8,28.1 211.8,21.5 192,21.5 	"/>
	<polygon class="st1" points="180,41.7 207.1,41.7 208.2,35.1 182.9,35.1 	"/>
	<polygon class="st2" points="188.4,14.2 216.2,14.2 217,9.4 219.2,7.6 189.5,7.6 	"/>
	<polygon class="st1" points="220.2,28.1 226.9,28.1 230.5,7.6 223.8,7.6 	"/>
	<polygon class="st1" points="242.1,41.7 248.8,41.7 252.4,21.5 245.7,21.5 	"/>
	<polygon class="st1" points="225.8,28.1 248.5,28.1 248.5,21.5 228.7,21.5 	"/>
	<polygon class="st1" points="216.6,41.7 243.7,41.7 244.8,35.1 219.5,35.1 	"/>
	<polygon class="st1" points="225,14.2 252.9,14.2 253.7,9.4 255.8,7.6 226.1,7.6 	"/>
	<polygon class="st1" points="254.7,41.7 261.4,41.7 267.1,9.4 269.3,7.6 260.8,7.6 	"/>
	<polygon class="st1" points="260.9,41.7 277.8,41.7 280,35.1 263.1,35.1 	"/>
	<path class="st1" d="M138.7,17.5h-7.3c-7.1,0-13.2,5.1-14.5,12.1c-0.1,0.6-0.2,1.2-0.2,1.8c0,5.7,4.6,10.3,10.3,10.3h7.3
		c7.1,0,13.2-5.1,14.5-12.1c0.1-0.6,0.2-1.2,0.2-1.8C149,22.1,144.4,17.5,138.7,17.5C138.7,17.5,138.7,17.5,138.7,17.5 M142.2,29.6
		c-0.6,3.2-3.4,5.5-6.6,5.5H128c-2.5-0.1-4.5-2.1-4.5-4.7c0-0.3,0-0.6,0.1-0.8c0.6-3.2,3.4-5.5,6.6-5.5h7.7c2.6,0.1,4.6,2.2,4.5,4.7
		C142.3,29.1,142.3,29.3,142.2,29.6"/>
	<polygon class="st1" points="151.1,17.5 156.3,35.8 163.2,35.8 157.9,17.5 	"/>
	<polygon class="st1" points="150.2,49.7 158.4,49.7 180.5,19.3 182.9,17.5 173.7,17.5 	"/>
</g>
<g>
	<path class="st3" d="M33.3,0c0,0-6.6,13.8-33.3,9.3l4.7,41.4c0,0,1.5,17,28.7,29.9C60.6,67.8,62,50.7,62,50.7l4.7-41.4
		C40,13.8,33.3,0,33.3,0z"/>
	<polygon class="st4" points="29.2,47.1 15.8,33.8 11.7,37.8 25.1,51.2 29.2,55.3 33.2,51.2 55,29.5 50.9,25.4 	"/>
</g>
</svg>
