<?xml version="1.0" standalone="no"?><!DOCTYPE svg PUBLIC "-//W3C//DTD SVG 1.1//EN" "http://www.w3.org/Graphics/SVG/1.1/DTD/svg11.dtd"><svg t="1646788455482" class="icon" viewBox="0 0 1024 1024" version="1.1" xmlns="http://www.w3.org/2000/svg" p-id="8388" xmlns:xlink="http://www.w3.org/1999/xlink" width="200" height="200"><defs><style type="text/css"></style></defs><path d="M426.666667 789.333333a96 96 0 1 0 96 96A96.213333 96.213333 0 0 0 426.666667 789.333333z m0 128a32 32 0 1 1 32-32A32 32 0 0 1 426.666667 917.333333zM789.333333 789.333333a96 96 0 1 0 96 96A96.213333 96.213333 0 0 0 789.333333 789.333333z m0 128a32 32 0 1 1 32-32A32 32 0 0 1 789.333333 917.333333zM949.12 235.733333H277.333333l-28.16-123.306666a32.213333 32.213333 0 0 0-31.36-24.96H77.653333a32 32 0 0 0 0 64H192l134.4 589.44a32.213333 32.213333 0 0 0 31.36 24.96h490.666667a32 32 0 0 0 0-64H384l-19.413333-85.333334H874.666667a32 32 0 0 0 31.146666-24.746666L981.333333 274.986667a31.786667 31.786667 0 0 0-5.973333-27.093334 32.213333 32.213333 0 0 0-26.24-12.16zM849.28 552.533333H349.44l-57.6-252.8H908.8z" p-id="8389"></path></svg>