<?xml version="1.0" encoding="utf-8"?>
<!-- Generator: Adobe Illustrator 23.0.0, SVG Export Plug-In . SVG Version: 6.00 Build 0)  -->
<svg version="1.1" id="图层_1" xmlns="http://www.w3.org/2000/svg" xmlns:xlink="http://www.w3.org/1999/xlink" x="0px" y="0px"
	 viewBox="0 0 28.8 32" style="enable-background:new 0 0 28.8 32;" xml:space="preserve">
<style type="text/css">
	.st0{fill:#999999;}
</style>
<path class="st0" d="M19.6,27.4c1.2,0.7,2.3,1,3.5,1c1.1,0,2.3-0.3,3.5-1V32l-3.1-1.7c-0.2-0.1-0.4-0.1-0.5,0L19.6,32L19.6,27.4
	L19.6,27.4L19.6,27.4z M24,0c0.9,0,1.6,0.7,1.6,1.6v0v11.2h-4.8c-3.4,0-6.2,2.7-6.4,6.1l0,0.3v11.2H1.6c-0.9,0-1.6-0.7-1.6-1.6l0,0
	V1.6C0,0.7,0.7,0,1.6,0L24,0L24,0z M23,16c3.2,0,5.8,2.6,5.8,5.7c0,3.2-2.6,5.7-5.8,5.7s-5.8-2.6-5.8-5.7C17.3,18.6,19.9,16,23,16
	L23,16z M23,18.3L21.8,20l-2.1,0.6l1.3,1.7L21,24.5l2-0.7l2,0.7L25,22.4l1.3-1.7L24.3,20L23,18.3L23,18.3z M12,11.2H5.6
	c-0.4,0-0.7,0.3-0.8,0.7l0,0.1v0.8c0,0.4,0.3,0.7,0.7,0.8l0.1,0H12c0.4,0,0.7-0.3,0.8-0.7l0-0.1V12C12.8,11.6,12.4,11.2,12,11.2
	L12,11.2z M16.8,4.8H5.6c-0.4,0-0.7,0.3-0.8,0.7l0,0.1v0.8c0,0.4,0.3,0.7,0.7,0.8l0.1,0h11.2c0.4,0,0.7-0.3,0.8-0.7l0-0.1V5.6
	C17.6,5.2,17.2,4.8,16.8,4.8L16.8,4.8z"/>
</svg>
