<?xml version="1.0" standalone="no"?><!DOCTYPE svg PUBLIC "-//W3C//DTD SVG 1.1//EN" "http://www.w3.org/Graphics/SVG/1.1/DTD/svg11.dtd"><svg t="1770619152110" class="icon" viewBox="0 0 1024 1024" version="1.1" xmlns="http://www.w3.org/2000/svg" p-id="6972" xmlns:xlink="http://www.w3.org/1999/xlink" width="200" height="200"><path d="M594.7392 975.0528H218.7264c-84.7872 0-153.6-68.8128-153.6-153.6V158.3104c0-84.7872 68.8128-153.6 153.6-153.6h573.44c84.7872 0 153.6 68.8128 153.6 153.6v189.2352c0 16.9984-13.7216 30.72-30.72 30.72s-30.72-13.7216-30.72-30.72V158.3104c0-50.7904-41.3696-92.16-92.16-92.16h-573.44c-50.7904 0-92.16 41.3696-92.16 92.16v663.1424c0 50.7904 41.3696 92.16 92.16 92.16h375.808c16.9984 0 30.72 13.7216 30.72 30.72s-13.5168 30.72-30.5152 30.72z" fill="#333333" p-id="6973"></path><path d="M921.8048 634.4704h-55.0912v218.7264c0 2.8672-1.2288 5.5296-3.2768 7.5776l-47.9232 44.032-47.7184-44.032c-2.048-2.048-3.2768-4.7104-3.2768-7.5776V634.4704h-55.0912c-2.2528 0-4.3008-0.2048-6.3488-0.4096v219.136c0 19.8656 8.3968 39.1168 22.9376 52.6336l89.4976 82.7392 89.7024-82.7392c14.5408-13.5168 22.9376-32.768 22.9376-52.6336v-219.136c-2.048 0.2048-4.096 0.4096-6.3488 0.4096z" fill="#333333" p-id="6974"></path><path d="M928.1536 498.8928v135.168c-2.048 0.2048-4.096 0.4096-6.3488 0.4096h-55.0912v-135.5776c0-5.5296-4.5056-10.24-10.24-10.24h-81.7152c-5.7344 0-10.24 4.7104-10.24 10.24v135.5776h-55.0912c-2.2528 0-4.3008-0.2048-6.3488-0.4096v-135.168c0-39.5264 32.1536-71.68 71.68-71.68h81.7152c39.5264 0 71.68 32.1536 71.68 71.68z" fill="#333333" p-id="6975"></path><path d="M477.7984 650.24v55.7056h55.7056v-55.7056h-55.7056z m144.1792-210.7392c8.192-14.7456 12.288-30.72 12.288-48.128 0-30.1056-11.6736-55.7056-34.816-77.0048-23.1424-21.2992-54.272-31.744-93.3888-31.744-36.864 0-66.3552 9.8304-88.8832 29.696-22.3232 19.8656-35.84 48.3328-40.3456 85.4016l50.3808 5.9392c4.3008-27.648 13.5168-48.128 27.4432-61.2352 13.9264-13.1072 31.3344-19.6608 52.224-19.6608 21.504 0 39.7312 7.168 54.6816 21.7088 14.9504 14.336 22.3232 31.1296 22.3232 50.176 0 10.4448-2.4576 20.2752-7.5776 29.0816-5.12 8.8064-16.1792 20.8896-32.9728 35.84-16.9984 14.9504-28.672 26.4192-35.2256 34.2016-8.8064 10.6496-15.36 21.2992-19.2512 31.744-5.5296 13.9264-8.192 30.5152-8.192 49.7664 0 3.2768 0 8.192 0.2048 14.7456h47.104c0.4096-19.6608 1.6384-33.792 4.096-42.3936 2.2528-8.6016 5.9392-16.384 10.8544-23.1424 4.9152-6.7584 15.36-17.2032 31.3344-31.3344 23.552-21.0944 39.5264-38.912 47.7184-53.6576z" fill="#333333" p-id="6976"></path><path d="M543.744 716.1856h-76.1856v-76.1856h76.1856v76.1856z m-55.7056-20.48h35.2256v-35.2256h-35.2256v35.2256z m49.7664-95.4368h-66.9696l-0.2048-10.0352c-0.2048-6.7584-0.2048-11.6736-0.2048-14.9504 0-20.48 3.072-38.5024 8.8064-53.4528 4.3008-11.4688 11.4688-23.1424 20.8896-34.6112 6.9632-8.3968 18.8416-19.8656 36.2496-35.2256 19.8656-17.6128 27.8528-27.648 30.9248-33.1776 4.3008-7.3728 6.3488-15.1552 6.3488-23.9616 0-16.384-6.3488-30.3104-19.2512-42.8032-12.9024-12.6976-28.4672-18.6368-47.5136-18.6368-18.432 0-33.1776 5.5296-45.2608 16.7936-12.288 11.4688-20.48 29.9008-24.3712 55.296l-1.4336 9.8304-70.2464-8.3968 1.2288-10.24c4.9152-39.5264 19.456-70.4512 43.8272-91.7504 24.1664-21.2992 56.32-32.1536 95.6416-32.1536 41.3696 0 75.1616 11.6736 100.1472 34.6112 25.3952 23.1424 38.0928 51.6096 38.0928 84.5824 0 19.0464-4.5056 36.864-13.5168 53.0432-8.8064 15.7696-25.1904 34.2016-49.9712 56.32-19.0464 16.9984-26.8288 25.3952-29.9008 29.696-4.096 5.7344-7.168 12.288-9.216 19.6608-2.048 7.7824-3.4816 21.2992-3.6864 39.936l-0.4096 9.6256z m-47.104-20.48h27.0336c0.6144-15.36 2.048-26.8288 4.096-34.816 2.6624-9.8304 6.7584-18.8416 12.4928-26.4192 5.3248-7.3728 16.1792-18.2272 32.768-32.9728 22.7328-20.0704 38.0928-37.2736 45.6704-50.9952 7.3728-13.1072 11.0592-27.648 11.0592-43.2128 0-27.4432-10.24-49.9712-31.5392-69.4272-21.0944-19.2512-50.176-29.0816-86.4256-29.0816-33.9968 0-61.6448 9.0112-82.1248 27.0336-18.2272 16.1792-30.3104 39.3216-35.4304 68.8128l30.3104 3.6864c5.3248-25.1904 14.9504-44.4416 28.8768-57.344 15.7696-14.7456 35.84-22.3232 59.1872-22.3232 24.1664 0 45.056 8.192 61.8496 24.576 16.7936 16.384 25.3952 35.6352 25.3952 57.5488 0 12.288-3.072 23.7568-9.0112 34.2016-5.7344 10.0352-17.2032 22.528-35.2256 38.2976-16.384 14.5408-28.0576 25.6-34.2016 32.9728-8.192 9.8304-13.9264 19.456-17.6128 28.8768-4.9152 12.6976-7.5776 28.2624-7.5776 46.08 0.4096 1.2288 0.4096 2.8672 0.4096 4.5056z" fill="#333333" p-id="6977"></path></svg>