<?xml version="1.0" encoding="utf-8"?>
<!-- Generator: Adobe Illustrator 23.0.0, SVG Export Plug-In . SVG Version: 6.00 Build 0)  -->
<svg version="1.1" id="图层_1" xmlns="http://www.w3.org/2000/svg" xmlns:xlink="http://www.w3.org/1999/xlink" x="0px" y="0px"
	 viewBox="0 0 182.5 176.7" style="enable-background:new 0 0 182.5 176.7;" xml:space="preserve">
<style type="text/css">
	.st0{fill:#FF7125;}
	.st1{opacity:0.3;fill:#FF7125;enable-background:new    ;}
</style>
<path class="st0" d="M135.5,176.7H43.1c-2.7,0-5-2.3-5-5v-74c0-28.3,23-51.3,51.3-51.3s51.3,23,51.3,51.3v74
	C140.5,174.3,138.5,176.7,135.5,176.7z M48.1,166.7h82.7v-69c0-22.7-18.7-41.3-41.3-41.3S48.1,75,48.1,97.7L48.1,166.7L48.1,166.7z
	 M89.5,24c-2.7,0-5-2.3-5-5V5c0-2.7,2.3-5,5-5c2.7,0,5,2.3,5,5v14C94.5,21.7,92.1,24,89.5,24L89.5,24z M135.5,40.7
	c-1,0-2.3-0.3-3.3-1.3c-2-1.7-2.3-5-0.7-7l9-10.7c1.7-2,5-2.3,7-0.7c2,1.7,2.3,5,0.7,7l-9,10.7C138.1,40,136.8,40.7,135.5,40.7
	L135.5,40.7z M160.1,83.3c-2.3,0-4.3-1.7-5-4c-0.3-2.7,1.3-5.3,4-5.7l13.7-2.3c2.7-0.3,5.3,1.3,5.7,4c0.3,2.7-1.3,5.3-4,5.7
	l-13.7,2.3C160.5,83,160.1,83.3,160.1,83.3z M18.8,83.3h-1L4.1,81c-2.7-0.3-4.7-3-4-5.7c0.7-2.7,3-4.7,5.7-4l13.7,2.3
	c2.7,0.3,4.7,3,4,5.7C23.1,81.3,21.1,83.3,18.8,83.3z M43.1,40.7c-1.3,0-3-0.7-3.7-1.7l-9-10.7c-1.7-2-1.3-5.3,0.7-7
	c2-1.7,5.3-1.3,7,0.7l9,10.7c1.7,2,1.3,5.3-0.7,7C45.5,40.3,44.5,40.7,43.1,40.7z"/>
<path class="st0" d="M177.1,176.7H6.1c-3,0-5-2.3-5-5c0-2.7,2.3-5,5-5h171.3c2.7,0,5,2.3,5,5C182.5,174.3,180.1,176.7,177.1,176.7
	L177.1,176.7z"/>
<path class="st1" d="M88.5,174.7H54.8c-9,0-16-7.3-16-16v-9.3c0-9,7.3-16,16-16h33.7c9,0,16,7.3,16,16v9.3
	C104.8,167.3,97.5,174.7,88.5,174.7z"/>
</svg>
