<?xml version="1.0" encoding="utf-8"?>
<!-- Generator: Adobe Illustrator 28.0.0, SVG Export Plug-In . SVG Version: 6.00 Build 0)  -->
<svg version="1.1" id="图层_1" xmlns="http://www.w3.org/2000/svg" xmlns:xlink="http://www.w3.org/1999/xlink" x="0px" y="0px"
	 viewBox="0 0 14 14" style="enable-background:new 0 0 14 14;" xml:space="preserve">
<style type="text/css">
	.st0{fill:#FFE3D4;}
	.st1{fill:#E87B33;}
</style>
<circle class="st0" cx="7" cy="7" r="7"/>
<path class="st1" d="M9.5,10c0.1,0,0.2-0.1,0.3-0.1c0,0,0,0,0-0.1C9.8,9.7,10,9.6,10,9.4C10,9.2,9.9,9,9.8,8.9L8,7.1L7.8,7l0,0
	l0-0.1L9.8,5C9.8,4.9,10,4.8,10,4.6c0-0.1-0.1-0.3-0.2-0.4C9.7,4.1,9.5,4,9.3,4c0,0,0,0-0.1,0C9.2,4.1,9.1,4.1,9,4.2L7.2,6.1L7,6.2
	L7,6.1L5,4.2C5,4.1,4.8,4,4.7,4C4.5,4,4.3,4.1,4.2,4.2C4.2,4.3,4,4.4,4,4.6C4,4.7,4.2,4.9,4.2,5l1.9,1.9L6.2,7L6.2,7.1L4.2,9
	c0,0-0.1,0.1-0.1,0.2C4.1,9.2,4,9.3,4,9.4c0,0.1,0.1,0.3,0.2,0.4C4.3,9.9,4.5,10,4.7,10C4.8,10,5,9.9,5,9.8L7,7.9L7,7.8l0.1,0.1
	L9,9.8C9.1,9.9,9.2,10,9.5,10C9.4,10,9.4,10,9.5,10C9.5,10,9.5,10,9.5,10z"/>
</svg>
