<?xml version="1.0" encoding="utf-8"?>
<!-- Generator: Adobe Illustrator 28.0.0, SVG Export Plug-In . SVG Version: 6.00 Build 0)  -->
<svg version="1.1" id="图层_1" xmlns="http://www.w3.org/2000/svg" xmlns:xlink="http://www.w3.org/1999/xlink" x="0px" y="0px"
	 viewBox="0 0 987.8 94.6" style="enable-background:new 0 0 987.8 94.6;" xml:space="preserve">
<g>
	<path d="M86,10.2c-0.7,0.8-2.1,1.7-4.1,2.1v68.8c0,7.7-2,12.1-16.2,13.3c-0.5-3.4-1.2-5.9-3.1-7.5c-2.2-1.7-4.7-3-11-3.9v-1.4
		c0,0,13.4,0.9,16.2,0.9c2.1,0,2.7-0.9,2.7-2.5V10.4H11.2v79.5c0,1.5-4.4,4.3-9.2,4.3H0V2.5l12.2,5.1h57.3l5.3-6.2L86,10.2z
		 M44.6,17.6c-0.3,1.4-1.2,2.1-3.9,2.3c-1.4,7.3-3.4,15.8-6.3,24.2c10.3,16.9,4.5,28.5-2.2,22.1c-0.7-2.8-1.7-6-2.9-9.5
		c-4,8.5-9.3,16.6-16.2,23.1L11.9,79c6-9.8,10.1-22.2,12.9-34.5c-3.3-7.6-7.4-15.4-12.6-21.7l1.2-0.8c5.4,4.1,9.8,8.1,13.4,12
		c1.1-6.9,1.8-13.6,2.2-19.4L44.6,17.6z M70.3,17.5c-0.4,1.2-1.2,2-3.9,2.2c-1.5,7.2-3.5,15.4-6.4,23.7c12.2,21.3,4.8,35.2-1.9,27.5
		c-0.8-4.2-1.9-9.3-3.3-14.8C50.2,65.8,44,74.9,35.7,82.3l-1.2-0.9c7.6-11,12.8-25.5,16-39.6c-2.4-6.7-5.4-13.4-9.2-19.1l1.3-0.8
		c3.8,3.6,7.1,7.1,9.8,10.5c1.2-6.4,1.9-12.5,2.4-18L70.3,17.5z"/>
	<path d="M94.3,54.1c0,0,2.6-0.6,3.6-1.4c4.1-3.6,9.3-10.9,13.7-18.3c-3.3,1.8-7,3.7-10.9,5.5c-0.6,0.6-1.2,1-1.7,1.3l-5-12.1
		c0,0,2.1-0.6,2.9-1.2c4.3-4.9,10-19.4,11.5-27.1l14.4,5c-0.3,1-1.4,1.8-3.4,1.8c-4.3,7-11.6,15.8-18.1,21.6
		c3.8-0.1,8.6-0.4,13.6-0.8c2.1-4.1,3.8-8,4.9-11.1l13.1,7.4c-0.5,0.9-1.8,1.6-3.8,1.3c-5.6,8.5-16.5,20.2-26.2,27.9
		c6.9-0.7,16.7-2,26.3-3.4l0.2,1.2C124,54.6,113.6,60,101.5,65c-0.6,0.8-1.3,1.2-2.1,1.5L94.3,54.1z M94.4,76.3
		c6.2-1,21.2-4.3,35.4-8l0.2,1.1c-5.8,4.3-14.7,10.4-27.6,17.8c-0.4,1.3-1.4,2.3-2.6,2.7L94.4,76.3z M183.2,16.7
		c-0.7,1.1-1.8,1.3-4.2,1.5c-3.6,7.2-8.4,13.7-14.4,19.4c6.9,3.4,15,5.9,24.4,7.6l-0.2,1.1c-4.7,1.8-7,5.1-7.8,10.6
		c-2.3-0.8-4.4-1.6-6.5-2.5l6.1,4.6c-0.7,0.8-1.7,1.4-3.9,1.9v29.7c0,0.5-3.7,2.5-9.4,2.5h-2.1v-6h-17.5v4.4c0,0.7-3.4,2.6-9,2.6h-2
		V54.8c-3.3,1.2-6.8,2.3-10.5,3.3l-0.7-1.3c10.7-4.7,19.9-11.2,27.3-18.9c-3.4-4.1-6.1-8.7-8.5-13.7c-4.5,5.7-9.6,10.3-15.2,13.7
		l-1.3-0.9c6.5-8.6,12.8-22.2,15.8-36.2l14.8,4.9c-0.5,1.3-1.8,2.1-3.9,2c-0.9,2-2,4-3,5.9h15.2l6.4-6L183.2,16.7z M169.5,51.9
		c-4.5-2.5-8.4-5.3-11.8-8.5c-5.2,4-11.3,7.4-18.2,10.3l9.3,3.5h16L169.5,51.9z M149.9,16.4c-1.3,2-2.6,4-4,5.8
		c3,4.1,6.7,7.8,11,10.9c4.2-5.2,7.5-10.8,9.9-16.7H149.9z M165.2,84.3V60.1h-17.5v24.2H165.2z"/>
	<path d="M275.7,33.4c0,0,7.4,5.8,11.8,9.8c-0.3,1.1-1.4,1.6-2.8,1.6h-17.9c-3.3,11-7.4,19.8-13.4,26.8c41.7,11,27.4,26.9,16.8,21
		c-5.7-4.5-13.9-9.4-24.4-13.9c-10.9,8.1-26.7,13-51.2,15.7l-0.3-1.4c18.9-4.4,32.3-10.1,41.8-18.3c-7.6-2.9-16.1-5.7-25.4-8.1
		c3-5.2,7-13.5,10.7-21.8h-25.8l-0.8-2.8h27.8c3.6-7.9,6.7-15.6,8.1-20.1l15.6,3.9c-0.3,1.2-1,2.2-4.3,2.2c-1.7,3.6-4.1,8.5-6.8,14
		h34.1L275.7,33.4z M287.9,21.4c-0.8,0.9-1.8,1.1-4,1.2c-3.8,3.6-10.6,8.4-15.7,10.9l-0.9-0.6c1.4-3.4,3-8.6,4-12.7h-60.5
		c0.7,7.2-1.8,12.2-5.3,14.5c-3.3,2.4-8.9,1.2-10.4-3.2c-1.3-3.9,1.1-7.1,4.5-8.7c3.5-2,7.7-6.7,7.5-12h1.3c0.9,2.3,1.6,4.5,2,6.6
		h31.5c-1.2-0.2-2.6-0.8-3.9-1.8c-0.1-5.4-3-11.2-6.9-14.5l0.7-0.6c23.5,0.5,21,15.3,13.1,16.9h25.8l6.3-6.3L287.9,21.4z
		 M233.8,44.8c-3.6,7.3-7.7,15-11.5,21.1c7.3,0.9,13.8,1.9,19.4,3c5.4-6.5,9.1-14.3,11.5-24.1H233.8z"/>
	<path d="M351.8,5c-0.4,1.4-1.7,2-5,2.3c9,12.7,27.6,20.1,42.8,24.7l-0.2,1.6c-5.3,1.4-8.8,6.9-9.7,11.5
		C364.9,37,351.3,25,345.1,8.5c-10,15.8-31.4,32.3-51.1,40.5l-0.7-1.1c17-11.2,35.7-32.9,40-47.7L351.8,5z M374.7,79.2
		c0,0,7.5,5.8,12.1,9.9c-0.3,1.1-1.4,1.6-2.8,1.6h-85.7l-0.8-2.9h37.1V66.1h-24.9l-0.8-2.9h25.7V44.4h-21.9l-0.8-2.9h42.3l6-7.5
		c0,0,6.9,5.1,11,8.8c-0.3,1.1-1.3,1.6-2.7,1.6h-21.6v18.8h12.4l6.4-7.8c0,0,7.1,5.3,11.6,9.1c-0.3,1.1-1.3,1.6-2.8,1.6h-27.6v21.7
		h21.2L374.7,79.2z"/>
	<path d="M471.9,32.3c0,0,7.5,5.5,12.1,9.4c-0.3,1.1-1.4,1.6-2.8,1.6h-64.8v8.5c0,12.1-1.9,31.4-22.5,42.8l-0.8-0.9
		c10.6-12.9,11.8-29,11.8-41.9V35.7l13.4,4.7h30.6c2.1-6.6,4.3-15.3,5.5-21.5l14.8,3.3c-0.3,1.2-1.4,2.1-3.7,2.2
		c-3.2,4.6-8.5,10.9-13.6,16h13.5L471.9,32.3z M475.4,7c0,0,7.4,5.4,11.8,9.2c-0.2,1.1-1.2,1.6-2.7,1.6h-88.3l-0.8-2.8H469L475.4,7z
		 M420.6,19c26.8,7.2,14.5,27,4.3,17.9c-0.2-6.1-2.8-12.7-5.2-17.4L420.6,19z M432.8,0c26.4,0.5,16.5,20.5,6,13.3
		c-0.6-4.8-3.7-9.8-6.8-12.7L432.8,0z"/>
	<path d="M529.2,45.5l11.1,8.4c-0.6,0.8-2,1.6-4,2v32.4c-0.1,0.8-5.6,3.3-9.4,3.3H525v-8.3h-14.6v6.4c0,1.1-4.8,3.7-9.4,3.7h-1.7
		V46.6l11.6,4.6H524L529.2,45.5z M525,80.4V54.1h-14.6v26.3H525z M526.6,41.4c0,1.1-5.1,3.7-10,3.7h-1.8V2.7l12.4,4.9h27.2l5.5-6
		l11.4,8.7c-0.6,0.8-2,1.7-4.1,2.1V41c-0.1,0.8-5.8,3.2-9.8,3.2h-2v-8.1h-28.8V41.4z M526.6,10.5v22.8h28.8V10.5H526.6z M587.4,53.9
		c-0.7,0.8-2.1,1.6-4.1,2.1v33.2c-0.1,0.8-5.8,2.9-9.6,2.9h-1.9v-8.8h-15.4v6.5c0,1.1-4.7,3.7-9.4,3.7h-1.7V46.6l11.6,4.6h13.9
		l5.4-5.8L587.4,53.9z M571.8,80.4V54.1h-15.4v26.3H571.8z"/>
	<path d="M639.7,1.6c0,0,6.8,5.6,10.9,9.4c-0.3,1.1-1.3,1.6-2.8,1.6h-31.7l13.2,3.5c-0.3,1.1-1.4,2-3.5,2
		c-5,5.2-13.1,11.4-20.1,15.6c7.3-0.3,18.5-0.9,30.1-1.7c-1.8-4.3-4.5-8.4-7.3-11.4l1-0.7c28.6,8.2,19,30,8.8,21.6
		c-0.1-2.3-0.6-4.6-1.5-6.9c-5.3,1.7-12.5,4-20.6,6.3l14.4,1.2c-0.2,1.4-0.9,2.3-3.4,2.7v10.9h5l5.8-8.2c0,0,6.7,5.6,10.4,9.5
		c-0.2,1.1-1.3,1.6-2.6,1.6h-18.6v15.3c7.2-1.1,15-2.3,22.8-3.5l0.3,1.3c-9.9,4.6-24.8,10.5-47,18.1c-0.6,1.3-1.7,2.2-2.9,2.5
		l-5.7-14.1c4.5-0.4,11.9-1.4,21.1-2.7V58.6h-18.4l-0.8-2.9h19.2V41c-3.4,1-7,2-10.8,3c-0.7,1.2-1.5,2.1-2.4,2.5L597,33.3
		c0,0,2.3-0.4,3.2-1c5-3.4,11.5-13.8,13.8-19.7h-17.7l-0.8-2.9h38.2L639.7,1.6z M663.8,69c0,1-4.7,3.1-8.7,3.1h-2V9l14.3,1.4
		c-0.2,1.4-1,2.4-3.6,2.8V69z M687.5,3.1c-0.2,1.5-1.2,2.5-3.6,2.9v75c0,7.8-1.8,12.4-15,13.5c-0.3-3.5-0.9-6.2-2.5-7.9
		c-1.7-1.8-4-3-9.1-3.9v-1.4c0,0,10.9,0.7,13.2,0.7c1.7,0,2.2-0.6,2.2-1.9V1.7L687.5,3.1z"/>
	<path d="M693.3,93.5c5.6-6.4,11.3-16.8,14.4-27.7l14.4,5.8c-0.5,1.1-1.9,1.8-4.1,1.6c-6.2,10-14.6,16.9-23.6,21.2L693.3,93.5z
		 M788.1,10.7c-0.7,0.9-2.2,1.7-4.2,2.1v67.9c0,7.8-1.6,12.2-14.1,13.4c-0.3-3.6-0.8-6.4-2.1-8c-1.5-1.7-3.6-2.9-8.2-3.7V81
		c0,0,9.3,0.5,11.3,0.5c1.7,0,2.1-0.6,2.1-2V55.6h-14.3c-1.5,14.3-6.8,28.4-23.7,38.3l-1.1-0.9c7.8-8.4,11.6-18.1,13.4-28.6h-0.1
		h-52.8l-0.8-2.8h9.3V19.9h-6.9l-0.8-2.9h7.7V1.7l14,1.4c-0.2,1.2-0.9,2.1-3.2,2.5V17h12.5V1.8l14.3,1.3c-0.2,1.3-0.9,2.3-3.4,2.7
		v11l4.1-6.6c0,0,4.8,4.8,7.4,8.1c-0.2,1.1-1.2,1.6-2.5,1.6h-9V61l4.3-7c0,0,3.5,3.4,6.4,6.6c0.8-6.3,1-12.9,1-19.5V3.6l12.4,4.5
		h10.8l5.2-6L788.1,10.7z M713.6,19.9v10.9h12.5V19.9H713.6z M713.6,45.7h12.5v-12h-12.5V45.7z M713.6,61.6h12.5V48.4h-12.5V61.6z
		 M723.9,66.6c26,5.4,16.4,24.4,6.7,17c-0.7-5.8-4.2-12.2-7.6-16.4L723.9,66.6z M772.9,52.7V32.8h-13.6V41c0,3.8-0.1,7.8-0.4,11.7
		H772.9z M759.3,11v19h13.6V11H759.3z"/>
	<path d="M837.9,75.2c0,1.1-4.4,3.4-8.9,3.6c6.9,2.3,15.7,3.1,28,3c11.1,0,20.1-0.1,31.3-0.7v1.2c-4.6,1.1-7.2,5.1-7.8,9.9h-27.1
		c-20.5,0-29.5-4.9-37.7-17.3c-1.3-2-2.4-1.7-3.5,0c-2,3.6-6.8,11-9.9,16.8c0.4,0.9-0.1,1.7-0.9,2.3l-8-12c3.9-2.3,9.1-6,13.3-8.7
		V39h-12.4l-0.6-2.8h11.4l5.5-7.3l11.7,9.5c-0.7,0.9-2.2,1.7-5,2.2v30.9c2.8,2.9,5.8,5,9.6,6.5V22.5l11.5,4.7h15.2
		c-0.6-0.3-1.2-0.7-1.7-1.2c-2.7-3.8-8-8.1-16.5-11.2l0.4-1.3c10.6,0.4,17.5,1.9,21.7,3.8c2.3-2.4,4.6-5.1,6.3-7.5h-37.9L825,6.9
		h39.7l6.3-6l10.5,9.9c-0.9,0.9-1.9,1.1-4.1,1.2c-4.1,2.5-10.6,5.3-16.4,7.4c3.4,2.9,2.2,6.3-0.7,7.8h7.6l5.1-5.8l11,8.5
		c-0.6,0.7-2.1,1.6-4.1,2V68c0,6.9-1.4,10.6-12.3,11.6c-0.1-3.1-0.3-5.4-1.1-6.7c-0.8-1.4-2-2.6-5-3.1v-1.4c0,0,4.4,0.4,5.9,0.4
		c1.3,0,1.5-0.6,1.5-1.8v-8.7h-10.6v15.9c-0.1,0.5-3.2,2.3-8.4,2.3H848V58.3h-10.1V75.2z M798.5,2.5c29.7,8.4,20.7,29.9,9.8,22
		c-1.6-7.2-6.5-15.7-10.6-21.5L798.5,2.5z M837.9,30v11.3H848V30H837.9z M848,55.4V44.1h-10.1v11.3H848z M858.3,30v11.3h10.6V30
		H858.3z M868.9,55.4V44.1h-10.6v11.3H868.9z"/>
	<path d="M934.5,35.9c0,0,6.7,5.5,10.7,9.3c-0.3,1.1-1.4,1.6-2.8,1.6h-18.1c-0.2,3.4-0.7,6.9-1.5,10.5c28,10.6,18.8,31.1,8.2,22.9
		c-1.2-6.4-5.1-13.7-9-19.6c-3.3,12.4-10.8,25-27.2,33.9l-1-1C908,79.3,912,62.4,912.9,46.8h-17.6l-0.8-2.8h18.6
		c0.1-2.2,0.1-4.4,0.1-6.6V21.8h-3.3c-4.1,6.9-9.1,12.6-14.8,16.9l-1.2-0.8c5-9.4,9.4-23.3,11.1-37.3l15.8,4.2
		C920.4,6,919.2,7,916.9,7c-1.5,4.3-3.3,8.2-5.3,11.9h14.2l6-7.5c0,0,6.8,4.9,11.2,8.8c-0.2,1.1-1.3,1.6-2.7,1.6h-15.6v15.6
		c0,2.1-0.1,4.3-0.2,6.6h4.1L934.5,35.9z M987.8,16.6c-0.7,0.9-2.1,1.7-4.1,2.1v67.1c-0.1,0.8-5.6,3.5-9.8,3.5H972v-9h-15.3v6.3
		c0,1.4-4.4,4.3-9.6,4.3h-1.9V8.8l11.9,5.1H971l5.7-6.2L987.8,16.6z M972,77.5V16.8h-15.3v60.7H972z"/>
</g>
</svg>
