<?xml version="1.0" encoding="utf-8"?>
<!-- Generator: Adobe Illustrator 28.0.0, SVG Export Plug-In . SVG Version: 6.00 Build 0)  -->
<svg version="1.1" id="图层_1" xmlns="http://www.w3.org/2000/svg" xmlns:xlink="http://www.w3.org/1999/xlink" x="0px" y="0px"
	 viewBox="0 0 444.6 42.5" style="enable-background:new 0 0 444.6 42.5;" xml:space="preserve">
<style type="text/css">
	.st0{fill:#040000;}
</style>
<g>
	<path class="st0" d="M23,26.4c-0.3,0.4-0.8,0.5-1.7,0.7c-0.9,2.4-2.2,4.6-3.7,6.4c4.8,2.6,2.6,6.7-0.4,5.7c-0.8-0.8-1.8-1.6-3-2.4
		c-3.3,2.6-7.7,4.4-13.3,5.5l-0.3-0.7c4.5-1.5,8-3.7,10.7-6.4c-2.9-1.4-6.1-2.5-8.7-3l0.4-0.6c0.9-1.4,1.9-3.3,2.9-5.3H0.9L0.5,25
		h5.8c0.9-1.9,1.7-3.6,2.1-4.7l0.9,0.3v-4.8c-2.4,2.3-5.5,4.2-8.9,5.8L0,20.9c3.3-2.6,5.9-6.1,7.5-9.8H0.8L0.4,9.8h8.9V0.2l6.3,0.6
		c-0.1,0.6-0.4,1-1.5,1.2v7.8h3.8l2.2-3.1c0,0,2.6,2.2,4.1,3.7c-0.1,0.5-0.5,0.7-1.2,0.7h-8.9v0.7c11.3,1.7,7.9,9.8,3.6,7
		c-0.6-1.9-2.2-4.2-3.6-5.9v6.5c0,0.4-2.1,1.3-3.9,1.3H9.9l4.4,1.5c-0.2,0.4-0.6,0.9-1.9,0.8c-0.3,0.6-0.7,1.2-1,1.9h4.8l2.6-2.5
		L23,26.4z M2.3,1.9c9.6,2.6,5.3,9.5,1.7,6.4C4,6.2,2.9,3.8,1.9,2.2L2.3,1.9z M10.6,26.3c-0.9,1.7-1.9,3.5-2.9,5.1
		c2.3,0.1,4.3,0.4,5.9,0.7c1.1-1.7,1.9-3.6,2.6-5.7H10.6z M15.3,8.7c0.6-1.7,1.3-4.5,1.8-7.1l5.5,1.8C22.5,4,21.9,4.3,21,4.3
		c-1.5,1.7-3.4,3.6-5,4.8L15.3,8.7z M39.4,11.8c-0.7,7.2-2.3,13.6-5.9,18.8c2.5,2.9,5.6,5.3,9.4,7.1l-0.1,0.4
		c-2.4,0.5-3.9,1.8-4.6,4.2c-3.2-2.2-5.6-5-7.4-8.3c-3.4,3.5-7.9,6.3-14.1,8.3l-0.3-0.5c5.9-3.2,9.9-7.1,12.6-11.7
		c-1.4-3.5-2.3-7.4-3-11.7c-1.2,1.9-2.5,3.6-3.9,5.1l-0.6-0.4c2.4-5.9,4.3-14.6,4.8-22.7L33.4,2c-0.2,0.6-0.7,1-1.7,1.1
		c-0.6,2.6-1.3,5.1-2.2,7.4h5.7l2.8-3.7c0,0,3.1,2.5,5,4.3c-0.1,0.5-0.6,0.7-1.2,0.7H39.4z M29.1,11.8c-0.7,1.8-1.5,3.5-2.4,5.1
		c0.9,3.5,2.2,6.8,3.9,9.7c1.8-4.5,2.7-9.4,3-14.7H29.1z"/>
	<path class="st0" d="M87.1,9.6c-0.4,0.4-0.8,0.5-1.7,0.5c-1.7,1.6-4.4,3.6-6.6,4.8l1.1,0.9c-0.4,0.4-0.9,0.5-1.8,0.6
		c-2.3,1.4-5.2,3-8,4.2h0.2c-0.1,0.7-0.5,1-1.6,1.2v3.8h10.2l2.8-3.7c0,0,3.2,2.5,5.2,4.3c-0.1,0.5-0.6,0.7-1.3,0.7H68.7v9.3
		c0,3.6-0.9,5.7-7.5,6.3c-0.2-1.7-0.4-2.9-1.3-3.7c-0.9-0.8-2.1-1.4-4.8-1.8v-0.6c0,0,6.1,0.4,7.2,0.4c0.7,0,1-0.3,1-0.9v-9H45.9
		l-0.4-1.3h17.7V20l4.5,0.4c1.5-1.4,3-3.2,4-4.7H53.7l-0.4-1.3h18.8l2.8-2.8l3.5,3c0.5-1.5,1-3.8,1.3-5.5H52.3
		c0.4,3.4-0.7,5.7-2.4,6.7c-1.5,1-4,0.5-4.8-1.4c-0.4-1.8,0.6-3.3,2.1-4c1.6-0.8,3.5-2.9,3.4-5.2h0.6c0.4,0.9,0.6,1.8,0.8,2.7h27.4
		L82.3,5L87.1,9.6z M62.1,0.3c13.1,0.2,8,10.5,2.7,6.6c0-2.3-1.3-4.8-3-6.3L62.1,0.3z"/>
	<path class="st0" d="M105.6,28.6c-1.4,1.9-4.1,5.5-7.6,9.4c-0.3,1.2-1,2-1.6,2.4l-3.6-5.6c2-1.1,2.3-1.5,2.3-2.5V13.5h-5.3
		l-0.4-1.3h5.7l2.3-2.3l4.3,3.6c-0.3,0.3-0.8,0.7-1.9,0.9v16.9c1.7-1,3.5-2.1,5.3-3.2L105.6,28.6z M92.7,0.7
		c12.4,2.3,8.6,11.3,3.9,8.2C96,6.1,94,3,92.3,0.9L92.7,0.7z M127,34.1c0,0,3.4,2.7,5.4,4.6c-0.1,0.5-0.6,0.7-1.3,0.7h-30l-0.4-1.3
		h5.4v-23l6.7,0.6c-0.1,0.6-0.4,1.1-1.7,1.3v21.1h4V5.6h-11.2l-0.4-1.3H124l2.6-3.6c0,0,3,2.5,4.8,4.1c-0.1,0.5-0.6,0.7-1.3,0.7
		h-9.6v14.7h2.9l2.6-3.5c0,0,3,2.3,4.8,4c-0.1,0.5-0.6,0.7-1.2,0.7h-9v16.5h3.5L127,34.1z"/>
	<path class="st0" d="M176.4,22.9c-0.3,0.4-0.9,0.7-1.7,0.8c-0.4,8.4-1.1,12.6-3.3,14.2c-1.3,1-3.1,1.6-5.8,1.6
		c0-1.6-0.1-2.8-0.9-3.6c-0.8-0.8-2.5-1.5-4.4-1.8l0-0.5c1.9,0.1,5,0.3,5.9,0.3c0.7,0,1.1-0.1,1.4-0.4c0.9-0.8,1.3-4.5,1.6-10.6
		h-12.9v17.4c0,0.6-2.5,2-4.5,2h-1.1V22.8h-14.5l-0.4-1.3h14.9v-10h-11.3l-0.4-1.3h11.7v-10l7.1,0.7c-0.1,0.6-0.4,1-1.5,1.2v8.1h6.5
		l2.1-2.5l5.1,3.8c-0.3,0.4-0.7,0.5-1.6,0.7l-0.7,9.3h1.1l2.8-2.6L176.4,22.9z M156.2,21.5h6.1l0.8-10h-6.9V21.5z M163.6,1.9
		c15.3,0.3,13,11.2,7.3,8.7c-1.6-3-4.9-6.4-7.7-8.4L163.6,1.9z"/>
	<path class="st0" d="M214.4,14.5c0,0,3.4,2.5,5.4,4.2c-0.1,0.5-0.6,0.7-1.3,0.7h-29.1v3.8c0,5.4-0.9,14.1-10.1,19.2l-0.4-0.4
		c4.8-5.8,5.3-13,5.3-18.8V16l6,2.1h13.7c0.9-3,1.9-6.9,2.5-9.6l6.6,1.5c-0.1,0.5-0.6,0.9-1.7,1c-1.4,2.1-3.8,4.9-6.1,7.2h6.1
		L214.4,14.5z M216,3.2c0,0,3.3,2.4,5.3,4.1c-0.1,0.5-0.5,0.7-1.2,0.7h-39.6l-0.4-1.3h33L216,3.2z M191.4,8.6c12,3.2,6.5,12.1,1.9,8
		c-0.1-2.7-1.3-5.7-2.3-7.8L191.4,8.6z M196.9,0c11.8,0.2,7.4,9.2,2.7,6c-0.3-2.2-1.7-4.4-3-5.7L196.9,0z"/>
	<path class="st0" d="M240.1,20.4l5,3.8c-0.3,0.4-0.9,0.7-1.8,0.9v14.5c0,0.4-2.5,1.5-4.2,1.5h-0.9v-3.7h-6.5v2.9
		c0,0.5-2.2,1.7-4.2,1.7h-0.8v-21l5.2,2.1h5.9L240.1,20.4z M238.2,36.1V24.3h-6.5v11.8H238.2z M238.9,18.6c0,0.5-2.3,1.7-4.5,1.7
		h-0.8v-19l5.6,2.2h12.2l2.5-2.7l5.1,3.9c-0.3,0.4-0.9,0.8-1.8,0.9v12.8c0,0.4-2.6,1.4-4.4,1.4h-0.9v-3.6h-12.9V18.6z M238.9,4.8V15
		h12.9V4.8H238.9z M266.2,24.2c-0.3,0.4-0.9,0.7-1.8,0.9V40c0,0.4-2.6,1.3-4.3,1.3h-0.9v-3.9h-6.9v2.9c0,0.5-2.1,1.7-4.2,1.7h-0.8
		v-21l5.2,2.1h6.2l2.4-2.6L266.2,24.2z M259.2,36.1V24.3h-6.9v11.8H259.2z"/>
	<path class="st0" d="M282.7,0.5l4.7,3.8c-0.3,0.3-0.8,0.7-1.6,0.8v31.1c0,3.5-0.7,5.5-6,5.9c-0.1-1.6-0.3-2.9-0.8-3.5
		c-0.5-0.8-1.3-1.3-3.1-1.7v-0.6c0,0,3.4,0.2,4.1,0.2c0.7,0,0.9-0.3,0.9-0.9V25.4h-4.4c-0.6,6-2.2,12.1-6.8,16.9l-0.5-0.3
		c3-7.7,3-17.3,3-25.8V1.1l5.5,2.1h2.9L282.7,0.5z M280.8,24.1v-9.3h-4.1v1.4c0,2.5,0,5.2-0.2,7.9H280.8z M276.8,4.4v9.1h4.1V4.4
		H276.8z M311.2,19.3c-0.3,0.4-0.7,0.6-1.7,0.7c-0.9,4.4-2.5,8.7-5.2,12.6c2.3,1.9,4.9,3.4,7.8,4.6l-0.1,0.5
		c-2.2,0.4-3.9,1.9-4.8,4.4c-2.3-1.7-4.3-3.6-5.9-5.9c-1.9,2-4.2,3.7-6.9,5.2l-0.4-0.5c2.4-2.1,4.3-4.6,5.7-7.3
		c-1.9-3.6-3.1-8.2-3.8-14.2h-2.1v21.4c0,0.4-1.6,1.6-4.1,1.6h-0.9V1l5.6,2.1h9l2.5-2.4l4.5,3.7c-0.3,0.3-0.8,0.6-1.7,0.7
		c-0.1,5.4-0.5,7.9-2.1,9c-1.2,0.8-2.7,1.1-5,1.1c0-1.3-0.1-2.2-0.9-2.9c-0.6-0.7-2-1.2-3.6-1.5v-0.6c1.5,0.1,4.1,0.3,4.8,0.3
		c0.7,0,0.9-0.1,1.2-0.3c0.4-0.4,0.6-2.3,0.7-5.9h-10V18h10l2.6-2.7L311.2,19.3z M296.7,19.3c1,4.3,2.6,7.7,4.8,10.4
		c1.3-3.3,2.2-6.9,2.7-10.4H296.7z"/>
	<path class="st0" d="M350.5,7.3c-0.4,0.5-0.9,0.6-2.1,0.7c-2.1,2.7-4.6,4.9-7.6,6.9c4.8,1.2,10.3,1.8,15.7,2v0.5
		c-2.2,0.7-3.6,2.4-4.1,5.1c-6.2-0.9-11.8-2.4-16.3-5c-6.2,3-13.6,4.8-22.1,5.5l-0.2-0.6c7.1-1.6,13.6-3.9,18.9-7.2
		c-2.1-1.6-3.8-3.5-5.2-5.8c-3.4,3.1-7.3,5.8-11.4,7.5l-0.4-0.4c4.9-3.7,9.6-10.5,11.8-16.5l7.4,1.8c-0.2,0.5-0.5,0.7-1.7,0.6
		c-0.7,1-1.4,2.1-2.2,3h11.1l3.4-2.9L350.5,7.3z M346.9,23.3l4.8,3.9c-0.4,0.4-0.9,0.7-1.8,0.8c-0.5,6.8-1.7,11-3.9,12.5
		c-1.4,0.9-3.2,1.4-6.1,1.4c0-1.4-0.2-2.7-1-3.5c-0.9-0.8-2.9-1.4-5.1-1.9l0-0.5c2.3,0.2,6,0.4,7,0.4c0.8,0,1.1-0.1,1.5-0.4
		c0.9-0.8,1.7-4,2.1-8.9h-8.7c-2.2,6.9-7.6,12.4-20.8,15.2l-0.3-0.5c9.6-3.5,13.8-8.8,15.4-14.6H318l-0.4-1.3h12.9
		c0.4-2,0.6-4,0.6-6.1l7.6,0.9c-0.1,0.8-0.7,1.2-1.7,1.2c-0.2,1.4-0.4,2.7-0.8,4h8L346.9,23.3z M330,6.8c-0.5,0.6-1.1,1.2-1.6,1.7
		c1.9,2,4.4,3.5,7.4,4.7c2.6-1.9,4.7-4,6.3-6.4H330z"/>
	<path class="st0" d="M384.4,2c-0.2,0.6-0.8,0.9-2.2,1c4,5.5,12.1,8.7,19,10.6l0,0.7c-2.3,0.6-3.7,2.9-4.1,4.8
		c-6.8-3.4-12.8-8.6-15.5-15.6c-4.3,6.8-13.4,13.9-22.5,17.3l-0.3-0.5c7.7-4.7,15.9-13.9,17.8-20.3L384.4,2z M390.3,22.6l5.4,4.1
		c-0.3,0.4-0.9,0.8-1.9,1v12.9c0,0.3-2.8,1.3-4.7,1.3h-0.9v-3.3h-16.3v2c0,0.5-2.4,1.7-4.7,1.7h-0.8V23.1l5.9,2.3h15.5L390.3,22.6z
		 M385.3,13.7c0,0,3.3,2.6,5.3,4.4c-0.1,0.5-0.6,0.7-1.3,0.7h-19.5l-0.4-1.3h12.9L385.3,13.7z M388.2,37.3V26.8h-16.3v10.5H388.2z"
		/>
	<path class="st0" d="M444.6,5.1c-0.3,0.4-0.9,0.8-1.8,0.9v30.4c0,3.5-0.9,5.4-7.3,6c-0.2-1.6-0.5-2.7-1.4-3.5
		c-1-0.7-2.2-1.3-4.9-1.7v-0.6c0,0,6,0.4,7.3,0.4c0.9,0,1.2-0.4,1.2-1.1V5.2h-26v35.2c0,0.7-2.1,2-4.2,2h-0.9V1.6l5.5,2.3h25.1
		l2.4-2.8L444.6,5.1z M431.1,7.6c0,0,3.1,2.4,5,3.9c-0.1,0.5-0.6,0.7-1.3,0.7h-20.6l-0.4-1.3h14.5L431.1,7.6z M433.1,31.6
		c0,0.4-2.5,1.4-4.1,1.4h-0.9v-4.2h-7.2v3.7c0,0.4-2.1,1.5-4.1,1.5h-0.7V15.7l5.1,2h6.5l2.3-2.5l4.8,3.6c-0.3,0.3-0.9,0.7-1.6,0.8
		V31.6z M428.1,27.5v-8.5h-7.2v8.5H428.1z"/>
</g>
</svg>
