<?xml version="1.0" encoding="utf-8"?>
<!-- Generator: Adobe Illustrator 28.0.0, SVG Export Plug-In . SVG Version: 6.00 Build 0)  -->
<svg version="1.1" id="图层_1" xmlns="http://www.w3.org/2000/svg" xmlns:xlink="http://www.w3.org/1999/xlink" x="0px" y="0px"
	 viewBox="0 0 16 16" style="enable-background:new 0 0 16 16;" xml:space="preserve">
<style type="text/css">
	.st0{fill:#FF7125;}
	.st1{fill:#FFFFFF;}
</style>
<path class="st0" d="M8,0C3.6,0,0,3.6,0,8s3.6,8,8,8s8-3.6,8-8S12.4,0,8,0"/>
<g>
	<g>
		<path class="st1" d="M8,12.6c-0.4,0-0.8-0.3-0.8-0.6v-0.4c0-0.3,0.3-0.6,0.8-0.6s0.8,0.3,0.8,0.6V12C8.8,12.3,8.4,12.6,8,12.6z"/>
	</g>
	<g>
		<path class="st1" d="M8,9.7C7.6,9.7,7.2,9.4,7.2,9V4.4C7.2,4,7.6,3.7,8,3.7S8.8,4,8.8,4.4V9C8.8,9.4,8.4,9.7,8,9.7z"/>
	</g>
</g>
</svg>
