<?xml version="1.0" standalone="no"?><!DOCTYPE svg PUBLIC "-//W3C//DTD SVG 1.1//EN" "http://www.w3.org/Graphics/SVG/1.1/DTD/svg11.dtd"><svg t="1628596560352" class="icon" viewBox="0 0 1024 1024" version="1.1" xmlns="http://www.w3.org/2000/svg" p-id="2595" xmlns:xlink="http://www.w3.org/1999/xlink" width="200" height="200"><defs><style type="text/css"></style></defs><path d="M282.677539 65.286805C162.807691 65.286805 65.286805 162.70536 65.286805 282.524044s97.510653 217.227006 217.390734 217.227005h217.400968V282.524044C500.068274 162.70536 402.567854 65.286805 282.677539 65.286805z m0 368.502059c-83.47092 0-151.377383-67.855298-151.377383-151.275053s67.906464-151.275053 151.377383-151.275053 151.377383 67.855298 151.377384 151.275053v151.285286zM958.702962 282.524044c0-119.726586-97.510653-217.227006-217.390734-217.227006S523.952193 162.70536 523.952193 282.524044v217.227005h217.360035c119.880082 0 217.390734-97.439021 217.390734-217.227005z m-368.778351 0c0-83.409522 67.906464-151.275053 151.377384-151.275053s151.377383 67.855298 151.377383 151.275053S824.803614 433.799097 741.312228 433.799097H589.924611zM65.286805 741.475956c0 119.726586 97.510653 217.227006 217.390734 217.227006s217.390734-97.459488 217.390735-217.227006V524.248951H282.677539c-119.869849 0-217.390734 97.439021-217.390734 217.227005z m368.778351 0c0 83.409522-67.906464 151.275053-151.377384 151.275053S131.300156 824.885478 131.300156 741.475956s67.906464-151.275053 151.377383-151.275053h151.39785zM741.312228 524.248951H523.952193v217.227005c0 119.726586 97.510653 217.227006 217.390734 217.227006s217.390734-97.459488 217.390734-217.227006-97.541352-217.227006-217.421433-217.227005z m0 368.502058c-83.47092 0-151.377383-67.855298-151.377384-151.275053V590.200903h151.377384c83.47092 0 151.377383 67.855298 151.377383 151.275053S824.803614 892.751009 741.312228 892.751009z" p-id="2596"></path></svg>