<?xml version="1.0" encoding="utf-8"?>
<!-- Generator: Adobe Illustrator 23.0.0, SVG Export Plug-In . SVG Version: 6.00 Build 0)  -->
<svg version="1.1" id="图层_1" xmlns="http://www.w3.org/2000/svg" xmlns:xlink="http://www.w3.org/1999/xlink" x="0px" y="0px"
	 viewBox="0 0 26.7 32" style="enable-background:new 0 0 26.7 32;" xml:space="preserve">
<style type="text/css">
	.st0{fill:#999999;}
</style>
<g>
	<path class="st0" d="M10.8,20.5c-1.3,0-2.4,1.1-2.4,2.4c0,1.3,1.1,2.4,2.4,2.4c1.3,0,2.4-1.1,2.4-2.4
		C13.2,21.6,12.1,20.5,10.8,20.5z"/>
	<path class="st0" d="M23.4,10.9h-1.7V8.3C21.7,3.7,18,0,13.4,0S5,3.7,5,8.3v2.5H3.3c-1.8,0-3.3,1.5-3.3,3.3v14.4
		C0,30.5,1.5,32,3.3,32h20c1.8,0,3.3-1.5,3.3-3.3V14.2C26.7,12.4,25.2,10.9,23.4,10.9z M8.2,8.3c0-2.9,2.3-5.2,5.2-5.2
		c2.9,0,5.2,2.3,5.2,5.2v2.5H8.2V8.3z M18.8,18.3l-1.1-1.1l-0.6,0.6l1.1,1.1L17.1,20L16,18.8l-1.8,1.8c0.4,0.6,0.7,1.4,0.7,2.2
		c0,0,0,0,0,0c0,2.2-1.8,4-4,4c-2.2,0-4-1.8-4-4c0-2.2,1.8-4,4-4c0.8,0,1.6,0.2,2.2,0.7l1.8-1.8l0,0l1.1-1.1l0,0l1.7-1.7l1.1,1.1
		l0,0l1.1,1.1L18.8,18.3z"/>
</g>
</svg>
