<?xml version="1.0" standalone="no"?><!DOCTYPE svg PUBLIC "-//W3C//DTD SVG 1.1//EN" "http://www.w3.org/Graphics/SVG/1.1/DTD/svg11.dtd"><svg t="1732690876089" class="icon" viewBox="0 0 1024 1024" version="1.1" xmlns="http://www.w3.org/2000/svg" p-id="9041" width="24" height="24" xmlns:xlink="http://www.w3.org/1999/xlink"><path d="M741.248 444.672c32.768 0 64.128 6.336 94.08 18.986667a239.744 239.744 0 0 1 76.8 51.797333 239.701333 239.701333 0 0 1 51.776 76.8c12.672 29.952 18.986667 61.312 18.986667 94.08s-6.314667 64.128-18.986667 94.08a239.701333 239.701333 0 0 1-51.776 76.8 239.744 239.744 0 0 1-76.8 51.797333c-29.952 12.650667-61.312 18.986667-94.08 18.986667a240 240 0 0 1-79.829333-13.504A239.552 239.552 0 0 1 589.802667 874.666667a34.986667 34.986667 0 0 1-13.333334-24.384c-1.088-9.984 1.514667-18.88 7.808-26.688a35.008 35.008 0 0 1 24.405334-13.354667c9.962667-1.066667 18.858667 1.536 26.666666 7.829333a167.850667 167.850667 0 0 0 105.877334 37.269334c46.677333 0 86.506667-16.512 119.509333-49.493334 33.002667-33.002667 49.493333-72.832 49.493333-119.509333 0-46.656-16.490667-86.506667-49.493333-119.488-33.002667-33.002667-72.832-49.493333-119.488-49.493333-21.973333 0-42.645333 3.818667-61.973333 11.477333a62.72 62.72 0 0 1-4.48 12.074667 59.733333 59.733333 0 0 1-35.541334 31.424 59.733333 59.733333 0 0 1-47.36-2.88 59.733333 59.733333 0 0 1-31.445333-35.541334 59.733333 59.733333 0 0 1 2.901333-47.36 59.733333 59.733333 0 0 1 35.541334-31.445333 59.733333 59.733333 0 0 1 47.36 2.88c2.090667 1.024 4.096 2.133333 5.994666 3.306667 27.733333-11.093333 57.408-16.618667 89.002667-16.618667zM171.306667 468.906667c8.405333-4.864 17.28-6.037333 26.666666-3.541334 9.386667 2.496 16.533333 7.936 21.397334 16.341334 4.864 8.405333 6.058667 17.301333 3.562666 26.688-2.517333 9.386667-7.957333 16.512-16.362666 21.376a168.597333 168.597333 0 0 0-53.205334 48.256 168.149333 168.149333 0 0 0-28.586666 66.56 168.32 168.32 0 0 0 0.490666 67.562666 168.810667 168.810667 0 0 0 25.472 60.053334 168.832 168.832 0 0 0 46.144 46.122666 168.32 168.32 0 0 0 62.442667 25.749334c18.901333 3.669333 39.146667 3.157333 60.778667-1.536a212.394667 212.394667 0 0 0 61.333333-24.170667c19.925333-11.52 37.461333-25.386667 52.586667-41.642667 15.573333-16.725333 27.2-34.474667 34.858666-53.205333l0.213334-0.554667a60.138667 60.138667 0 0 1-4.906667-24.426666c0-16.789333 5.973333-31.146667 17.834667-43.008a58.624 58.624 0 0 1 43.029333-17.813334c16.789333 0 31.146667 5.930667 43.008 17.813334 11.882667 11.882667 17.813333 26.218667 17.813333 43.008 0 16.810667-5.930667 31.146667-17.813333 43.029333-10.666667 10.666667-23.338667 16.554667-38.016 17.642667-10.56 22.912-25.173333 44.458667-43.797333 64.64a295.338667 295.338667 0 0 1-70.506667 55.957333 280.96 280.96 0 0 1-83.328 32c-30.165333 6.229333-59.008 6.677333-86.506667 1.322667-32-6.229333-61.44-18.346667-88.277333-36.416a238.570667 238.570667 0 0 1-65.216-65.173334 238.592 238.592 0 0 1-35.989333-84.864 237.909333 237.909333 0 0 1-0.704-95.509333 237.696 237.696 0 0 1 40.426666-94.08A238.165333 238.165333 0 0 1 171.306667 468.906667zM512.725333 106.666667c57.536 0 108.522667 18.282667 152.938667 54.869333 44.245333 36.437333 71.893333 82.688 82.986667 138.752 1.898667 9.514667 0.128 18.325333-5.269334 26.389333a33.877333 33.877333 0 0 1-22.4 14.933334c-9.536 1.877333-18.346667 0.128-26.389333-5.290667a33.877333 33.877333 0 0 1-14.933333-22.4c-7.850667-39.616-27.413333-72.32-58.730667-98.090667-31.424-25.877333-67.498667-38.826667-108.202667-38.826666a168.32 168.32 0 0 0-66.218666 13.376c-20.352 8.618667-38.4 20.757333-54.08 36.48a168.810667 168.810667 0 0 0-36.48 54.08 168.32 168.32 0 0 0-13.376 66.218666 167.04 167.04 0 0 0 24.618666 88.234667c6.122667 10.090667 13.056 19.328 20.821334 27.690667 5.333333-1.493333 10.944-2.218667 16.896-2.218667 16.789333 0 31.146667 5.930667 43.008 17.813333 11.882667 11.882667 17.834667 26.218667 17.834666 43.029334 0 16.789333-5.952 31.146667-17.834666 43.008a58.624 58.624 0 0 1-43.008 17.813333c-16.810667 0-31.146667-5.930667-43.029334-17.813333a58.624 58.624 0 0 1-17.813333-43.008c0-0.938667 0.021333-1.877333 0.064-2.773334a240.554667 240.554667 0 0 1-37.098667-47.104 236.074667 236.074667 0 0 1-34.794666-124.672c0-32.597333 6.293333-63.808 18.901333-93.610666a238.592 238.592 0 0 1 51.541333-76.437334 238.592 238.592 0 0 1 76.437334-51.541333c29.802667-12.586667 61.013333-18.901333 93.610666-18.901333z" p-id="9042" fill="#333333"></path></svg>