<svg id="图层_1" data-name="图层 1" xmlns="http://www.w3.org/2000/svg" viewBox="0 0 598.26 131.8"><defs><style>.cls-1,.cls-2{fill:#222;}.cls-1{fill-rule:evenodd;}</style></defs><title>SVG_画板-黑</title><polygon class="cls-1" points="48.25 106.59 69.2 106.59 86.95 5.91 93.72 0 67.04 0 48.25 106.59"/><polygon class="cls-1" points="1.88 100.96 0 106.59 50.43 106.59 50.43 85.96 6.88 85.96 1.88 100.96"/><polygon class="cls-1" points="296.61 64.18 317.56 64.18 328.87 0 307.92 0 296.61 64.18"/><polygon class="cls-1" points="365.17 106.59 386.12 106.59 397.24 43.55 376.29 43.55 365.17 106.59"/><polygon class="cls-1" points="314.03 64.18 385.09 64.18 385.09 43.55 323.2 43.55 314.03 64.18"/><polygon class="cls-1" points="285.38 106.59 370.19 106.59 373.63 85.96 294.55 85.96 285.38 106.59"/><polygon class="cls-2" points="311.74 20.63 398.84 20.63 401.34 5.62 408.01 0 315.18 0 311.74 20.63"/><polygon class="cls-1" points="411.22 64.18 432.17 64.18 443.48 0 422.53 0 411.22 64.18"/><polygon class="cls-1" points="479.78 106.59 500.73 106.59 511.85 43.55 490.9 43.55 479.78 106.59"/><polygon class="cls-1" points="428.64 64.18 499.7 64.18 499.7 43.55 437.81 43.55 428.64 64.18"/><polygon class="cls-1" points="399.99 106.59 484.8 106.59 488.24 85.96 409.16 85.96 399.99 106.59"/><polygon class="cls-1" points="426.35 20.63 513.45 20.63 515.95 5.62 522.62 0 429.79 0 426.35 20.63"/><polygon class="cls-1" points="519.29 106.59 540.24 106.59 558.02 5.76 564.77 0 538.09 0 519.29 106.59"/><polygon class="cls-1" points="538.66 106.59 591.39 106.59 598.26 85.96 545.54 85.96 538.66 106.59"/><path class="cls-1" d="M156.4,30.94H133.57A46.06,46.06,0,0,0,88.25,68.77a31.48,31.48,0,0,0-.52,5.73,32.09,32.09,0,0,0,32.08,32.09h22.83A46.06,46.06,0,0,0,188,68.77a32.59,32.59,0,0,0,.52-5.74A32.09,32.09,0,0,0,156.4,30.94m11,37.83A21.12,21.12,0,0,1,146.65,86H122.79A14.53,14.53,0,0,1,108.6,71.42a14.68,14.68,0,0,1,.25-2.65,21,21,0,0,1,20.67-17.2h24A14.46,14.46,0,0,1,167.4,68.77"/><polygon class="cls-1" points="195.02 30.95 211.46 88.25 232.92 88.25 216.49 30.95 195.02 30.95"/><polygon class="cls-1" points="192.41 131.8 217.91 131.8 287.03 36.65 294.62 30.94 265.68 30.94 192.41 131.8"/></svg>