<svg id="图层_1" data-name="图层 1" xmlns="http://www.w3.org/2000/svg" viewBox="0 0 300 66.09"><defs><style>.cls-1,.cls-2{fill:#555;}.cls-1{fill-rule:evenodd;}</style></defs><title>未标题-1</title><polygon class="cls-1" points="24.19 53.45 34.7 53.45 43.6 2.96 47 0 33.62 0 24.19 53.45"/><polygon class="cls-1" points="0.94 50.63 0 53.45 25.29 53.45 25.29 43.1 3.45 43.1 0.94 50.63"/><polygon class="cls-1" points="148.74 32.18 159.24 32.18 164.91 0 154.41 0 148.74 32.18"/><polygon class="cls-1" points="183.12 53.45 193.62 53.45 199.19 21.84 188.69 21.84 183.12 53.45"/><polygon class="cls-1" points="157.47 32.18 193.1 32.18 193.1 21.84 162.07 21.84 157.47 32.18"/><polygon class="cls-1" points="143.1 53.45 185.63 53.45 187.36 43.1 147.7 43.1 143.1 53.45"/><polygon class="cls-2" points="156.32 10.35 200 10.35 201.25 2.82 204.6 0 158.05 0 156.32 10.35"/><polygon class="cls-1" points="206.21 32.18 216.71 32.18 222.38 0 211.88 0 206.21 32.18"/><polygon class="cls-1" points="240.59 53.45 251.09 53.45 256.67 21.84 246.16 21.84 240.59 53.45"/><polygon class="cls-1" points="214.94 32.18 250.57 32.18 250.57 21.84 219.54 21.84 214.94 32.18"/><polygon class="cls-1" points="200.57 53.45 243.1 53.45 244.83 43.1 205.17 43.1 200.57 53.45"/><polygon class="cls-1" points="213.79 10.35 257.47 10.35 258.73 2.82 262.07 0 215.52 0 213.79 10.35"/><polygon class="cls-1" points="260.4 53.45 270.9 53.45 279.82 2.89 283.2 0 269.82 0 260.4 53.45"/><polygon class="cls-1" points="270.12 53.45 296.55 53.45 300 43.1 273.56 43.1 270.12 53.45"/><path class="cls-1" d="M78.42,15.52H67a23.11,23.11,0,0,0-22.73,19A16.41,16.41,0,0,0,44,37.36,16.09,16.09,0,0,0,60.08,53.45H71.53a23.1,23.1,0,0,0,22.72-19,15.43,15.43,0,0,0,.26-2.88A16.08,16.08,0,0,0,78.42,15.52m5.52,19a10.58,10.58,0,0,1-10.4,8.62h-12a7.29,7.29,0,0,1-7.11-7.29,7.48,7.48,0,0,1,.12-1.33A10.56,10.56,0,0,1,65,25.86H77a7.27,7.27,0,0,1,7.09,7.27,6.79,6.79,0,0,1-.13,1.35"/><polygon class="cls-1" points="97.8 15.52 106.03 44.25 116.8 44.25 108.56 15.52 97.8 15.52"/><polygon class="cls-1" points="96.48 66.09 109.27 66.09 143.93 18.38 147.74 15.52 133.23 15.52 96.48 66.09"/></svg>