<?xml version="1.0" encoding="utf-8"?>
<!-- Generator: Adobe Illustrator 28.0.0, SVG Export Plug-In . SVG Version: 6.00 Build 0)  -->
<svg version="1.1" id="图层_1" xmlns="http://www.w3.org/2000/svg" xmlns:xlink="http://www.w3.org/1999/xlink" x="0px" y="0px"
	 viewBox="0 0 24 24" style="enable-background:new 0 0 24 24;" xml:space="preserve">
<style type="text/css">
	.st0{fill:#333333;}
	.st1{fill:#FF7125;}
</style>
<g>
	<path class="st0" d="M12,20.3H2c-0.4,0-0.8-0.3-0.8-0.8v-15c0-0.4,0.3-0.7,0.8-0.7h20c0.4,0,0.8,0.3,0.8,0.7V12
		c0,0.4-0.3,0.8-0.8,0.8s-0.8-0.3-0.8-0.8V5.2H2.8v13.5H12c0.4,0,0.8,0.3,0.8,0.8S12.4,20.3,12,20.3z"/>
</g>
<g>
	<path class="st1" d="M17.5,20.8c-0.1,0-0.2,0-0.3-0.1c-0.1,0-3-1.2-3-5.7c0-0.4,0-1,3-2.2c0.2-0.1,0.4-0.1,0.6,0c3,1.2,3,1.8,3,2.2
		c0,4.5-2.9,5.6-3,5.7C17.7,20.7,17.6,20.8,17.5,20.8z M15.8,15.2c0.1,2.5,1.2,3.6,1.7,3.9c0.5-0.4,1.7-1.4,1.7-3.9
		c-0.3-0.2-1-0.6-1.7-0.9C16.8,14.6,16,15,15.8,15.2z"/>
</g>
<g>
	<path class="st0" d="M12,12.7c-0.2,0-0.3,0-0.5-0.1l-10-7.5C1.2,4.9,1.2,4.4,1.4,4c0.2-0.3,0.7-0.4,1.1-0.1l9.5,7.2l9.5-7.2
		c0.3-0.2,0.8-0.2,1,0.1c0.2,0.3,0.2,0.8-0.1,1.1l-10,7.5C12.3,12.7,12.2,12.7,12,12.7z"/>
</g>
</svg>
