<?xml version="1.0" encoding="utf-8"?>
<!-- Generator: Adobe Illustrator 28.0.0, SVG Export Plug-In . SVG Version: 6.00 Build 0)  -->
<svg version="1.1" id="图层_1" xmlns="http://www.w3.org/2000/svg" xmlns:xlink="http://www.w3.org/1999/xlink" x="0px" y="0px"
	 viewBox="0 0 24 24" style="enable-background:new 0 0 24 24;" xml:space="preserve">
<style type="text/css">
	.st0{fill:#333333;}
	.st1{fill:#FF7125;}
</style>
<path class="st0" d="M17.4,10.4c0.8,0,1.5,0.1,2.2,0.4c0.7,0.3,1.3,0.7,1.8,1.2c0.5,0.5,0.9,1.1,1.2,1.8c0.3,0.7,0.4,1.4,0.4,2.2
	s-0.1,1.5-0.4,2.2c-0.3,0.7-0.7,1.3-1.2,1.8c-0.5,0.5-1.1,0.9-1.8,1.2c-0.7,0.3-1.4,0.4-2.2,0.4c-0.6,0-1.3-0.1-1.9-0.3
	c-0.6-0.2-1.2-0.5-1.7-0.9c-0.2-0.1-0.3-0.3-0.3-0.6c0-0.2,0-0.4,0.2-0.6c0.1-0.2,0.3-0.3,0.6-0.3c0.2,0,0.4,0,0.6,0.2
	c0.7,0.6,1.6,0.9,2.5,0.9c1.1,0,2-0.4,2.8-1.2c0.8-0.8,1.2-1.7,1.2-2.8c0-1.1-0.4-2-1.2-2.8c-0.8-0.8-1.7-1.2-2.8-1.2
	c-0.5,0-1,0.1-1.5,0.3c0,0.1-0.1,0.2-0.1,0.3c-0.2,0.3-0.5,0.6-0.8,0.7c-0.4,0.1-0.8,0.1-1.1-0.1c-0.4-0.2-0.6-0.5-0.7-0.8
	c-0.1-0.4-0.1-0.8,0.1-1.1c0.2-0.4,0.5-0.6,0.8-0.7c0.4-0.1,0.8-0.1,1.1,0.1c0,0,0.1,0.1,0.1,0.1C15.9,10.6,16.6,10.4,17.4,10.4z
	 M4,11c0.2-0.1,0.4-0.1,0.6-0.1C4.9,11,5,11.1,5.1,11.3c0.1,0.2,0.1,0.4,0.1,0.6c-0.1,0.2-0.2,0.4-0.4,0.5c-0.5,0.3-0.9,0.7-1.2,1.1
	c-0.3,0.5-0.6,1-0.7,1.6c-0.1,0.5-0.1,1.1,0,1.6c0.1,0.5,0.3,1,0.6,1.4c0.3,0.4,0.7,0.8,1.1,1.1c0.4,0.3,0.9,0.5,1.5,0.6
	c0.4,0.1,0.9,0.1,1.4,0c0.5-0.1,1-0.3,1.4-0.6c0.5-0.3,0.9-0.6,1.2-1c0.4-0.4,0.6-0.8,0.8-1.2l0,0c-0.1-0.2-0.1-0.4-0.1-0.6
	c0-0.4,0.1-0.7,0.4-1c0.3-0.3,0.6-0.4,1-0.4c0.4,0,0.7,0.1,1,0.4c0.3,0.3,0.4,0.6,0.4,1c0,0.4-0.1,0.7-0.4,1
	c-0.3,0.2-0.5,0.4-0.9,0.4c-0.2,0.5-0.6,1-1,1.5c-0.5,0.5-1,1-1.7,1.3c-0.6,0.4-1.3,0.6-2,0.8c-0.7,0.1-1.4,0.2-2,0
	C5,21.3,4.3,21,3.7,20.5c-0.6-0.4-1.1-0.9-1.5-1.5c-0.4-0.6-0.7-1.3-0.8-2c-0.2-0.7-0.2-1.5,0-2.2c0.2-0.8,0.5-1.5,0.9-2.2
	C2.7,11.9,3.3,11.4,4,11z M12,2.5c1.3,0,2.5,0.4,3.6,1.3c1,0.9,1.7,1.9,1.9,3.3c0,0.2,0,0.4-0.1,0.6C17.3,7.8,17.1,8,16.9,8
	c-0.2,0-0.4,0-0.6-0.1c-0.2-0.1-0.3-0.3-0.4-0.5c-0.2-0.9-0.6-1.7-1.4-2.3C13.8,4.5,13,4.1,12,4.1c-0.5,0-1.1,0.1-1.6,0.3
	C10,4.7,9.6,4.9,9.2,5.3C8.8,5.7,8.5,6.1,8.3,6.6C8.1,7.1,8,7.6,8,8.1c0,0.7,0.2,1.4,0.6,2.1c0.1,0.2,0.3,0.5,0.5,0.6
	c0.1,0,0.3-0.1,0.4-0.1c0.4,0,0.7,0.1,1,0.4c0.3,0.3,0.4,0.6,0.4,1c0,0.4-0.1,0.7-0.4,1c-0.3,0.3-0.6,0.4-1,0.4
	c-0.4,0-0.7-0.1-1-0.4c-0.3-0.3-0.4-0.6-0.4-1c0,0,0,0,0-0.1c-0.3-0.3-0.6-0.7-0.9-1.1c-0.5-0.9-0.8-1.9-0.8-2.9
	c0-0.8,0.1-1.5,0.4-2.2C7.1,5.3,7.5,4.7,8,4.2c0.5-0.5,1.1-0.9,1.8-1.2C10.5,2.6,11.3,2.5,12,2.5z"/>
<circle class="st1" cx="9.4" cy="12.2" r="1.6"/>
<circle class="st1" cx="14.4" cy="12.2" r="1.6"/>
<circle class="st1" cx="12.3" cy="16.2" r="1.6"/>
</svg>
