<?xml version="1.0" encoding="utf-8"?>
<!-- Generator: Adobe Illustrator 28.0.0, SVG Export Plug-In . SVG Version: 6.00 Build 0)  -->
<svg version="1.1" id="objects" xmlns="http://www.w3.org/2000/svg" xmlns:xlink="http://www.w3.org/1999/xlink" x="0px" y="0px"
	 viewBox="0 0 1086.1 95.2" style="enable-background:new 0 0 1086.1 95.2;" xml:space="preserve">
<g>
	<path d="M86,10.6c-0.7,0.8-2.1,1.7-4.1,2.1v68.8c0,7.7-2,12.1-16.2,13.3c-0.5-3.4-1.2-5.9-3.1-7.5c-2.2-1.7-4.7-3-11-3.9V82
		c0,0,13.4,0.9,16.2,0.9c2.1,0,2.7-0.9,2.7-2.5V10.8H11.2v79.5c0,1.5-4.4,4.3-9.2,4.3H0V2.9L12.2,8h57.3l5.3-6.2L86,10.6z M44.6,18
		c-0.3,1.4-1.2,2.1-3.9,2.3c-1.4,7.3-3.4,15.8-6.3,24.2c10.3,16.9,4.5,28.5-2.2,22.1c-0.7-2.8-1.7-6-2.9-9.5
		c-4,8.5-9.3,16.6-16.2,23.1l-1.2-0.8c6-9.8,10.1-22.2,12.9-34.5c-3.3-7.6-7.4-15.4-12.6-21.7l1.2-0.8c5.4,4.1,9.8,8.1,13.4,12
		c1.1-6.9,1.8-13.6,2.2-19.4L44.6,18z M70.3,17.9c-0.4,1.2-1.2,2-3.9,2.2c-1.5,7.2-3.5,15.4-6.4,23.7c12.2,21.3,4.8,35.2-1.9,27.5
		c-0.8-4.2-1.9-9.3-3.3-14.8C50.2,66.2,44,75.3,35.7,82.7l-1.2-0.9c7.6-11,12.8-25.5,16-39.6c-2.4-6.7-5.4-13.4-9.2-19.1l1.3-0.8
		c3.8,3.6,7.1,7.1,9.8,10.5c1.2-6.4,1.9-12.5,2.4-18L70.3,17.9z"/>
	<path d="M94.3,54.5c0,0,2.6-0.6,3.6-1.4c4.1-3.6,9.3-10.9,13.7-18.3c-3.3,1.8-7,3.7-10.9,5.5c-0.6,0.6-1.2,1-1.7,1.3l-5-12.1
		c0,0,2.1-0.6,2.9-1.2c4.3-4.9,10-19.4,11.5-27.1l14.4,5c-0.3,1-1.4,1.8-3.4,1.8c-4.3,7-11.6,15.8-18.1,21.6
		c3.8-0.1,8.6-0.4,13.6-0.8c2.1-4.1,3.8-8,4.9-11.1l13.1,7.4c-0.5,0.9-1.8,1.6-3.8,1.3c-5.6,8.5-16.5,20.2-26.2,27.9
		c6.9-0.7,16.7-2,26.3-3.4l0.2,1.2c-5.4,2.9-15.8,8.3-27.9,13.3c-0.6,0.8-1.3,1.2-2.1,1.5L94.3,54.5z M94.4,76.7
		c6.2-1,21.2-4.3,35.4-8l0.2,1.1c-5.8,4.3-14.7,10.4-27.6,17.8c-0.4,1.3-1.4,2.3-2.6,2.7L94.4,76.7z M183.2,17.1
		c-0.7,1.1-1.8,1.3-4.2,1.5c-3.6,7.2-8.4,13.7-14.4,19.4c6.9,3.4,15,5.9,24.4,7.6l-0.2,1.1c-4.7,1.8-7,5.1-7.8,10.6
		c-2.3-0.8-4.4-1.6-6.5-2.5l6.1,4.6c-0.7,0.8-1.7,1.4-3.9,1.9V91c0,0.5-3.7,2.5-9.4,2.5h-2.1v-6h-17.5v4.4c0,0.7-3.4,2.6-9,2.6h-2
		V55.2c-3.3,1.2-6.8,2.3-10.5,3.3l-0.7-1.3c10.7-4.7,19.9-11.2,27.3-18.9c-3.4-4.1-6.1-8.7-8.5-13.7c-4.5,5.7-9.6,10.3-15.2,13.7
		l-1.3-0.9c6.5-8.6,12.8-22.2,15.8-36.2l14.8,4.9c-0.5,1.3-1.8,2.1-3.9,2c-0.9,2-2,4-3,5.9h15.2l6.4-6L183.2,17.1z M169.5,52.3
		c-4.5-2.5-8.4-5.3-11.8-8.5c-5.2,4-11.3,7.4-18.2,10.3l9.3,3.5h16L169.5,52.3z M149.9,16.8c-1.3,2-2.6,4-4,5.8
		c3,4.1,6.7,7.8,11,10.9c4.2-5.2,7.5-10.8,9.9-16.7H149.9z M165.2,84.7V60.5h-17.5v24.2H165.2z"/>
	<path d="M275.7,33.8c0,0,7.4,5.8,11.8,9.8c-0.3,1.1-1.4,1.6-2.8,1.6h-17.9c-3.3,11-7.4,19.8-13.4,26.8c41.7,11,27.4,26.9,16.8,21
		c-5.7-4.5-13.9-9.4-24.4-13.9c-10.9,8.1-26.7,13-51.2,15.7l-0.3-1.4c18.9-4.4,32.3-10.1,41.8-18.3c-7.6-2.9-16.1-5.7-25.4-8.1
		c3-5.2,7-13.5,10.7-21.8h-25.8l-0.8-2.8h27.8c3.6-7.9,6.7-15.6,8.1-20.1l15.6,3.9c-0.3,1.2-1,2.2-4.3,2.2c-1.7,3.6-4.1,8.5-6.8,14
		h34.1L275.7,33.8z M287.9,21.8c-0.8,0.9-1.8,1.1-4,1.2c-3.8,3.6-10.6,8.4-15.7,10.9l-0.9-0.6c1.4-3.4,3-8.6,4-12.7h-60.5
		c0.7,7.2-1.8,12.2-5.3,14.5c-3.3,2.4-8.9,1.2-10.4-3.2c-1.3-3.9,1.1-7.1,4.5-8.7c3.5-2,7.7-6.7,7.5-12h1.3c0.9,2.3,1.6,4.5,2,6.6
		h31.5c-1.2-0.2-2.6-0.8-3.9-1.8c-0.1-5.4-3-11.2-6.9-14.5l0.7-0.6c23.5,0.5,21,15.3,13.1,16.9h25.8l6.3-6.3L287.9,21.8z
		 M233.8,45.2c-3.6,7.3-7.7,15-11.5,21.1c7.3,0.9,13.8,1.9,19.4,3c5.4-6.5,9.1-14.3,11.5-24.1H233.8z"/>
	<path d="M351.8,5.4c-0.4,1.4-1.7,2-5,2.3c9,12.7,27.6,20.1,42.8,24.7l-0.2,1.6c-5.3,1.4-8.8,6.9-9.7,11.5
		c-14.8-8.1-28.4-20.1-34.6-36.6c-10,15.8-31.4,32.3-51.1,40.5l-0.7-1.1c17-11.2,35.7-32.9,40-47.7L351.8,5.4z M374.7,79.6
		c0,0,7.5,5.8,12.1,9.9c-0.3,1.1-1.4,1.6-2.8,1.6h-85.7l-0.8-2.9h37.1V66.5h-24.9l-0.8-2.9h25.7V44.8h-21.9l-0.8-2.9h42.3l6-7.5
		c0,0,6.9,5.1,11,8.8c-0.3,1.1-1.3,1.6-2.7,1.6h-21.6v18.8h12.4l6.4-7.8c0,0,7.1,5.3,11.6,9.1c-0.3,1.1-1.3,1.6-2.8,1.6h-27.6v21.7
		h21.2L374.7,79.6z"/>
	<path d="M486.1,81.3c2.6,5.2,3,9.4,1.3,11c-3.6,3.5-8.4,1.6-12.8-1.9c-15.4-10.7-15.5-47.1-14.9-79.7H418V44
		c0,18.8-1.3,38.1-23.2,50.9l-1-0.8c11.3-13.5,12.4-31,12.4-50V3l13.7,4.9h38.6l6-6.8l11.5,9.7c-0.7,0.8-2.1,1.5-4.5,2
		c-1.6,22-1.2,57.7,8.9,63.4c1.3,0.8,1.9,0.5,2.4-0.9c1.3-3.6,2.3-7.3,3.3-11.6l1,0.2L486.1,81.3z M421.8,23.8
		c6.7,4.7,12.3,9.5,16.9,14c2.3-6.4,4.2-13.1,5.7-19.9l14.4,4.6c-0.4,1.3-1.7,2.1-4,1.9c-2.5,7.9-5.5,15-8.7,21.5
		c17.1,21.5,11.4,36.9,1.8,29.2c-1.5-5.9-4.3-12.4-7.7-19.1c-7.1,10.6-15.4,19.2-25.2,25.8l-1.2-1c7.9-8.7,15.4-20.4,21.3-34
		c-4.8-8-10-15.8-14.7-22.3L421.8,23.8z"/>
	<path d="M533,12.5c-0.8,1-2.1,1.2-4.4,1.3c-3.4,6.1-9.3,16.9-14.2,23.2c10.5,6.9,14.9,16.4,14.9,24.6c0,9.9-3.6,15.4-14.5,15.6
		c0-3-0.5-7-1.2-8.4c-0.8-1-2.4-1.9-4.6-2.4v24.8c0,0.8-3.4,3.5-8.9,3.5h-1.9V3.4l12.1,4.7h6.3l5.7-5.6L533,12.5z M515,65.1
		c1,0,1.6-0.1,2.2-0.5c1.4-0.8,2.1-2.6,2.1-5.9c0-7-2-14.7-7.3-21.5c1.8-6.4,4.1-18.4,5.4-26.3H509v54.2H515z M556.9,7.5
		c5.8,11.5,18.9,19.9,30.6,23.9l-0.2,1.4c-4.5,2.2-7.4,5.5-8,9.6c-10.8-6.9-19.1-19.1-23.9-32.6c-7.3,11.1-19.1,23.2-33.5,30.3
		l-0.9-0.9c11.5-10.3,21.1-27.3,24.8-39.2l15.9,4.5c-0.3,1.3-1.5,2.1-4.4,2.2L556.9,7.5z M575.8,78.7c0,0,7.1,5.5,11.4,9.4
		c-0.3,1.1-1.3,1.6-2.8,1.6h-61.8l-0.8-2.9h36.3c3.2-10.8,7-27.5,9.3-41.5l15,4.9c-0.4,1.1-1.6,2.1-3.9,2
		c-4.9,12.7-11,25.3-18.1,34.6h9.2L575.8,78.7z M531.1,48c22.9,16.8,12.7,37.4,3.6,27.8c0.3-8.9-2.2-19.5-4.9-27.4L531.1,48z
		 M563.8,33.3c0,0,6,4.7,9.4,7.9c-0.2,1.1-1.2,1.6-2.6,1.6H533l-0.8-2.8h26.5L563.8,33.3z M545.7,46.6c22.8,16.7,12.8,37.2,3.6,27.7
		c0.3-8.8-2.2-19.4-4.9-27.3L545.7,46.6z"/>
	<path d="M676.6,0.9c0,0,6.9,5.1,11,8.9c-0.2,1.1-1.3,1.6-2.7,1.6h-19.4c-2.9,5.3-6.6,11.2-10,15.5h15.8l4.8-5.2l10,7.6
		c-0.6,0.7-1.8,1.5-3.5,1.8v38.2c-0.1,0.7-5.3,2.9-8.8,2.9h-1.6V29.7h-24.5v41.8c0,1.1-4.4,3.5-8.8,3.5h-1.6V41.3
		c-0.5,0.1-1.2,0.1-2,0.2c-3,3.6-8.2,8.9-12.1,12l-1.1-0.7c0.9-3.4,2.1-9.1,2.9-13.3h-5.6v41c0,7.6-1.7,12.9-13.9,13.9
		c-0.1-3.5-0.5-6.3-1.9-8c-1.2-1.6-3.2-2.9-7.6-3.6v-1.4c0,0,8.5,0.6,10.5,0.6c1.5,0,1.9-0.6,1.9-1.8V39.5H596l-0.9-2.8h18.5
		c-0.6-0.2-1.1-0.4-1.7-0.8c-1.3-5.7-6.4-12.4-11.3-16l0.9-0.8c6.5,0.6,11,2.3,14,4.3c2.1-3.9,4.1-8.2,5.5-11.8h-23.4l-0.9-2.8h24.1
		l6.1-6l8.3,7.9l-0.6-2.2h36L676.6,0.9z M652.2,26.9c0.3-4.3,0.6-10.4,0.8-15.5h-17.1l1.4,1.3c-0.9,0.8-2,1.1-4.1,1.3
		c-3.5,3.8-9.1,8.5-14.5,12.3c3.4,4.4,2,9.1-1.3,10.4h7l5.3-5.4l7.6,7.2V22.4l10.9,4.5H652.2z M668.8,36.8c-0.3,1.5-1.2,2.4-3.4,2.7
		c-0.3,14.1-0.3,25.3-4.4,34.4c33.1,1.9,29.3,24.3,17.1,19.7c-3.9-6.1-11.7-13.5-18-18.1c-4.7,8.6-13.8,15-31.9,19.7l-0.9-1.5
		c28.6-11.8,26.8-29,26.9-58.2L668.8,36.8z"/>
	<path d="M775.9,43.9c0,0,6.8,5,10.9,8.7c-0.3,1.1-1.4,1.6-2.7,1.6h-22.2c1.7,1.1,6.3,4.1,9.5,6.5c-0.3,1.1-1.3,1.6-2.7,1.6h-6.2
		c1.7,1.1,6.1,4,9.2,6.4c-0.3,1.1-1.3,1.6-2.7,1.6h-56.1l-0.8-2.9h44.3l4.8-5.1h-48.3l-0.8-2.8H756l4.9-5.3H697l-0.9-2.9h41.4
		l-0.2-0.1c-0.3-2.8-2-5.8-3.8-7.5c-1.7,0.6-3.7,0.8-5.8,0.9c0-2.1-0.3-3.9-1.3-5.2c-0.4-0.5-1.1-1-1.8-1.5
		c-0.4,0.8-4.3,2.5-6.8,2.5h-1.4v-3H709v3.2c0,0.7-3.6,2.4-6.9,2.4H701V28.7c-2,1.4-4.1,2.8-6.2,3.8l-1.3-1.1
		c4.1-4.6,8.1-12.4,10.1-19.4l1.7,0.6v-1.1h-10l-0.8-2.8h10.8V1.1l12.5,1.1c-0.3,1.4-1.1,2.4-3.8,2.8v3.7h9.2V1l12.5,1.1
		c-0.3,1.4-1.1,2.4-3.8,2.7v3.9h2.9l4.3-5.6c0,0,4.8,3.9,7.6,6.8c-0.2,1.1-1.2,1.6-2.4,1.6h-12.4v2.6c0,0.7-3.8,1.9-7.2,1.9h-1.5
		v-4.5H714v1.8c0,0.3-1.1,0.9-2.7,1.3l4,1.2c-0.4,1.1-1.6,2-3.7,1.8l-0.9,1.3h19.4l5-4.6l9,7.2c-0.6,0.7-1.8,1.4-3.6,1.6
		c-0.6,11.3-1.6,16.7-4.7,19.4c13.4-1,13.7,5.9,9.6,8.8h24.5L775.9,43.9z M724.6,35.3c1.3,0,2.5,0.1,3.2,0.1c0.7,0,1.1-0.1,1.4-0.5
		c0.8-1.2,1.5-5.1,1.9-13.1h-22.7c-0.9,1-1.8,1.9-2.8,2.9l3.8,1.5h6.3l3.7-3.7l7.8,5.8c-0.4,0.5-1.4,1.1-2.6,1.4V35.3z M716.4,34.6
		v-5.5H709v5.5H716.4z M758,75.6l5-5.3l10.6,7.8c-0.5,0.6-1.6,1.3-3.1,1.6v11.9c-0.1,0.7-6,2.7-9.6,2.7h-2.1v-4.6h-36.6v1.8
		c0,1-5.1,3.3-9.7,3.3h-1.6V70.9l12.1,4.7H758z M758.8,86.9v-8.5h-36.6v8.5H758.8z M780.1,15.7c-2.1,5.3-5.2,9.8-9.3,13.5
		c5.2,1.9,11.3,3.2,18.3,3.9l-0.2,1.1c-3.9,1.7-5.9,4.8-6.3,9.9c-8.3-2.2-14.4-5.4-19.2-9.7c-6.1,3.6-13.6,6.1-22.2,8l-0.5-1.4
		c7.7-2.9,13.9-6.5,18.6-10.8c-2.4-2.9-4.3-6.1-6-9.7c-2.8,2.9-6.1,5.2-9.8,7.1l-1.2-0.9c4.9-6.1,8.3-16.6,9.7-26l14.6,3.6
		c-0.3,1.2-1.5,2.2-3.7,2.2c-1,2.2-2.1,4.3-3.4,6.4h12.8l5.4-7.3c0,0,6.1,5,9.7,8.5c-0.3,1.1-1.3,1.6-2.6,1.6H780.1z M757.6,15.7
		c-0.8,1-1.6,2-2.5,3c2.2,2.7,5,5,8.2,6.9c2.3-2.9,4-6.2,5.1-9.9H757.6z"/>
	<path d="M837.9,75.6c0,1.1-4.4,3.4-8.9,3.6c6.9,2.3,15.7,3.1,28,3c11.1,0,20.1-0.1,31.3-0.7v1.2c-4.6,1.1-7.2,5.1-7.8,9.9h-27.1
		c-20.5,0-29.5-4.9-37.7-17.3c-1.3-2-2.4-1.7-3.5,0c-2,3.6-6.8,11-9.9,16.8c0.4,0.9-0.1,1.7-0.9,2.3l-8-12c3.9-2.3,9.1-6,13.3-8.7
		V39.4h-12.4l-0.6-2.8h11.4l5.5-7.3l11.7,9.5c-0.7,0.9-2.2,1.7-5,2.2v30.9c2.8,2.9,5.8,5,9.6,6.5V22.9l11.5,4.7h15.2
		c-0.6-0.3-1.2-0.7-1.7-1.2c-2.7-3.8-8-8.1-16.5-11.2l0.4-1.3c10.6,0.4,17.5,1.9,21.7,3.8c2.3-2.4,4.6-5.1,6.3-7.5h-37.9L825,7.3
		h39.7l6.3-6l10.5,9.9c-0.9,0.9-1.9,1.1-4.1,1.2c-4.1,2.5-10.6,5.3-16.4,7.4c3.4,2.9,2.2,6.3-0.7,7.8h7.6l5.1-5.8l11,8.5
		c-0.6,0.7-2.1,1.6-4.1,2v36.1c0,6.9-1.4,10.6-12.3,11.6c-0.1-3.1-0.3-5.4-1.1-6.7c-0.8-1.4-2-2.6-5-3.1v-1.4c0,0,4.4,0.4,5.9,0.4
		c1.3,0,1.5-0.6,1.5-1.8v-8.7h-10.6v15.9c-0.1,0.5-3.2,2.3-8.4,2.3H848V58.7h-10.1V75.6z M798.5,2.9c29.7,8.4,20.7,29.9,9.8,22
		c-1.6-7.2-6.5-15.7-10.6-21.5L798.5,2.9z M837.9,30.4v11.3H848V30.4H837.9z M848,55.8V44.5h-10.1v11.3H848z M858.3,30.4v11.3h10.6
		V30.4H858.3z M868.9,55.8V44.5h-10.6v11.3H868.9z"/>
	<path d="M934.5,36.3c0,0,6.7,5.5,10.7,9.3c-0.3,1.1-1.4,1.6-2.8,1.6h-18.1c-0.2,3.4-0.7,6.9-1.5,10.5c28,10.6,18.8,31.1,8.2,22.9
		c-1.2-6.4-5.1-13.7-9-19.6c-3.3,12.4-10.8,25-27.2,33.9l-1-1C908,79.7,912,62.8,912.9,47.2h-17.6l-0.8-2.8h18.6
		c0.1-2.2,0.1-4.4,0.1-6.6V22.2h-3.3c-4.1,6.9-9.1,12.6-14.8,16.9l-1.2-0.8c5-9.4,9.4-23.3,11.1-37.3l15.8,4.2
		c-0.4,1.2-1.6,2.2-3.9,2.2c-1.5,4.3-3.3,8.2-5.3,11.9h14.2l6-7.5c0,0,6.8,4.9,11.2,8.8c-0.2,1.1-1.3,1.6-2.7,1.6h-15.6v15.6
		c0,2.1-0.1,4.3-0.2,6.6h4.1L934.5,36.3z M987.8,17c-0.7,0.9-2.1,1.7-4.1,2.1v67.1c-0.1,0.8-5.6,3.5-9.8,3.5H972v-9h-15.3V87
		c0,1.4-4.4,4.3-9.6,4.3h-1.9V9.2l11.9,5.1H971l5.7-6.2L987.8,17z M972,77.9V17.2h-15.3v60.7H972z"/>
	<path d="M1086.1,22.6c-0.2,1.4-0.9,2.4-3.6,2.8v65.5c0,1.2-5.2,3.8-9.8,3.8h-2.2v-9.1h-58.1l-3.9,5.4l-12.6-6.4
		c0.9-1.1,2.4-2.3,3.8-3.2V21.2l15.6,1.3c-0.2,1.4-1,2.4-3.6,2.8v57.4h58.8V21L1086.1,22.6z M1002.4,9.5l-0.9-2.9h63.1l7-6.5
		l11.5,10c-1,0.9-2.1,1.2-4.4,1.3c-7.9,3.9-18,8.1-27.8,11.4h0.1c-0.2,1.5-1.2,2.3-3.5,2.7v15.1c3.6-5.1,7.7-11.4,10-15.2l12.3,7.9
		c-0.5,0.9-1.5,1.3-3.8,0.8c-4.2,2.8-12.4,7.3-18.5,10.6v2.2c26.8,6.4,20.8,25.2,10.6,19.3c-1.9-4.8-6.3-10.4-10.6-15v16.4
		c0,7.2-1.6,11-13.5,12c-0.2-3-0.7-5.2-2.1-6.7c-1.4-1.3-3.4-2.5-7.9-3.2v-1.4c0,0,9.3,0.7,11.2,0.7c1.5,0,2-0.5,2-1.7V49.1
		c-3.9,4.1-9,9.1-15.3,15c-0.1,1.4-0.8,2.5-1.8,3l-8.3-10.6c4.6-1.7,14.7-6.2,25.4-11.2V21.5l8.1,0.8c6.3-4,12.8-8.8,17.3-12.8
		H1002.4z M1016.2,26.9c26.5,2.7,19.6,21.6,9.7,15.8c-1.6-5.3-6.6-11.3-10.5-15.1L1016.2,26.9z"/>
</g>
</svg>
