<?xml version="1.0" encoding="utf-8"?>
<!-- Generator: Adobe Illustrator 28.0.0, SVG Export Plug-In . SVG Version: 6.00 Build 0)  -->
<svg version="1.1" id="图层_1" xmlns="http://www.w3.org/2000/svg" xmlns:xlink="http://www.w3.org/1999/xlink" x="0px" y="0px"
	 viewBox="0 0 20.5 18.6" style="enable-background:new 0 0 20.5 18.6;" xml:space="preserve">
<style type="text/css">
	.st0{fill:none;stroke:#FAAD14;stroke-width:1.5;stroke-linejoin:round;stroke-miterlimit:2;}
	.st1{fill:none;stroke:#FAAD14;stroke-width:1.5;stroke-linecap:round;stroke-linejoin:round;stroke-miterlimit:2;}
	.st2{fill:none;stroke:#FAAD14;stroke-width:1.5;stroke-linecap:round;stroke-miterlimit:2;}
</style>
<path class="st0" d="M10.2,0.8v17.1c-3.3,0-5.8-4.4-5.8-4.4H1.7c-0.5,0-1-0.4-1-0.9V6c0-0.5,0.4-0.9,1-0.9h2.8
	C4.5,5,6.9,0.8,10.2,0.8z"/>
<path class="st1" d="M14.1,5L14.1,5c0.3,0.3,0.6,0.6,0.8,0.9c0.7,0.9,1.1,2.1,1.1,3.4c0,1.3-0.4,2.4-1.1,3.4
	c-0.2,0.3-0.5,0.6-0.8,0.9"/>
<path class="st2" d="M15.1,17.5c2.8-1.7,4.6-4.7,4.6-8.2c0-3.4-1.8-6.4-4.5-8.1"/>
</svg>
