<?xml version="1.0" encoding="utf-8"?>
<!-- Generator: Adobe Illustrator 23.0.0, SVG Export Plug-In . SVG Version: 6.00 Build 0)  -->
<svg version="1.1" id="图层_1" xmlns="http://www.w3.org/2000/svg" xmlns:xlink="http://www.w3.org/1999/xlink" x="0px" y="0px"
	 viewBox="0 0 20 19" style="enable-background:new 0 0 20 19;" xml:space="preserve">
<style type="text/css">
	.st0{fill:#333333;}
	.st1{fill:none;stroke:#333333;stroke-width:2;stroke-linecap:round;stroke-miterlimit:10;}
</style>
<g>
	<path class="st0" d="M9.6,1.7L9.6,1.7L9.6,1.7 M7.6,3.6v11.7l-1.1-1.1c-0.5-0.5-1.2-0.8-1.9-0.8H2V5.5h2.5c0.7,0,1.4-0.3,1.9-0.8
		L7.6,3.6 M8.8,0C8.6,0,8.4,0.1,8.2,0.2l-3.2,3C4.9,3.4,4.7,3.5,4.5,3.5H0.8C0.4,3.5,0,3.8,0,4.2v10.5c0,0.4,0.4,0.8,0.8,0.8h3.7
		c0.2,0,0.4,0.1,0.5,0.2l3.2,3C8.4,18.9,8.6,19,8.8,19c0.4,0,0.8-0.3,0.8-0.8V0.8C9.6,0.3,9.2,0,8.8,0L8.8,0z"/>
</g>
<path class="st1" d="M15.1,4.3C17.3,4.9,19,7.1,19,9.5c0,2.5-1.7,4.6-4,5.3"/>
<path class="st1" d="M12.7,6.4c1.4,0.4,2.4,1.7,2.4,3.1c0,1.5-1,2.8-2.4,3.1"/>
</svg>
