<?xml version="1.0" encoding="utf-8"?>
<!-- Generator: Adobe Illustrator 28.0.0, SVG Export Plug-In . SVG Version: 6.00 Build 0)  -->
<svg version="1.1" id="图层_1" xmlns="http://www.w3.org/2000/svg" xmlns:xlink="http://www.w3.org/1999/xlink" x="0px" y="0px"
	 viewBox="0 0 24 24" style="enable-background:new 0 0 24 24;" xml:space="preserve">
<style type="text/css">
	.st0{fill:#333333;}
	.st1{fill:#FF7125;}
</style>
<g>
	<path class="st0" d="M21,20.8H3c-1,0-1.8-0.8-1.8-1.8V5C1.2,4,2,3.2,3,3.2h18c1,0,1.8,0.8,1.8,1.7v14C22.8,20,22,20.8,21,20.8z
		 M3,4.7C2.9,4.7,2.8,4.9,2.8,5v14c0,0.1,0.1,0.2,0.2,0.2h18c0.1,0,0.2-0.1,0.2-0.2V5c0-0.1-0.1-0.2-0.2-0.2H3z"/>
</g>
<g>
	<path class="st0" d="M22,8.7H2C1.6,8.7,1.2,8.4,1.2,8V5C1.2,4,2,3.2,3,3.2h18c1,0,1.8,0.8,1.8,1.7v3C22.8,8.4,22.4,8.7,22,8.7z
		 M2.8,7.2h18.5V5c0-0.1-0.1-0.2-0.2-0.2H3C2.9,4.7,2.8,4.9,2.8,5V7.2z"/>
</g>
<g>
	<path class="st1" d="M11.5,17.8c0,0-0.1,0-0.1,0c-0.4-0.1-0.7-0.5-0.6-0.9l1-5.5c0.1-0.4,0.5-0.7,0.9-0.6c0.4,0.1,0.7,0.5,0.6,0.9
		l-1,5.5C12.2,17.5,11.9,17.8,11.5,17.8z"/>
</g>
<g>
	<path class="st1" d="M15.5,17.8c-0.2,0-0.4-0.1-0.5-0.2c-0.3-0.3-0.3-0.8,0-1.1l2.4-2.4l-2.4-2c-0.3-0.3-0.4-0.7-0.1-1.1
		c0.3-0.3,0.7-0.4,1.1-0.1l3,2.5c0.2,0.1,0.3,0.3,0.3,0.5c0,0.2-0.1,0.4-0.2,0.6l-3,3C15.9,17.7,15.7,17.8,15.5,17.8z"/>
</g>
<g>
	<path class="st1" d="M8.5,17.8c-0.2,0-0.4-0.1-0.5-0.2l-3-3c-0.1-0.1-0.2-0.4-0.2-0.6c0-0.2,0.1-0.4,0.3-0.5l3-2.5
		c0.3-0.3,0.8-0.2,1.1,0.1c0.3,0.3,0.2,0.8-0.1,1.1l-2.4,2L9,16.5c0.3,0.3,0.3,0.8,0,1.1C8.9,17.7,8.7,17.8,8.5,17.8z"/>
</g>
</svg>
