<?xml version="1.0" encoding="utf-8"?>
<!-- Generator: Adobe Illustrator 28.0.0, SVG Export Plug-In . SVG Version: 6.00 Build 0)  -->
<svg version="1.1" id="图层_1" xmlns="http://www.w3.org/2000/svg" xmlns:xlink="http://www.w3.org/1999/xlink" x="0px" y="0px"
	 viewBox="0 0 24 24" style="enable-background:new 0 0 24 24;" xml:space="preserve">
<style type="text/css">
	.st0{fill:none;stroke:#333333;stroke-width:1.5;stroke-linecap:round;stroke-linejoin:round;stroke-miterlimit:2;}
	.st1{fill:none;stroke:#FF7125;stroke-width:1.5;stroke-miterlimit:2;}
	.st2{fill:none;stroke:#FF7125;stroke-width:1.5;stroke-linecap:round;stroke-linejoin:round;stroke-miterlimit:2;}
</style>
<path class="st0" d="M13,18H3c-0.6,0-1-0.4-1-1V4c0-0.6,0.4-1,1-1h18c0.6,0,1,0.4,1,1v13c0,0.6-0.4,1-1,1h-4"/>
<path class="st0" d="M6,7h12"/>
<path class="st0" d="M6,10.5h3"/>
<path class="st0" d="M6,14h2"/>
<path class="st1" d="M15,16.5c1.7,0,3-1.3,3-3s-1.3-3-3-3s-3,1.3-3,3S13.3,16.5,15,16.5z"/>
<path class="st2" d="M15,20l2,1v-5.3c0,0-0.6,0.8-2,0.8s-2-0.7-2-0.7V21L15,20z"/>
</svg>
