<?xml version="1.0" encoding="utf-8"?>
<!-- Generator: Adobe Illustrator 28.0.0, SVG Export Plug-In . SVG Version: 6.00 Build 0)  -->
<svg version="1.1" id="图层_1" xmlns="http://www.w3.org/2000/svg" xmlns:xlink="http://www.w3.org/1999/xlink" x="0px" y="0px"
	 viewBox="0 0 20 20" style="enable-background:new 0 0 20 20;" xml:space="preserve">
<style type="text/css">
	.st0{fill:#999999;}
</style>
<path class="st0" d="M17.7,3.5c-0.1-0.1-0.3-0.3-0.4-0.4c-0.4-0.4-0.9-0.8-1.3-1.2c0,0,0,0-0.1-0.1c-0.6-0.5-1-0.9-1.4-1.2
	c-0.2-0.2-0.4-0.3-0.5-0.4c-0.1-0.1-0.1-0.1-0.2-0.1C13.7,0,13.6,0,13.5,0C13.2,0,13,0.2,13,0.5v1v1v2V5h0.5h4L17,4.5v15l0.5-0.5
	h-13C3.7,19,3,18.3,3,17.5v-17L2.5,1h9C11.8,1,12,0.8,12,0.5S11.8,0,11.5,0h-9H2v0.5v17C2,18.9,3.1,20,4.5,20h13H18v-0.5v-15V4h-0.5
	h-4L14,4.5v-2v-1v-1C14,0.8,13.8,1,13.5,1c-0.1,0-0.1,0-0.2,0c0,0,0,0,0,0c0.1,0.1,0.2,0.2,0.4,0.3c0.3,0.3,0.8,0.7,1.4,1.2
	c0,0,0,0,0.1,0.1c0.4,0.4,0.9,0.8,1.3,1.2C16.7,4,16.9,4.1,17,4.2c0.1,0.1,0.1,0.1,0.2,0.2c0.2,0.2,0.5,0.2,0.7,0
	c0.2-0.2,0.2-0.5,0-0.7C17.8,3.6,17.8,3.6,17.7,3.5z M2,9H0v8.5h10h10V9H3v0L2,9L2,9z M4.1,13.9V16h-1v-5.7h2.2
	c0.6,0,1.1,0.2,1.5,0.5c0.4,0.3,0.6,0.8,0.6,1.3c0,0.6-0.2,1-0.5,1.3c-0.4,0.3-0.9,0.5-1.5,0.5H4.1z M4.1,13.1h1.2
	c0.4,0,0.6-0.1,0.8-0.2s0.3-0.4,0.3-0.7c0-0.3-0.1-0.6-0.3-0.7c-0.2-0.2-0.4-0.3-0.8-0.3H4.1V13.1z M8.2,16v-5.7h1.7
	c0.5,0,0.9,0.1,1.3,0.3c0.4,0.2,0.7,0.5,0.9,1c0.2,0.4,0.3,0.9,0.3,1.4v0.3c0,0.5-0.1,1-0.3,1.4c-0.2,0.4-0.5,0.7-0.9,0.9
	c-0.4,0.2-0.9,0.3-1.4,0.3H8.2z M9.2,11.1v4.1h0.6c0.5,0,0.9-0.2,1.2-0.5c0.3-0.3,0.4-0.8,0.4-1.4V13c0-0.6-0.1-1.1-0.4-1.4
	s-0.7-0.5-1.2-0.5H9.2z M16.7,13.6h-2.3V16h-1v-5.7H17v0.8h-2.6v1.7h2.3V13.6z"/>
</svg>
