<?xml version="1.0" encoding="utf-8"?>
<!-- Generator: Adobe Illustrator 28.0.0, SVG Export Plug-In . SVG Version: 6.00 Build 0)  -->
<svg version="1.1" id="图层_1" xmlns="http://www.w3.org/2000/svg" xmlns:xlink="http://www.w3.org/1999/xlink" x="0px" y="0px"
	 viewBox="0 0 454 370" style="enable-background:new 0 0 454 370;" xml:space="preserve">
<style type="text/css">
	.st0{fill:#E0B75A;}
	.st1{fill:#D8AB50;}
	.st2{fill:#FEFEFE;}
	.st3{fill-rule:evenodd;clip-rule:evenodd;fill:#E80303;}
</style>
<g>
	<path class="st0" d="M228.2,12.3c0,0-21.9,45.6-110,30.7l15.4,136.7c0,0,4.8,56.2,94.6,98.7c89.8-42.5,94.6-98.7,94.6-98.7
		L338.2,43C250.1,57.9,228.2,12.3,228.2,12.3z"/>
	<path class="st0" d="M228.2,12.3v266.1c-89.8-42.5-94.6-98.7-94.6-98.7L118.2,43C206.3,57.9,228.2,12.3,228.2,12.3z"/>
	<path class="st1" d="M338.2,43l-15.4,136.7c0,0-4.8,56.2-94.6,98.7V12.3C228.2,12.3,250.1,57.9,338.2,43z"/>
	<polygon class="st2" points="214.3,167.7 170.3,123.7 156.9,137.1 200.9,181.2 214.3,194.6 227.8,181.2 299.5,109.5 286,96 	"/>
</g>
<g>
	<g>
		<path class="st3" d="M356.8,27.2c34.2,33.8,55.5,80.9,55.5,133.1c0,102.7-82.3,186-183.9,186c-101.6,0-183.9-83.3-183.9-186
			c0-52.2,21.2-99.3,55.4-133.1c-31,32.5-50,76.6-50,125.3c0,99.7,79.9,180.5,178.5,180.5c98.6,0,178.5-80.8,178.5-180.5
			C406.8,103.9,387.8,59.7,356.8,27.2z"/>
		<polygon class="st3" points="228.3,297.7 253.2,333.8 228.3,370 203.5,333.8 		"/>
		<path class="st3" d="M181.6,347.7c7.5,0,13.6-6.2,13.6-13.8c0-7.6-6.1-13.8-13.6-13.8c-7.5,0-13.6,6.2-13.6,13.8
			C168,341.5,174.1,347.7,181.6,347.7z"/>
		<path class="st3" d="M274.9,347.7c7.5,0,13.6-6.2,13.6-13.8c0-7.6-6.1-13.8-13.6-13.8c-7.5,0-13.6,6.2-13.6,13.8
			C261.3,341.5,267.4,347.7,274.9,347.7z"/>
	</g>
	<path class="st3" d="M162.7,338.2c-18.5,7.3-31.6-8.2-48.1-9.5c-16.4-1.3-20.6,8.1-31,12.2C109.9,357.1,136.3,356,162.7,338.2z"/>
	<path class="st3" d="M124.4,314.3c-19.7,2.8-28.9-15.3-44.6-20.4c-15.7-5.1-21.9,3.1-33,4.7C68.8,320.3,94.7,325.4,124.4,314.3z"/>
	<path class="st3" d="M87.5,282.9c-17.8-0.4-23.4-17.9-36.5-24.7c-13.2-6.8-19.8-0.5-29.8-0.8C37.3,280,59.5,288.3,87.5,282.9z"/>
	<path class="st3" d="M64.8,248.6c-16.5-4-18.3-21.3-29.2-30.3c-10.9-9-18.3-4.5-27.6-6.7C18.7,235.9,37.8,248.1,64.8,248.6z"/>
	<path class="st3" d="M49.6,213.1c-15.6-6.8-14.3-24.2-23.5-35c-9.2-10.8-17.3-7.6-26.1-11.5C6.3,192.4,23,207.8,49.6,213.1z"/>
	<path class="st3" d="M43.1,173.9c-13.7-10.1-8.7-26.8-15.4-39.3c-6.6-12.6-15.2-11.3-22.9-16.9C5.4,144.1,18.3,162.8,43.1,173.9z"
		/>
	<path class="st3" d="M44.9,129.5c-9.3-12.5-0.7-25.7-3.2-38.5C39.1,78.3,31.3,77.1,26,70.1C19.7,93.5,26.1,113.3,44.9,129.5z"/>
	<path class="st3" d="M51.8,91.6c-4.5-13.3,6.6-22.2,7.9-33.8c1.4-11.6-5-14.8-7.6-22.3C40.2,53.7,40.2,72.4,51.8,91.6z"/>
	<path class="st3" d="M69.7,60c-2-10.2,7-15.5,9.2-23.8c2.2-8.3-2.2-11.3-3.3-17.1C65.1,31.2,63.2,44.9,69.7,60z"/>
	<path class="st3" d="M87.8,34.2c1.3-9,10.3-10.8,14.5-17.1c4.2-6.3,1.4-10,2.2-15.1C92.3,8.9,86.8,19.7,87.8,34.2z"/>
	<path class="st3" d="M166.6,320.1c-9.2-17.8,4.5-32.7,4-49.4c-0.6-16.7-10.2-19.8-15.4-29.8C142.2,269.1,146.2,295.5,166.6,320.1z"
		/>
	<path class="st3" d="M139.3,307.9c-9.8-14.2,0.4-28.5-1.9-42.6c-2.3-14.2-10.8-15.8-16.4-23.8C113,267,119.3,289.1,139.3,307.9z"/>
	<path class="st3" d="M107.4,282c-7-14.3,4.2-25.9,4-39.2c-0.1-13.3-7.8-15.9-11.7-24C88.9,241,91.6,262.1,107.4,282z"/>
	<path class="st3" d="M80.5,249.3c-5.1-14.1,6.6-23.8,7.8-36.2c1.2-12.4-5.6-15.7-8.5-23.7C67.4,209,67.8,229.1,80.5,249.3z"/>
	<path class="st3" d="M60.4,205.6c-2.5-13.1,9.1-20,11.9-30.7c2.8-10.7-2.8-14.6-4.2-22C54.5,168.4,52,186,60.4,205.6z"/>
	<path class="st3" d="M54.2,159.5c0.8-11.9,12.4-15.2,17.2-23.8c4.9-8.6,0.9-13.3,1.3-20C57.5,125.9,51.4,140.6,54.2,159.5z"/>
	<path class="st3" d="M58.4,115.6c3.4-10,14-10.1,20.1-16.4c6.1-6.3,3.8-11.1,5.7-16.8C68.8,87.7,60.2,98.8,58.4,115.6z"/>
	<path class="st3" d="M70.5,81.5c4.5-8.1,13.7-6.5,19.9-11c6.2-4.4,5-9,7.5-13.6C83.8,59,74.7,67.3,70.5,81.5z"/>
	<path class="st3" d="M86.6,50.9c4.3-6.2,11.7-4.1,17.1-7.1c5.5-3.1,4.8-6.9,7.3-10.4C99.4,33.8,91.3,39.7,86.6,50.9z"/>
	<path class="st3" d="M106.4,22.2c4-7.3,12.3-5.9,18-9.9c5.6-4,4.5-8.1,6.8-12.3C118.4,1.9,110.2,9.3,106.4,22.2z"/>
	<path class="st3" d="M291.3,338.2c18.5,7.3,31.6-8.2,48.1-9.5c16.4-1.3,20.6,8.1,31,12.2C344.1,357.1,317.7,356,291.3,338.2z"/>
	<path class="st3" d="M329.6,314.3c19.7,2.8,28.9-15.3,44.6-20.4c15.7-5.1,21.9,3.1,33,4.7C385.2,320.3,359.3,325.4,329.6,314.3z"/>
	<path class="st3" d="M366.5,282.9c17.8-0.4,23.4-17.9,36.5-24.7c13.2-6.8,19.8-0.5,29.8-0.8C416.7,280,394.5,288.3,366.5,282.9z"/>
	<path class="st3" d="M389.2,248.6c16.5-4,18.3-21.3,29.2-30.3c10.9-9,18.3-4.5,27.6-6.7C435.3,235.9,416.3,248.1,389.2,248.6z"/>
	<path class="st3" d="M404.4,213.1c15.6-6.8,14.3-24.2,23.5-35c9.2-10.8,17.3-7.6,26.1-11.5C447.7,192.4,431,207.8,404.4,213.1z"/>
	<path class="st3" d="M410.9,173.9c13.7-10.1,8.7-26.8,15.4-39.3c6.6-12.6,15.2-11.3,23-16.9C448.6,144.1,435.7,162.8,410.9,173.9z"
		/>
	<path class="st3" d="M409.1,129.5c9.3-12.5,0.7-25.7,3.2-38.5c2.5-12.7,10.4-13.9,15.6-20.9C434.3,93.5,427.9,113.3,409.1,129.5z"
		/>
	<path class="st3" d="M402.2,91.6c4.5-13.3-6.6-22.2-7.9-33.8c-1.4-11.6,5-14.8,7.6-22.3C413.8,53.7,413.8,72.4,402.2,91.6z"/>
	<path class="st3" d="M384.3,60c2-10.2-7-15.5-9.2-23.8c-2.2-8.3,2.2-11.3,3.3-17.1C388.9,31.2,390.8,44.9,384.3,60z"/>
	<path class="st3" d="M366.2,34.2c-1.3-9-10.3-10.8-14.5-17.1c-4.2-6.3-1.5-10-2.2-15.1C361.7,8.9,367.2,19.7,366.2,34.2z"/>
	<path class="st3" d="M287.4,320.1c9.2-17.8-4.5-32.7-4-49.4c0.6-16.7,10.2-19.8,15.4-29.8C311.8,269.1,307.8,295.5,287.4,320.1z"/>
	<path class="st3" d="M314.7,307.9c9.8-14.2-0.4-28.5,1.9-42.6c2.2-14.2,10.8-15.8,16.4-23.8C341,267,334.7,289.1,314.7,307.9z"/>
	<path class="st3" d="M346.6,282c7-14.3-4.2-25.9-4-39.2c0.1-13.3,7.8-15.9,11.7-24C365.1,241,362.4,262.1,346.6,282z"/>
	<path class="st3" d="M373.5,249.3c5.1-14.1-6.6-23.8-7.8-36.2c-1.2-12.4,5.6-15.7,8.5-23.7C386.6,209,386.3,229.1,373.5,249.3z"/>
	<path class="st3" d="M393.6,205.6c2.5-13.1-9.1-20-11.9-30.7c-2.8-10.7,2.8-14.6,4.2-22C399.5,168.4,402,186,393.6,205.6z"/>
	<path class="st3" d="M399.8,159.5c-0.8-11.9-12.4-15.2-17.2-23.8c-4.9-8.6-0.9-13.3-1.3-20C396.5,125.9,402.6,140.6,399.8,159.5z"
		/>
	<path class="st3" d="M395.6,115.6c-3.4-10-14-10.1-20.1-16.4c-6.1-6.3-3.8-11.1-5.7-16.8C385.3,87.7,393.8,98.8,395.6,115.6z"/>
	<path class="st3" d="M383.5,81.5c-4.5-8.1-13.7-6.5-19.9-11c-6.2-4.4-5-9-7.5-13.6C370.2,59,379.3,67.3,383.5,81.5z"/>
	<path class="st3" d="M367.4,50.9c-4.3-6.2-11.7-4.1-17.1-7.1c-5.4-3.1-4.8-6.9-7.3-10.4C354.6,33.8,362.7,39.7,367.4,50.9z"/>
	<path class="st3" d="M347.6,22.2c-4-7.3-12.3-5.9-18-9.9c-5.6-4-4.5-8.1-6.8-12.3C335.6,1.9,343.8,9.3,347.6,22.2z"/>
</g>
</svg>
