<?xml version="1.0" encoding="utf-8"?>
<!-- Generator: Adobe Illustrator 28.0.0, SVG Export Plug-In . SVG Version: 6.00 Build 0)  -->
<svg version="1.1" id="图层_1" xmlns="http://www.w3.org/2000/svg" xmlns:xlink="http://www.w3.org/1999/xlink" x="0px" y="0px"
	 viewBox="0 0 374.5 374.5" style="enable-background:new 0 0 374.5 374.5;" xml:space="preserve">
<style type="text/css">
	.st0{fill:#FFFFFF;}
	.st1{fill:#D91717;}
	.st2{fill:#FAD9DA;}
</style>
<g>
	<circle class="st0" cx="187.3" cy="187.3" r="184.3"/>
	<path class="st1" d="M187.3,374.5C84,374.5,0,290.5,0,187.3S84,0,187.3,0c103.3,0,187.3,84,187.3,187.3S290.5,374.5,187.3,374.5z
		 M187.3,6C87.3,6,6,87.3,6,187.3c0,99.9,81.3,181.3,181.3,181.3s181.3-81.3,181.3-181.3C368.5,87.3,287.2,6,187.3,6z"/>
</g>
<g>
	<circle class="st0" cx="187.3" cy="187.3" r="175.7"/>
	<path class="st1" d="M187.3,364.5C89.5,364.5,10,285,10,187.3S89.5,10,187.3,10s177.2,79.5,177.2,177.2S285,364.5,187.3,364.5z
		 M187.3,13C91.2,13,13,91.2,13,187.3s78.2,174.2,174.2,174.2s174.2-78.2,174.2-174.2S283.3,13,187.3,13z"/>
</g>
<g>
	<circle class="st2" cx="187.3" cy="187.3" r="124.7"/>
	<path class="st1" d="M187.3,313c-69.3,0-125.7-56.4-125.7-125.7S117.9,61.5,187.3,61.5S313,117.9,313,187.3S256.6,313,187.3,313z
		 M187.3,63.5C119,63.5,63.5,119,63.5,187.3C63.5,255.5,119,311,187.3,311c68.2,0,123.7-55.5,123.7-123.7
		C311,119,255.5,63.5,187.3,63.5z"/>
</g>
<g>
	<path class="st1" d="M37.4,190.8c-5.4-0.1-8.5-3.6-8.4-7.7c0-2.1,1.1-3.7,2.2-4.7l2,1.8c-0.8,0.8-1.4,1.7-1.4,3
		c0,2.5,2,4.3,5.5,4.4c3.5,0.1,5.7-1.6,5.7-4.2c0-1.4-0.6-2.5-1.5-3.4l2.1-1.7c1.5,1.4,2.3,3.1,2.3,5.2
		C45.8,187.5,42.8,190.8,37.4,190.8z"/>
	<path class="st1" d="M40.1,174.1l-10.8,3.8l0.3-3.4l4.1-1.2c1.2-0.3,2.4-0.7,3.7-1l0-0.1c-1.2-0.6-2.3-1.2-3.4-1.8l-3.8-2l0.3-3.4
		l9.8,5.9l5.9,0.6l-0.3,3.2L40.1,174.1z"/>
	<path class="st1" d="M31,163.1l1-5.3c0.6-3.3,2-5.6,5-5.1c1.5,0.3,2.8,1.4,3,2.8l0.1,0c0.7-1.7,2.2-2.7,4.4-2.3
		c3.2,0.6,4.2,3.6,3.5,7.1l-1.1,5.7L31,163.1z M38.4,159.3c0.4-2-0.3-3.1-1.5-3.3c-1.4-0.3-2.1,0.6-2.5,2.5l-0.4,1.9l4.1,0.8
		L38.4,159.3z M45.5,160.2c0.4-2.2-0.1-3.5-1.8-3.8c-1.6-0.3-2.4,0.8-2.8,3l-0.4,2.2l4.6,0.9L45.5,160.2z"/>
	<path class="st1" d="M34,148.4l2.7-9.6l2.6,0.7l-1.8,6.5l3.6,1l1.6-5.5l2.6,0.7l-1.6,5.5l4.2,1.2l1.9-6.7l2.6,0.7l-2.8,9.8
		L34,148.4z"/>
	<path class="st1" d="M56.3,132.9l-7,0.9l-0.8,2.1l5.7,2.2l-1.2,3l-15.2-5.9l2.1-5.3c1.2-3.2,3.3-5.3,6.8-3.9
		c2.3,0.9,3.2,2.6,3.3,4.6l7.6-1.1L56.3,132.9z M46.1,135l0.8-2c0.8-1.9,0.3-3.3-1.3-4c-1.6-0.6-2.6,0.2-3.4,2.2l-0.8,2L46.1,135z"
		/>
	<path class="st1" d="M49.2,116l-2.1,4l-2.4-1.3l5.8-11l2.4,1.3l-2.2,4.1l12,6.4l-1.5,2.9L49.2,116z"/>
	<path class="st1" d="M70.4,106.9l-7-0.6l-1.2,1.9l5.2,3.4l-1.8,2.7l-13.6-8.9l3.1-4.8c1.9-2.9,4.3-4.5,7.5-2.4
		c2,1.3,2.6,3.2,2.2,5.2l7.7,0.5L70.4,106.9z M60,106.9l1.2-1.8c1.1-1.8,1-3.2-0.4-4.1c-1.5-1-2.6-0.3-3.7,1.4l-1.2,1.8L60,106.9z"
		/>
	<path class="st1" d="M67.3,98.6l-7-5.6l2-2.5l7.2,5.8c2.6,2.1,4.3,1.9,5.5,0.5c1.2-1.5,1.1-3.2-1.5-5.3l-7.2-5.8l2-2.4l7,5.6
		c4.2,3.4,4.5,6.6,2,9.7C74.7,101.5,71.5,102,67.3,98.6z"/>
	<path class="st1" d="M80.2,91.1l-0.3-2.9c1.6-0.1,3.2-0.7,4.2-1.7c1.2-1.2,1.3-2.4,0.5-3.2c-0.9-0.8-1.8-0.4-3.3,0.2l-2.2,0.9
		c-1.6,0.7-3.7,1-5.4-0.7c-1.9-1.9-1.7-5,0.6-7.3c1.3-1.4,3.2-2.2,5.1-2.2l0.3,2.6c-1.3,0.1-2.4,0.6-3.4,1.5c-1,1-1.2,2.1-0.4,2.9
		c0.8,0.8,1.9,0.3,3.3-0.3l2.1-0.9c2-0.8,3.8-0.9,5.5,0.7c1.9,1.9,2,5-0.7,7.7C84.5,90,82.4,91,80.2,91.1z"/>
	<path class="st1" d="M84.3,71l-3.5,3l-1.8-2l9.4-8.2l1.8,2l-3.5,3l8.9,10.3l-2.5,2.1L84.3,71z"/>
	<path class="st1" d="M114.1,66c-1.2,0.5-2.7,0.8-4.3,0.8c-0.5,1.6-1.5,3.1-3.2,4.2c-2.8,1.9-5.6,1.2-7-0.9c-1.3-1.9-0.8-3.8,0-5.5
		c-1.2-0.7-2.2-1.4-2.8-2.3c-1.3-1.9-0.9-4.4,1.2-5.8c1.9-1.3,3.9-0.9,5.1,0.8c1.2,1.8,0.5,3.9-0.3,5.9c1.5,0.5,3.2,0.7,4.8,0.8
		c0.1-1.4-0.1-3-0.7-4.6l2.4-1.6c0.6,2,0.9,4.1,0.8,6.2c1.2-0.1,2.3-0.3,3-0.6L114.1,66z M100.6,62.3c0.6-1.4,1-2.6,0.3-3.5
		c-0.5-0.7-1.1-1-1.8-0.5c-0.8,0.5-0.9,1.5-0.2,2.6C99.3,61.4,99.9,61.9,100.6,62.3z M105.5,68.8c0.7-0.4,1.2-1.2,1.5-2
		c-1.8-0.2-3.6-0.5-5.2-1.1c-0.3,1-0.3,1.9,0.2,2.6C102.8,69.5,104.2,69.7,105.5,68.8z"/>
	<path class="st1" d="M111.4,48.5l4-2c4.4-2.2,8.4-1.3,10.8,3.6c2.5,4.9,0.9,8.7-3.4,10.9l-4.2,2.1L111.4,48.5z M121.4,58.8
		c2.7-1.4,3.7-3.7,1.9-7.2c-1.8-3.6-4.1-4.1-6.9-2.7l-0.9,0.5l5,9.9L121.4,58.8z"/>
	<path class="st1" d="M125.4,41.8l3-1.2l6.2,15l-3,1.2L125.4,41.8z"/>
	<path class="st1" d="M133.7,47.1c-1.7-5.1,0.6-9.2,4.7-10.5c2.2-0.7,4.1-0.3,5.4,0.4l-1,2.5c-1-0.5-2.1-0.8-3.5-0.3
		c-2.6,0.9-3.7,3.5-2.6,6.8c1.1,3.4,3.3,4.9,6.4,3.9c0.8-0.2,1.4-0.7,1.7-1.2l-1-3l-2.7,0.9l-0.8-2.5l5.5-1.8l2.3,7
		c-0.7,1.4-2.2,2.8-4.4,3.5C139.6,54,135.5,52.3,133.7,47.1z"/>
	<path class="st1" d="M146.8,34.5l3.2-0.8l4,15.8l-3.2,0.8L146.8,34.5z"/>
	<path class="st1" d="M157.2,34.8l-4.5,0.8l-0.5-2.7l12.2-2.3l0.5,2.7l-4.5,0.8l2.5,13.4l-3.2,0.6L157.2,34.8z"/>
	<path class="st1" d="M174.9,41.8l-5.3,0.5l-0.7,4.3l-3.3,0.3l3.5-16.7l3.8-0.4l6.9,15.7l-3.4,0.3L174.9,41.8z M173.9,39.4l-0.7-1.7
		c-0.7-1.6-1.3-3.4-2-5.2l-0.1,0c-0.2,1.8-0.5,3.7-0.8,5.4l-0.3,1.8L173.9,39.4z"/>
	<path class="st1" d="M180.1,29.3l3.3-0.1l0.2,13.6l6.6-0.1l0,2.7l-9.9,0.2L180.1,29.3z"/>
	<path class="st1" d="M194.5,43.5l2.1-2.1c1.1,1.2,2.5,2,4,2.2c1.7,0.2,2.7-0.5,2.8-1.6c0.1-1.2-0.8-1.7-2.2-2.4l-2.1-1.1
		c-1.6-0.8-3.1-2.3-2.9-4.7c0.2-2.7,2.8-4.5,6-4.2c1.9,0.2,3.7,1.1,4.9,2.5l-1.8,1.9c-1-0.9-2-1.5-3.3-1.7c-1.4-0.1-2.4,0.4-2.5,1.5
		c-0.1,1.2,1,1.7,2.3,2.4l2,1.1c1.9,1,3.1,2.4,2.9,4.7c-0.2,2.7-2.7,4.7-6.4,4.4C198.1,46.2,196,45.2,194.5,43.5z"/>
	<path class="st1" d="M210.5,30.9l9.8,1.8l-0.5,2.7l-6.6-1.2l-0.7,3.7l5.6,1l-0.5,2.7l-5.6-1l-0.8,4.3l6.9,1.2l-0.5,2.7l-10.1-1.8
		L210.5,30.9z"/>
	<path class="st1" d="M220.9,41.1c1.4-5.2,5.6-7.3,9.5-6.2c2,0.5,3.3,1.9,4.1,3.3l-2.2,1.5c-0.6-1-1.3-1.8-2.5-2.1
		c-2.4-0.6-4.7,0.9-5.6,4.3c-0.9,3.4,0.1,5.9,2.6,6.6c1.3,0.4,2.6,0,3.7-0.7l1.1,2.4c-1.7,1.2-3.6,1.5-5.6,0.9
		C221.9,50.1,219.5,46.4,220.9,41.1z"/>
	<path class="st1" d="M234.2,45.6l3.2-8.4l3,1.2l-3.3,8.6c-1.2,3.2-0.5,4.7,1.3,5.3c1.8,0.7,3.4,0.1,4.6-3.1l3.3-8.6l2.9,1.1
		l-3.2,8.4c-1.9,5.1-4.9,6.3-8.6,4.9C233.7,53.6,232.3,50.7,234.2,45.6z"/>
	<path class="st1" d="M253.5,61.9l-0.2-7l-2-1l-2.8,5.5l-2.9-1.5l7.3-14.6l5.1,2.5c3.1,1.5,4.9,3.8,3.3,7.1c-1.1,2.2-2.9,3-4.9,2.8
		l0.4,7.7L253.5,61.9z M252.4,51.6l1.9,0.9c1.9,0.9,3.3,0.7,4.1-0.9c0.8-1.6,0-2.6-1.8-3.6l-1.9-0.9L252.4,51.6z"/>
	<path class="st1" d="M266,50.2l2.8,1.7l-8.3,14l-2.8-1.7L266,50.2z"/>
	<path class="st1" d="M273.1,57.8l-3.8-2.6l1.5-2.2l10.3,7l-1.5,2.2l-3.8-2.6l-7.6,11.2l-2.7-1.8L273.1,57.8z"/>
	<path class="st1" d="M278.5,71.1l2.7-11.1l2.7,2.2l-1.2,4.1c-0.4,1.2-0.8,2.4-1.2,3.7l0.1,0.1c1.2-0.7,2.3-1.2,3.4-1.9l3.8-2.1
		l2.6,2.1l-10.3,5l-3.7,4.6l-2.5-2L278.5,71.1z"/>
	<path class="st1" d="M295.7,72.3l7.1,7.1l-1.9,1.9l-4.8-4.8l-2.7,2.7l4,4.1l-1.9,1.9l-4-4.1l-3.1,3.1l4.9,4.9l-1.9,1.9l-7.2-7.2
		L295.7,72.3z"/>
	<path class="st1" d="M303.8,80.3l2.2,2.6l-4.7,6.7c-1.1,1.5-2.1,2.8-3.1,4.4l0.1,0.1c1.7-0.8,3.2-1.5,4.9-2.3l7.4-3.5l2.1,2.5
		L297,97.6l-2.5-3L303.8,80.3z"/>
	<path class="st1" d="M308,105.3l-3-4.3l-4.1,1.5l-1.9-2.7l16.3-5.1l2.2,3.1l-10.3,13.7l-2-2.8L308,105.3z M309.7,103.3l1.2-1.4
		c1.1-1.4,2.4-2.8,3.5-4.2l-0.1-0.1c-1.7,0.7-3.5,1.4-5.1,1.9l-1.7,0.6L309.7,103.3z"/>
	<path class="st1" d="M321.5,103.7l1.6,2.8l-11.7,6.9l3.3,5.7l-2.4,1.4l-5-8.5L321.5,103.7z"/>
	<path class="st1" d="M319.3,117.7l8.1-3.8l1.4,2.9l-8.3,4c-3.1,1.5-3.6,3-2.8,4.7c0.8,1.7,2.4,2.4,5.5,0.9l8.3-4l1.3,2.8l-8.1,3.8
		c-4.9,2.3-7.9,1.2-9.6-2.4C313.4,123.1,314.4,120,319.3,117.7z"/>
	<path class="st1" d="M325.4,140l-1.8-5l-4.3,0.3l-1.1-3.1l17.1-0.6l1.3,3.6L323,145.7l-1.2-3.2L325.4,140z M327.5,138.5l1.5-1.1
		c1.4-1.1,3-2.1,4.5-3.2l0-0.1c-1.8,0.2-3.7,0.4-5.5,0.5l-1.8,0.2L327.5,138.5z"/>
	<path class="st1" d="M336.5,144.1l-1.2-4.4l2.6-0.7l3.3,12l-2.6,0.7l-1.2-4.5l-13.1,3.6l-0.9-3.1L336.5,144.1z"/>
	<path class="st1" d="M341.6,153.3l0.7,3.2l-15.9,3.3l-0.7-3.2L341.6,153.3z"/>
	<path class="st1" d="M335,160.5c5.3-0.7,8.7,1.9,9.3,6.1s-2.1,7.6-7.4,8.3c-5.2,0.7-8.8-1.8-9.4-6.1S329.7,161.2,335,160.5z
		 M336.4,171.6c3.5-0.5,5.3-2.2,5-4.6c-0.3-2.4-2.6-3.7-6.1-3.2c-3.4,0.4-5.5,2.3-5.1,4.7S333,172.1,336.4,171.6z"/>
	<path class="st1" d="M345.1,177.3l0.1,3.3l-8.6,4.9l-3.5,1.7l0,0.1c1.7-0.2,3.8-0.5,5.7-0.5l6.5-0.1l0.1,3.1l-16.3,0.4l-0.1-3.3
		l8.6-4.9l3.5-1.7l0-0.1c-1.8,0.2-3.8,0.5-5.7,0.5l-6.5,0.1l-0.1-3.1L345.1,177.3z"/>
</g>
<g>
	<path class="st1" d="M66.4,289.4c-1.5,1.1-2.5,1.3-3.7,0.6c-1.1-0.6-2.2-2.1-3.7-4.3c0.7-0.7,1.6-2,2-2.9c0.9,1.5,2.1,3.2,2.4,3.6
		c0.4,0.5,0.6,0.5,1.1,0.2l14.2-10L69,262.8l-3.9,2.8l2.4,0.3c-0.3,1.2-0.6,2.6-0.9,3.9c1.5-0.6,2.9-1.4,4.4-2.2l1.4,2.6
		c-2.3,1.2-4.6,2.3-6.8,3.1c-0.4,1.5-0.9,2.9-1.3,4l-3.1-0.3c0.3-0.7,0.7-1.6,1-2.7c-2.5,0.6-4.8,0.8-7,0.5c0.1-0.5,0.1-1.6,0-2.4
		l-3.8,2.7l-1.9-2.7l20.1-14.1l13.5,19.4L66.4,289.4z M56.1,271.8c2.2,0.3,4.6,0,7.2-0.8c0.5-1.7,1-3.5,1.4-5.2L56.1,271.8z
		 M64.9,283.6c0.5-0.8,1-1.8,1.5-3c-2.5,0.6-4.9,0.8-7.1,0.5c0.1-0.7,0.1-2.4,0-3.1c2.6,0.5,5.4,0.2,8.5-0.7
		c0.6-1.7,1.1-3.6,1.5-5.3l2.6,0.6c-0.2,1.1-0.5,2.3-0.8,3.5c1.4-0.6,2.8-1.3,4.2-2.1l1.5,2.6c-2.3,1.2-4.6,2.3-6.8,3.1
		c-0.6,1.8-1.3,3.4-2,4.6L64.9,283.6z"/>
	<path class="st1" d="M69.9,293.2c2.2,1.2,5.6,2.8,9,4.4l-1.6,2.5c-3.2-1.3-6.5-2.8-9.2-3.9L69.9,293.2z M100.6,297.7
		c-2.7,1.2-5.5,1.7-8.3,1.6c0.5,1.9,1.5,3.8,2.7,5.7c-0.9,0.3-2.2,1-3,1.5c-0.2-0.3-0.3-0.6-0.5-0.9l-7.1,7.3l-2.3-2.2l1-1l-4.5-4.4
		l-1,1l-2.2-2.1l7.1-7.3c-0.4-0.2-0.8-0.4-1.2-0.6c0.3-0.5,0.7-1.3,1-2.1c-0.6,0.5-1.4,1.3-1.7,1.8c-6-3.6-7-4.1-7.9-4.3
		c0.3-0.6,1-2.1,1.4-2.9c0.6,0.4,1.5,0.4,2.8,0.3c0.6,0,1.9-0.2,3.4-0.4c-1.9-1.5-2.5-1.8-3-2l0,0l0,0c0.3-0.6,1.1-2.1,1.4-3
		c0.6,0.3,1.3,0.2,2.4,0c1-0.2,4.8-1.3,7.7-2.8l1.2,3.3c-2.5,1-5.4,1.8-8,2.3l1.8,1.5c1-0.2,1.9-0.5,2.8-0.9l0.5,2.1
		c2.8,0.2,6.1-0.5,8.8-1.8l1.5,2.7c-0.7,0.3-1.4,0.6-2.1,0.8l4.3,4.2l0.5,0.3L100.6,297.7z M82.3,293.9c0.1-0.3,0.2-0.5,0.2-0.7
		c2,1.1,4.1,2,6.2,2.5c0-1.1,0-2.2,0.2-3.3c-1,0.1-1.9,0.1-2.9,0.1c0.1-0.4,0.3-1.2,0.4-1.9c-2.3,0.6-4.9,1-7.2,1.3L82.3,293.9z
		 M85.1,307.6l2.3-2.4l-4.5-4.4l-2.3,2.4L85.1,307.6z M91,304.6c-0.9-1.8-1.6-3.8-1.9-5.6c-1.9-0.3-3.8-0.9-5.6-1.6L91,304.6z
		 M91.9,292c-0.3,1.4-0.4,2.8-0.3,4.3c1.5,0.1,3,0,4.5-0.3L91.9,292z"/>
	<path class="st1" d="M98.6,315.2l-1.2,1.8l-2.7-1.8l7.1-10.9l10,6.5l-5.9,9.1L98.6,315.2z M102.7,308.7l-2.4,3.8l4.5,2.9l2.4-3.8
		L102.7,308.7z M122.5,314l-2.7-1.8l-9.1,14c-1.1,1.7-2,2.3-3.4,2c-1.5-0.3-3.2-1.4-5.6-2.9c0.4-0.9,0.7-2.7,0.8-3.7
		c1.6,1.2,3.7,2.5,4.2,2.8c0.5,0.4,0.9,0.3,1.2-0.2l9-14l-15.5-10.1l1.8-2.8l21.2,13.7L122.5,314z"/>
	<path class="st1" d="M133.1,313.9c-1.2,1.3-2.4,2.6-3.8,3.8l-7.5,18.8l-2.8-1.1l5.6-14c-1,0.6-2,1.2-2.9,1.7c0-0.8-0.2-2.8-0.4-3.7
		c3.1-1.5,6.7-4.3,9.3-7.5L133.1,313.9z M128,328.8l13.7,5.5l-3.4,8.6l-2.7-1.1l0.3-0.7l-8.4-3.4l-0.3,0.8l-2.6-1.1L128,328.8z
		 M129.6,332.3l-1.2,2.9l8.4,3.4l1.2-2.9L129.6,332.3z M129.9,325.1l13,5.2l-1,2.4l-13-5.2L129.9,325.1z M147.9,323.4l-1,2.5
		l-16.7-6.7l1-2.5l7.4,3c0-1.1-0.2-2.6-0.4-3.7l3,0.1c0.3,1.4,0.5,3.1,0.5,4.2l-1.7,0.1L147.9,323.4z M143.5,329l-13-5.2l1-2.4
		l13,5.2L143.5,329z"/>
	<path class="st1" d="M163.5,342l-17.1-3.2l0.6-3.1l17.1,3.2L163.5,342z M171.8,334.2c0,0-0.2,1-0.4,1.4c-2.1,7.6-3.5,10.8-5,11.8
		c-1.1,0.8-2,0.9-3.5,0.7c-1.1-0.1-3.1-0.5-5.1-1c0.1-1-0.1-2.4-0.6-3.5c2.1,0.6,4.4,1,5.3,1.2c0.6,0.1,1.1,0.2,1.5-0.1
		c1-0.5,2.2-3.1,3.7-8.2l-14.3-2.7l-2.8-0.6c1.5-3.1,3.6-8.3,4.9-12.3l3.3,1c-0.3,0.8-0.6,1.6-0.9,2.5l14.6,2.7l-0.6,3.1l-15.2-2.9
		c-0.5,1.2-1,2.5-1.4,3.6L171.8,334.2z"/>
	<path class="st1" d="M180.6,334.3c-1.3,1.3-2.7,2.5-4.1,3.3c-0.4-0.7-1.1-1.8-1.7-2.4c1.6-0.7,3.4-2,4.7-3.4l-4.1,0.1l0-2.6l2.2,0
		c-0.2-0.9-0.9-2.4-1.5-3.4l2.3-1c0.8,1,1.5,2.5,1.7,3.4l-2.3,1l2.8,0l-0.1-4.9l3.1-0.1l0.1,4.9l5.3-0.1l0,2.6l-4.1,0.1
		c1.3,0.7,2.9,1.6,3.3,1.9l-1.7,2.4c-0.6-0.6-1.7-1.5-2.8-2.3l0,3.1l-3.1,0L180.6,334.3z M185.3,348.6c-0.6-0.4-1.3-0.9-2.2-1.4
		c-1.9,1.5-4.1,2.5-6.6,3.2c-0.3-0.8-1-1.9-1.6-2.5c2-0.5,3.9-1.2,5.5-2.2c-1.3-0.7-2.7-1.3-4-1.8c0.5-0.7,1-1.6,1.6-2.6l-2.1,0
		l0-2.7l3.5-0.1c0.2-0.6,0.5-1.1,0.6-1.6l2.9,0.5c-0.1,0.4-0.3,0.7-0.5,1.1l3.6-0.1l0.5-0.1l1.8,0.6c-0.6,2.5-1.7,4.5-3.1,6.2
		c0.8,0.4,1.4,0.8,2,1.2L185.3,348.6z M181.2,341.3c-0.3,0.5-0.5,1-0.8,1.5c0.8,0.4,1.6,0.7,2.3,1.1c0.8-0.8,1.4-1.7,1.9-2.7
		L181.2,341.3z M188.5,325.6c-0.9,1.3-1.8,2.5-2.5,3.4l-2.1-0.9c0.6-1,1.4-2.5,1.8-3.6L188.5,325.6z M199,332.2
		c-0.5,3.9-1.3,7.2-2.5,10c1.3,2.2,3.1,3.9,5.2,5c-0.7,0.6-1.7,1.8-2.1,2.7c-2-1.2-3.5-2.7-4.8-4.7c-1.6,2.2-3.5,3.9-6.1,5.2
		c-0.3-0.7-1.2-2.1-1.8-2.7c2.8-1.3,4.9-3.1,6.2-5.5c-0.8-1.8-1.5-3.7-2.1-5.8c-0.4,0.9-0.9,1.8-1.4,2.5c-0.5-0.6-1.7-1.6-2.4-2.1
		c2.2-2.9,3.3-7.7,3.9-12.7l3,0.4c-0.2,1.6-0.5,3.1-0.8,4.6l7.4-0.1l0.1,3.1L199,332.2z M192.8,332.3c0.5,2.2,1.1,4.4,1.8,6.4
		c0.6-1.9,1-4,1.3-6.4L192.8,332.3z"/>
	<path class="st1" d="M207,332.1l-3.2,0.6l-1.3-6.3l10.3-2.1c-0.5-0.6-0.9-1.2-1.4-1.6l3.1-1.6c0.8,0.7,1.7,1.7,2.2,2.5l9.4-1.9
		l1.3,6.3l-3.4,0.7l-0.6-3.2l-17,3.4L207,332.1z M229.3,336.8l-10.2,2.1l0.8,4.1c0.4,1.8,0.1,2.7-1.1,3.5c-1.2,0.8-3,1.2-5.2,1.6
		c-0.4-0.9-1.3-2.3-2.1-3c1.7-0.3,3.8-0.7,4.3-0.8s0.7-0.3,0.6-0.6l-0.8-4.1l-10.2,2l-0.6-3.1l10.2-2l-0.3-1.5c1-0.8,2-1.9,2.9-2.9
		l-8.8,1.8l-0.6-3l12.1-2.4l0.7-0.3l2.5,1.3c-1.3,2-3.1,4.2-5.1,6l0.1,0.5l10.2-2.1L229.3,336.8z"/>
	<path class="st1" d="M234.3,325.7l-3.1,1.3l-2.4-5.8l9-3.7c-0.6-0.6-1.3-1.2-1.9-1.7l2.9-2.1c0.9,0.7,1.9,1.6,2.6,2.3l9.1-3.8
		l2.4,5.8l-3.3,1.4l-1.2-2.9l-15.4,6.4L234.3,325.7z M250.6,324c0,2.3-0.3,4.4-1,6.3c3.5,0,6.7,0.2,9.1,0.6l-1.4,3.7
		c-2.3-0.5-5.7-0.7-9.4-0.8c-2,3.1-5.1,5.8-8.9,8.3c-0.6-0.6-2.1-1.7-3-2.1c3.4-2,6-4,7.9-6.3c-2.4,0-4.9,0.1-7.1,0.3l0-0.1
		c0.4-1.3,0.7-2.9,0.9-4.5l-5.4,2.2l-1.2-2.9l7-2.9c0.1-1.6,0.2-3.1,0.2-4.5l3.7-0.8c0,1.2,0,2.4-0.1,3.7l12-5l1.2,2.9L250.6,324z
		 M241.6,327.8c-0.2,1-0.3,1.9-0.5,2.8c1.6-0.1,3.2-0.2,4.9-0.2c0.6-1.5,1-3.1,1-4.9L241.6,327.8z"/>
	<path class="st1" d="M269.9,311.7l1.8,2.7l5.5-3.7l1.6,2.4l-5.5,3.7l1.9,2.8l8.5-5.7l1.7,2.5l-19.8,13.2l-1.7-2.5l8.4-5.6l-1.9-2.8
		l-5.3,3.5l-1.6-2.4l5.3-3.5l-1.8-2.7l-5.6,3.8l-1-1.6c-0.4,0.9-0.9,1.8-1.4,2.7c-0.9-0.5-2.3-0.9-3.4-1c3-4.5,5.2-10.4,5.2-15.5
		l3.2-0.5c0,0.3,0,0.6,0,0.9c4.7,1.1,9.3,1,14.1,0.2c-0.3,1.1-0.5,2.6-0.3,3.6c-1,0.1-2.1,0.2-3.1,0.3l1,1.5L269.9,311.7z
		 M272.5,306.4c-3,0-5.9-0.3-8.9-1c-0.5,3-1.3,5.9-2.4,8.6L272.5,306.4z"/>
	<path class="st1" d="M280.9,295.8c-1.5-0.3-4.2-0.3-6.2-0.2l0-2.9c1.9-0.1,4.6-0.3,6.2-0.1L280.9,295.8z M290.3,301.2
		c0.8,0.4,2.1,1,2.8,1.2c-0.6,6.2-0.7,7.4-0.5,8.2c-0.8-0.4-2.2-0.8-3-0.9c0.2-0.7,0.1-1.8-0.8-2.7l-6.2-6.2l-2.3,2.3l-2.2-2.3
		l4.5-4.5l7.4,7.5L290.3,301.2z M302.5,288.3l-5.1,5l6.4,6.5l-2.4,2.4l-6.4-6.5l-5.1,5l-2.2-2.3l5.1-5l-6.6-6.7l-4.6,4.6l-2.2-2.2
		l11.4-11.2l2.2,2.2l-4.3,4.3l6.6,6.7l5.1-5L302.5,288.3z M284.7,289.8c2,1,4.2,2.4,5.6,3.6l-1.6,2.6c-1.3-1.2-3.6-2.7-5.5-3.7
		L284.7,289.8z M295.1,288.9c-0.9-1.7-2.4-4.1-3.6-5.8l2.7-1.8c1.2,2.2,2.4,4.6,3.2,6.2L295.1,288.9z"/>
	<path class="st1" d="M298.2,275c-1.2,0.3-3.5,1.3-5.1,2.1l-0.9-3c1.4-0.8,3.6-1.9,4.9-2.3L298.2,275z M312.5,279.2l-1.4,2.1
		l-15.1-10.3l5.6-8.2l15,10.2l-1.5,2.2l-13-8.9l-2.7,4L312.5,279.2z M303.7,280c-1.2,0.4-3.4,1.4-5,2.1l-0.9-2.9
		c1.4-0.8,3.5-1.9,4.8-2.4L303.7,280z M315.4,275.8c1.8-0.3,4.2-0.6,5.6-0.5l-0.1,2.5c-1.3-0.1-3.7,0-5.5,0.3c1,1.7,1.5,3.8,1.1,6.6
		c-0.6-0.1-1.9-0.1-2.5,0c0.8-4.8-1.4-6.8-4-8.6l-8.8-6l1.4-2l8.9,6c1.4,1,2.8,2.1,3.8,3.7L315.4,275.8z M318.8,269.8l-1.4,2.1
		l-14.2-9.6l1.4-2.1L318.8,269.8z M305,255.7l18.5,12.6c1.2,0.9,1.7,1.5,1.6,2.5c-0.1,1-0.8,2.2-2,3.8c-0.7-0.3-1.9-0.7-2.7-0.8
		c0.8-1.1,1.5-2.2,1.8-2.5s0.2-0.6-0.1-0.8l-18.5-12.6L305,255.7z M308.1,280.4c2,2.5,3.9,5.3,5.6,7.7l-3.1,1.5
		c-1.2-2.1-3.3-5.3-5.4-8L308.1,280.4z"/>
</g>
<g>
	<g>
		<polygon class="st1" points="221,188.8 181.7,222.6 153.5,198.4 163.9,189.5 181.7,204.7 210.6,179.9 		"/>
	</g>
	<g>
		<path class="st1" d="M255.6,159.5c-7.9-3.9-16.2-7.2-24.8-9.7v-10.4c0-20.5-19.5-37.3-43.5-37.3h-0.2c-24,0-43.5,16.7-43.5,37.3
			v10.4c-8.6,2.5-16.9,5.7-24.8,9.7l-0.7,0.3l9.6,59.3c0,0.3,0.9,7.7,8.6,18.1c7.1,9.5,21.6,23.2,50.6,35l0.3,0.1l0.3-0.1
			c28.9-11.7,43.5-25.5,50.6-35c7.7-10.3,8.5-17.7,8.6-18l9.6-59.3L255.6,159.5z M187.2,115h0.2c15.8,0,28.6,11,28.6,24.5v6.8
			c-18.8-3.5-38.6-3.5-57.4,0v-6.8C158.6,126,171.4,115,187.2,115z M232,217.3L232,217.3l-0.1,0.7c-0.2,1.1-1.5,6.5-7.3,13.7
			c-5.5,6.8-16.4,17-37.3,26.4c-20.9-9.4-31.8-19.5-37.3-26.4c-5.7-7.1-7.1-12.5-7.3-13.7l-8.3-51.1c3.3-1.4,6.8-2.7,10.3-3.8l0,0
			c1.4-0.4,2.8-0.9,4.3-1.3c0.8-0.2,1.6-0.5,2.4-0.7c1.1-0.3,2.2-0.6,3.3-0.8c0,0,0,0,0,0c1.1-0.3,2.2-0.5,3.3-0.8
			c19.1-4.1,39.4-4.1,58.5,0c2.2,0.5,4.5,1,6.7,1.6c0.8,0.2,1.6,0.4,2.4,0.7c1.5,0.4,2.9,0.9,4.3,1.3l0,0c3.5,1.1,7,2.4,10.3,3.8
			L232,217.3z"/>
	</g>
</g>
<g>
	<path class="st1" d="M331.5,231.6l-6.8,4.5l2.3-7.2l-5.5-5h7l2.9-6.7l2.6,6.7l7.3,0l-5.8,5l2.3,7.2L331.5,231.6z"/>
</g>
<g>
	<path class="st1" d="M43.8,231.6l6.8,4.5l-2.3-7.2l5.5-5h-7l-2.9-6.7l-2.6,6.7l-7.3,0l5.8,5l-2.3,7.2L43.8,231.6z"/>
</g>
</svg>
