<?xml version="1.0" standalone="no"?><!DOCTYPE svg PUBLIC "-//W3C//DTD SVG 1.1//EN" "http://www.w3.org/Graphics/SVG/1.1/DTD/svg11.dtd"><svg t="1644738479243" class="icon" viewBox="0 0 1024 1024" version="1.1" xmlns="http://www.w3.org/2000/svg" p-id="5642" xmlns:xlink="http://www.w3.org/1999/xlink" width="200" height="200"><defs><style type="text/css"></style></defs><path d="M512.28 962.22c-60.6 0-119.4-11.88-174.78-35.3-53.47-22.62-101.48-54.99-142.71-96.21-41.22-41.22-73.59-89.23-96.21-142.71-23.42-55.38-35.3-114.18-35.3-174.78s11.88-119.4 35.3-174.78c22.62-53.47 54.99-101.49 96.21-142.71 41.22-41.22 89.24-73.59 142.71-96.21 55.38-23.42 114.18-35.3 174.78-35.3s119.4 11.88 174.78 35.3c53.47 22.62 101.49 54.99 142.71 96.21 41.22 41.22 73.59 89.24 96.21 142.71 23.42 55.38 35.3 114.18 35.3 174.78S949.4 632.62 925.98 688c-22.62 53.47-54.99 101.49-96.21 142.71-41.22 41.22-89.24 73.59-142.71 96.21-55.37 23.43-114.18 35.3-174.78 35.3z m0-827.91c-208.93 0-378.91 169.98-378.91 378.91s169.98 378.91 378.91 378.91S891.2 722.16 891.2 513.22 721.22 134.31 512.28 134.31z" fill="#707070" p-id="5643"></path><path d="M505.83 794.46h12.9c31.94 0 57.84-25.89 57.84-57.84 0-31.94-25.89-57.84-57.84-57.84h-12.9c-31.94 0-57.84 25.89-57.84 57.84 0.01 31.94 25.9 57.84 57.84 57.84zM507.17 643.47c-11.17 0-22.42-3.51-32-10.79-23.3-17.7-27.85-50.93-10.15-74.23L569.1 421.38c11.68-15.38 13.41-35.82 4.41-52.07-10.54-19.05-35.53-28.71-74.25-28.71-34.35 0-58.77 7.96-72.59 23.65-19.76 22.44-16.62 58.03-16.58 58.38 3.71 29.02-16.82 55.56-45.84 59.26-29.02 3.7-55.56-16.82-59.26-45.84-1.07-8.4-9-83.71 42.16-141.82 16.66-18.93 37.58-33.61 62.16-43.63 25.97-10.59 56.24-15.96 89.96-15.96 99.85 0 145.91 45.32 166.95 83.35 29.31 52.95 24.31 118.69-12.73 167.47L549.4 622.52c-10.42 13.73-26.24 20.95-42.23 20.95z" fill="#707070" p-id="5644"></path></svg>