<?xml version="1.0" encoding="utf-8"?>
<!-- Generator: Adobe Illustrator 23.0.0, SVG Export Plug-In . SVG Version: 6.00 Build 0)  -->
<svg version="1.1" id="图层_1" xmlns="http://www.w3.org/2000/svg" xmlns:xlink="http://www.w3.org/1999/xlink" x="0px" y="0px"
	 viewBox="0 0 11.2 14" style="enable-background:new 0 0 11.2 14;" xml:space="preserve">
<style type="text/css">
	.st0{fill:#FFFFFF;}
</style>
<path class="st0" d="M11,1.8L5.8,0C5.7,0,5.7,0,5.6,0S5.4,0,5.4,0L0.2,1.8C0.1,1.8,0,2,0,2.1v7.3c0,0.1,0.1,0.3,0.2,0.4l5.2,4.1
	c0.1,0,0.1,0.1,0.2,0.1s0.1,0,0.2-0.1L11,9.8c0.1-0.1,0.2-0.3,0.2-0.4V2.1C11.2,2,11.1,1.8,11,1.8L11,1.8z M10.1,9.2l-4.5,3.5
	L1.1,9.2V2.7l4.5-1.5l4.5,1.5V9.2z"/>
<path class="st0" d="M3.9,6.1C3.9,6,3.8,6,3.7,6H2.9C2.8,6,2.7,6.1,2.8,6.2l1.9,2.6c0.1,0.1,0.3,0.1,0.4,0l3.2-4.5
	c0.1-0.1,0-0.2-0.1-0.2H7.4c-0.1,0-0.2,0-0.2,0.1L4.9,7.4C4.9,7.5,3.9,6.1,3.9,6.1z"/>
</svg>
