<?xml version="1.0" encoding="utf-8"?>
<!-- Generator: Adobe Illustrator 28.0.0, SVG Export Plug-In . SVG Version: 6.00 Build 0)  -->
<svg version="1.1" id="图层_1" xmlns="http://www.w3.org/2000/svg" xmlns:xlink="http://www.w3.org/1999/xlink" x="0px" y="0px"
	 viewBox="0 0 200 200" style="enable-background:new 0 0 200 200;" xml:space="preserve">
<style type="text/css">
	.st0{fill:#ff7125;fill-opacity:0.1;}
	.st1{fill:#ff7125;}
	.st2{fill:none;stroke:#ff7125;stroke-miterlimit:10;}
</style>
<path class="st0" d="M174.7,118.5c-6.3-1.6-12.4-3.5-18.5-5.6c-5.4-1.9-10.7-4.3-15.7-7.1l-1.7-1c-1.5-0.9-3.3-0.9-4.7,0
	c-5.5,3.3-11.3,6-17.3,8.1c-5.7,2-11.9,3.9-18.5,5.6c-2,0.5-3.4,2.3-3.4,4.4v32.3c0,19.4,26.3,40.6,41.7,40.6
	c15.4,0,41.7-21.2,41.7-40.6l0-32.3C178.1,120.9,176.7,119,174.7,118.5z"/>
<g>
	<path class="st1" d="M108.4,135.5l-1.4-1.4l-13.3-13.3c-0.8-0.7-1.8-1.2-2.9-1.2c-1.1,0-2.2,0.4-3,1.2c-0.8,0.8-1.3,1.8-1.3,3
		c0,1.1,0.4,2.2,1.2,3l17.7,17.7c0.8,0.8,1.9,1.2,3,1.2c1.1,0,2.2-0.4,3-1.2l29.5-29.5l0,0l0,0c0.1-0.1,0.1-0.1,0.2-0.2
		c0.8-0.8,1.2-1.9,1.2-3c0-1.1-0.5-2.2-1.3-3c-0.8-0.8-1.8-1.2-2.9-1.2c-1.2,0-2.3,0.5-3.1,1.3l0,0l0,0l-25,25L108.4,135.5z"/>
	<path class="st1" d="M86.4,50c-7.7,0-15.1,3.6-19.8,9.7C58.1,70.7,60.1,86.5,71,95l2.6,2l-3,1.4c-14.1,6.6-23.2,20.8-23.2,36.4
		c0,2.3,1.9,4.2,4.2,4.2c1.1,0,2.2-0.4,3-1.2c0.8-0.8,1.2-1.9,1.2-3c0-7.3,2.5-14.4,7.1-20c6-7.4,14.9-11.6,24.5-11.6
		c7.2,0,14.3,2.5,20,7.1c0.7,0.6,1.6,0.9,2.6,0.9c1.3,0,2.4-0.6,3.3-1.5c1.5-1.8,1.3-4.5-0.5-6c-3-2.4-6.3-4.4-9.9-5.9l-3-1.3
		l2.5-2.1c5.7-4.8,9-11.8,9-19.2C111.4,61.3,100.2,50,86.4,50L86.4,50 M69.8,75.1c0-9.1,7.4-16.6,16.6-16.6
		c9.1,0,16.6,7.4,16.6,16.6c0,9.1-7.4,16.6-16.6,16.6h0h0C77.2,91.7,69.8,84.2,69.8,75.1z"/>
</g>
<path class="st1" d="M48.3,164.9c15.3,16.2,33.6,26.7,46.5,26.7c12.9,0,31.2-10.5,46.5-26.7c16.8-17.8,26.5-38.2,26.5-56l0-67.7
	c0-3.3-1.9-6.2-4.7-7c-11.9-3.6-23.2-7.6-33.5-11.9c-9.8-4-19.4-9.1-28.5-15.1l-3-2l-0.2-0.2c-0.9-0.6-2-0.9-3-0.9
	c-1.1,0-2.3,0.4-3.3,1c-10,6.9-20.5,12.6-31.5,17.1c-11,4.5-22.3,8.5-33.5,11.9c-2.8,0.9-4.7,3.8-4.7,7.1v67.6
	C21.8,126.7,31.5,147.1,48.3,164.9z M30.3,45v-1.8l1.5-0.5l1-0.3c10.1-3.2,20.3-6.8,30.1-10.9c10.4-4.3,20.5-9.7,30.1-16l0.8-0.5
	l1-0.7l1,0.7l1,0.6c9.5,6.3,19.6,11.6,29.9,15.9l3.6,1.4c8.7,3.5,17.7,6.6,26.6,9.4l0.9,0.3l1.5,0.5l0,1.8l0,64
	c0,14.2-8.6,32.1-23,48c-13.9,15.3-29.8,24.9-41.5,24.9h0l0,0l-0.9,0c-24.2-1.1-63.5-41.9-63.5-72.9V45z"/>
<g>
	<g>
		<path class="st1" d="M138,107.7c1.1,0,2.1,0.4,2.9,1.2c0.8,0.8,1.3,1.8,1.3,3c0,1.1-0.4,2.2-1.2,3c-0.1,0.1-0.1,0.1-0.2,0.2l0,0
			l0,0l-29.5,29.5c-0.8,0.8-1.9,1.2-3,1.2c-1.1,0-2.2-0.4-3-1.2l-17.7-17.7c-0.8-0.8-1.2-1.9-1.2-3c0-1.1,0.5-2.2,1.3-3
			c0.8-0.8,1.8-1.2,3-1.2c1.1,0,2.2,0.4,2.9,1.2l13.3,13.3l1.4,1.4l1.4-1.4l25-25l0,0l0,0C135.7,108.2,136.8,107.7,138,107.7
			 M138,106.7c-1.5,0-2.8,0.6-3.8,1.6l-25.1,25.1l-0.7,0.7l-0.7-0.7l-13.3-13.3c-1-0.9-2.3-1.5-3.6-1.5c-1.4,0-2.7,0.5-3.6,1.5
			c-1,1-1.6,2.3-1.6,3.7c0,1.4,0.5,2.7,1.5,3.7l17.7,17.7c1,1,2.3,1.5,3.7,1.5c1.4,0,2.7-0.5,3.7-1.5l29.5-29.5
			c0.1-0.1,0.2-0.2,0.2-0.2c1-1,1.5-2.4,1.4-3.8c0-1.4-0.6-2.7-1.6-3.7C140.6,107.2,139.3,106.7,138,106.7L138,106.7z"/>
	</g>
	<path class="st2" d="M86.4,50c-7.7,0-15.1,3.6-19.8,9.7C58.1,70.7,60.1,86.5,71,95l2.6,2l-3,1.4c-14.1,6.6-23.2,20.8-23.2,36.4
		c0,2.3,1.9,4.2,4.2,4.2c1.1,0,2.2-0.4,3-1.2c0.8-0.8,1.2-1.9,1.2-3c0-7.3,2.5-14.4,7.1-20c6-7.4,14.9-11.6,24.5-11.6
		c7.2,0,14.3,2.5,20,7.1c0.7,0.6,1.6,0.9,2.6,0.9c1.3,0,2.4-0.6,3.3-1.5c1.5-1.8,1.3-4.5-0.5-6c-3-2.4-6.3-4.4-9.9-5.9l-3-1.3
		l2.5-2.1c5.7-4.8,9-11.8,9-19.2C111.4,61.3,100.2,50,86.4,50L86.4,50 M69.8,75.1c0-9.1,7.4-16.6,16.6-16.6
		c9.1,0,16.6,7.4,16.6,16.6c0,9.1-7.4,16.6-16.6,16.6h0h0C77.2,91.7,69.8,84.2,69.8,75.1z"/>
</g>
<g>
	<path class="st1" d="M94.8,4.2c1.1,0,2.1,0.3,3,0.9l0.2,0.2l3,2c9.1,6,18.7,11.1,28.5,15.1c10.4,4.3,21.7,8.3,33.5,11.9
		c2.8,0.9,4.7,3.7,4.7,7l0,67.7c0,17.8-9.6,38.2-26.5,56c-15.3,16.2-33.6,26.7-46.5,26.7c-12.9,0-31.2-10.5-46.5-26.7
		c-16.8-17.8-26.5-38.2-26.5-56V41.3c0-3.3,1.9-6.2,4.7-7.1c11.3-3.4,22.6-7.4,33.5-11.9C71,17.9,81.6,12.1,91.6,5.2
		C92.5,4.6,93.7,4.2,94.8,4.2 M94.8,181.8L94.8,181.8c11.7,0,27.6-9.5,41.5-24.9c14.4-15.9,23-33.8,23-48l0-64l0-1.8l-1.5-0.5
		l-0.9-0.3c-8.9-2.8-17.9-6-26.6-9.4l-3.6-1.4c-10.3-4.3-20.4-9.6-29.9-15.9l-1-0.6l-1-0.7l-1,0.7L93,15.6
		c-9.6,6.4-19.7,11.7-30.1,16c-9.9,4-20,7.7-30.1,10.9l-1,0.3l-1.5,0.5V45v64c0,30.9,39.4,71.8,63.5,72.9L94.8,181.8L94.8,181.8
		 M94.8,3.2c-1.3,0-2.7,0.4-3.8,1.2c-9.9,6.8-20.4,12.6-31.3,17c-11,4.5-22.2,8.5-33.4,11.8c-3.2,1-5.4,4.3-5.4,8v67.6
		c0,18,9.7,38.7,26.7,56.7c15.5,16.4,34,27,47.3,27c13.2,0,31.8-10.6,47.3-27c17-18,26.7-38.6,26.7-56.7l0-67.7c0-3.7-2.2-7-5.4-8
		c-11.8-3.6-23.1-7.6-33.4-11.8c-9.8-4-19.3-9.1-28.3-15l-3-2l-0.2-0.2C97.3,3.6,96,3.2,94.8,3.2L94.8,3.2z M31.3,43.9l0.8-0.2
		l1-0.3c10.2-3.2,20.3-6.8,30.2-10.9c10.5-4.3,20.7-9.7,30.3-16.1l0.8-0.5l0.4-0.3l0.5,0.3l1,0.6c9.6,6.3,19.7,11.7,30.1,16l3.6,1.4
		c8.8,3.5,17.7,6.6,26.7,9.4l0.9,0.3l0.8,0.2l0,1l0,64c0,14-8.5,31.7-22.7,47.3c-13.7,15.1-29.4,24.5-40.8,24.5l0,0l0,0l-0.9,0
		c-11.3-0.5-26.7-10-40.1-24.9c-14.1-15.5-22.5-33.1-22.5-47V45V43.9L31.3,43.9z"/>
</g>
</svg>
