<?xml version="1.0" encoding="utf-8"?>
<!-- Generator: Adobe Illustrator 28.0.0, SVG Export Plug-In . SVG Version: 6.00 Build 0)  -->
<svg version="1.1" id="图层_1" xmlns="http://www.w3.org/2000/svg" xmlns:xlink="http://www.w3.org/1999/xlink" x="0px" y="0px"
	 viewBox="0 0 116.5 120" style="enable-background:new 0 0 116.5 120;" xml:space="preserve">
<style type="text/css">
	.st0{fill:#FF7125;}
</style>
<path class="st0" d="M50.2,82.4H18.4c-0.9,0-1.7,1.6-1.7,3.6c0,2,0.7,3.6,1.7,3.6h31.9c0.9,0,1.7-1.6,1.7-3.6
	C52,84,51.2,82.4,50.2,82.4z M89.6,37.3H64.5c-2,0-3.6,1.6-3.6,3.6s1.6,3.6,3.6,3.6h25.1c2,0,3.6-1.6,3.6-3.6
	C93.1,38.9,91.5,37.3,89.6,37.3C89.6,37.3,89.6,37.3,89.6,37.3z M89.6,21.5H64.5c-2,0-3.6,1.6-3.6,3.6s1.6,3.6,3.6,3.6h25.1
	c2,0,3.6-1.6,3.6-3.6C93.1,23.1,91.5,21.5,89.6,21.5C89.6,21.5,89.6,21.5,89.6,21.5z M81.2,95.8c-3,0-4.8,2.4-4.8,4.8
	c0,3,2.4,4.8,4.8,4.8c3,0,4.8-2.4,4.8-4.8C86,98.2,84.1,95.8,81.2,95.8"/>
<path class="st0" d="M81.2,49.3c-19.4,0-35.3,15.9-35.3,35.3c0,19.4,15.9,35.3,35.3,35.3s35.3-15.9,35.3-35.3
	C116.4,65.3,100.6,49.3,81.2,49.3z M81.2,112.7C65.6,112.7,53,100,53,84.6C53,69,65.5,56.4,81.2,56.4s28.2,12.7,28.2,28.2
	S96.8,112.7,81.2,112.7z"/>
<path class="st0" d="M51.6,103.9H15.1c-4,0-7.6-3.2-7.6-7.6V15.1c0-4,3.6-7.6,7.6-7.6h79.6c4,0,7.6,3.6,7.6,7.6v41.3
	c2.9,2.2,5.5,4.8,7.6,7.8v-49c0-8.4-6.8-15.1-15.1-15.1H15.1C6.8,0,0,6.7,0,15.1v80.8c0,8.8,6.8,15.5,15.1,15.5h43.1
	C55.7,109.2,53.4,106.7,51.6,103.9L51.6,103.9z"/>
<path class="st0" d="M87.4,68.1L86,88.8c-0.3,2.5-2.3,4.4-4.8,4.4c-2.5,0-4.5-1.9-4.8-4.3L75,68.1c-0.2-1.7,0.4-3.4,1.5-4.7
	c2.3-2.5,6.2-2.8,8.7-0.5c0.2,0.2,0.3,0.3,0.5,0.5C87,64.6,87.5,66.4,87.4,68.1z"/>
<path class="st0" d="M46.2,26.5L42,23.6l-1.6-4.7h-5.1l-4.1-2.9L27,18.8h-5.1l-1.6,4.7l-4.1,2.9l1.6,4.7L16.2,36l4.1,2.9l0.7,2
	c0,0.1,0,0.2,0,0.2V66c0,1,0.6,1.9,1.6,2.3c1,0.4,2.1,0.2,2.8-0.5l5.8-5.7l5.8,5.7c0.7,0.7,1.8,0.9,2.8,0.5c1-0.4,1.6-1.3,1.6-2.3
	V41.2l0-0.2l0.7-2l4.1-2.9l-1.6-4.7L46.2,26.5L46.2,26.5z M22.2,28.4l2.5-1.8l1-2.8h3.1l2.5-1.8l2.5,1.8h3.1l1,2.8l2.5,1.8l-1,2.8
	l1,2.8l-2.5,1.8l-0.9,2.8h-3.1l-2.5,1.8l-2.5-1.8h-3.1l-1-2.8l-2.5-1.8l0.9-2.8L22.2,28.4z M33,56.8c-0.9-0.9-2.5-1-3.5-0.1
	c0,0-0.1,0.1-0.1,0.1L26.1,60V43.7h1l4.1,2.9l4.1-2.9h0.9V60L33,56.8L33,56.8z"/>
</svg>
