<?xml version="1.0" encoding="utf-8"?>
<!-- Generator: Adobe Illustrator 25.0.0, SVG Export Plug-In . SVG Version: 6.00 Build 0)  -->
<svg version="1.1" id="_图层_2" xmlns="http://www.w3.org/2000/svg" xmlns:xlink="http://www.w3.org/1999/xlink" x="0px" y="0px"
	 viewBox="0 0 352 120" style="enable-background:new 0 0 352 120;" xml:space="preserve">
<style type="text/css">
	.st0{fill:#D6B267;}
	.st1{fill:#C7A863;}
	.st2{fill:#D01029;}
	.st3{opacity:0.6;}
	.st4{fill:#C60C24;}
	.st5{fill:url(#SVGID_1_);}
	.st6{fill:#FFFFFF;}
	.st7{fill:#E0B75A;}
	.st8{fill:#D8AB50;}
	.st9{fill:#FEFEFE;}
</style>
<g>
	<g>
		<path class="st0" d="M117.4,118c11.5-19.5,17.5-41.7,17.5-64.4S131.2,18.3,124,2h212.9c7.2,0,13,5.8,13,13v90c0,7.2-5.8,13-13,13
			H117.4z"/>
		<path class="st1" d="M337,4c6.1,0,11,4.9,11,11v90c0,6.1-4.9,11-11,11H120.9C131.4,97,137,75.5,137,53.6s-3.3-33.9-9.9-49.6H337
			 M337,0H120.9c7.7,16.2,12,34.4,12,53.6s-7,47.2-19.1,66.4h223.1c8.3,0,15-6.7,15-15V15c0-8.3-6.7-15-15-15H337z"/>
	</g>
	<g>
		<path class="st2" d="M96,118c19.4-22.9,30-51.8,30-82s-1.6-23-4.6-34H337c7.2,0,13,5.8,13,13v90c0,7.2-5.8,13-13,13H96z"/>
		<path class="st1" d="M337,4c6.1,0,11,4.9,11,11v90c0,6.1-4.9,11-11,11H100.2c18-22.7,27.8-50.8,27.8-80s-1.3-21.6-4-32H337 M337,0
			H118.7c3.4,11.4,5.3,23.5,5.3,36c0,32.3-12.3,61.8-32.4,84H337c8.3,0,15-6.7,15-15V15C352,6.7,345.3,0,337,0L337,0z"/>
	</g>
	<g class="st3">
		<path class="st4" d="M352,15v90c0,8.3-6.7,15-15,15H91.6C111.8,97.8,124,68.3,124,36s-1.8-24.6-5.3-36H337C345.3,0,352,6.7,352,15
			z"/>
	</g>
	<g>
		<path class="st0" d="M15,118c-7.2,0-13-5.8-13-13V15C2,7.8,7.8,2,15,2h102.3c3.1,10.9,4.7,22.2,4.7,33.6
			c0,30.5-11.2,59.8-31.7,82.4H15z"/>
		<path class="st1" d="M115.8,4c2.8,10.3,4.2,20.9,4.2,31.6c0,29.8-10.8,58.2-30.6,80.4H15c-6.1,0-11-4.9-11-11V15C4,8.9,8.9,4,15,4
			H115.8 M118.8,0H15C6.7,0,0,6.7,0,15v90c0,8.3,6.7,15,15,15h76.2C111.6,97.8,124,68.1,124,35.6S122.2,11.3,118.8,0L118.8,0z"/>
	</g>
	
		<linearGradient id="SVGID_1_" gradientUnits="userSpaceOnUse" x1="113.1" y1="-1916.1102" x2="113.1" y2="-1796.1102" gradientTransform="matrix(1 0 0 -1 0 -1796.1102)">
		<stop  offset="0.3" style="stop-color:#C49220"/>
		<stop  offset="1" style="stop-color:#FFF4DF"/>
	</linearGradient>
	<path class="st5" d="M134,53.6c0,24.4-7,47.2-19.1,66.4H92.2C112.6,97.8,125,68.1,125,35.6S118.1,1.7,119.8,0h2.1
		C129.6,16.2,134,34.4,134,53.6L134,53.6z"/>
	<path class="st6" d="M126,36c0,32.3-12.3,61.8-32.4,84H17c-8.3,0-15-6.7-15-15V15C2,6.7,8.7,0,17,0h103.7
		C124.1,11.4,126,23.5,126,36z"/>
	<path class="st1" d="M337,4c6.1,0,11,4.9,11,11v90c0,6.1-4.9,11-11,11H15c-6.1,0-11-4.9-11-11V15C4,8.9,8.9,4,15,4H337 M337,0H15
		C6.7,0,0,6.7,0,15v90c0,8.3,6.7,15,15,15h322c8.3,0,15-6.7,15-15V15C352,6.7,345.3,0,337,0L337,0z"/>
</g>
<g>
	<path class="st7" d="M64,28c0,0-5.3,11-26.5,7.4l3.7,32.9c0,0,1.2,13.5,22.8,23.7c21.6-10.2,22.8-23.7,22.8-23.7l3.7-32.9
		C69.3,39,64,28,64,28C64,28,64,28,64,28z"/>
	<path class="st7" d="M64,28v64C42.4,81.8,41.2,68.3,41.2,68.3l-3.7-32.9C58.7,39,64,28,64,28C64,28,64,28,64,28z"/>
	<path class="st8" d="M90.5,35.4l-3.7,32.9c0,0-1.2,13.5-22.8,23.7V28C64,28,69.3,39,90.5,35.4L90.5,35.4z"/>
	<polygon class="st9" points="60.7,65.4 50.1,54.8 46.8,58 57.4,68.6 60.7,71.8 63.9,68.6 81.2,51.4 77.9,48.1 	"/>
</g>
<g>
	<path class="st6" d="M181.4,41.7H178v17.9c0,2.2-0.5,3.2-1.9,3.8c-1.5,0.6-3.7,0.7-6.8,0.7c-0.2-1-0.9-2.8-1.5-3.8h5.5
		c0.8,0,1-0.2,1-0.8V41.7h-19.8v-3.6h27v3.6H181.4z M160.6,56.7V59h-3.5V45.1h12.7v11.6C169.8,56.7,160.6,56.7,160.6,56.7z
		 M160.6,48.5v4.8h5.7v-4.8H160.6z"/>
	<path class="st6" d="M193.1,37.2c-0.6,1.8-1.4,3.6-2.2,5.3v21.7h-3.2V48.1c-0.7,1-1.5,2-2.2,2.8c-0.3-0.8-1.3-2.7-1.8-3.5
		c2.5-2.7,4.9-7,6.3-11.2l3.2,1C193.2,37.2,193.1,37.2,193.1,37.2z M211.5,40.7v2.9h-19.3v-2.9h8.6c-0.5-1.1-1.2-2.5-1.9-3.6l3-1.1
		c0.8,1.2,1.8,2.9,2.2,4l-1.7,0.8h9.1l0,0L211.5,40.7z M193.9,54.1h15.9V64h-3.1v-0.8H197v0.9h-3L193.9,54.1L193.9,54.1L193.9,54.1z
		 M209.3,48h-15v-2.8h15V48z M194.3,49.6h15v2.8h-15V49.6z M196.9,56.9v3.4h9.7v-3.4H196.9z"/>
	<path class="st6" d="M235.7,51.1c-0.9,2.3-2.1,4.2-3.6,5.8c3.4,1.4,6.6,2.9,8.8,4.3l-2.9,3c-2.1-1.4-5.4-3.1-8.9-4.7
		c-3.3,2.2-7.4,3.7-12.2,4.6c-0.4-0.9-1.4-2.5-2.1-3.3c4.1-0.6,7.6-1.5,10.4-3c-2.4-1-4.9-1.9-7.1-2.6l0,0c0.9-1.2,1.9-2.6,2.8-4.1
		h-6.2v-3.4h8.1c0.8-1.5,1.5-3,2-4.4l4,0.8c-0.5,1.2-1,2.4-1.7,3.6H241v3.4H235.7z M218.8,46h-3.6v-6.7h10.4
		c-0.4-0.8-0.8-1.7-1.1-2.5l3.8-0.9c0.6,1,1.2,2.3,1.7,3.3h10.6v6.7h-3.8v-3.4H219v3.4h-0.2l0,0L218.8,46z M225.3,51.1
		c-0.6,0.9-1.1,1.8-1.7,2.6c1.6,0.6,3.2,1.2,4.9,1.8c1.3-1.2,2.3-2.7,3-4.4h-6.3C225.2,51.1,225.3,51.1,225.3,51.1z"/>
	<path class="st6" d="M259.7,50v3.5h7.1v3.1h-7.1v3.6h11v3.2h-25.5v-3.2H256v-3.6h-6.8v-3.1h6.8V50h-7.3v-2c-0.9,0.5-1.9,1-2.9,1.5
		c-0.5-0.9-1.5-2.1-2.4-3c5.4-2.2,10.8-6.1,13.8-10.8l3.2,1.5c-0.2,0.3-0.4,0.5-0.5,0.8c3.6,3.8,7.7,6.5,12.5,8.5
		c-0.9,0.8-1.9,2-2.4,3.1c-1-0.5-2-1.1-2.9-1.6v1.9L259.7,50L259.7,50z M265.1,46.9c-2.6-1.7-5-3.8-7.3-6.2
		c-2.2,2.4-4.7,4.5-7.3,6.2H265.1z"/>
	<path class="st6" d="M283.4,54.1c0.3,1,1,2.5,1.4,3.2c-5.5,4.7-6.5,5.6-7,6.3c-0.4-0.7-1.6-1.9-2.1-2.3c0.7-0.7,1.8-2.1,1.8-3.9
		v-8.6H274v-3.4h7v10.8L283.4,54.1L283.4,54.1L283.4,54.1z M280,43.5c-1-1.3-3.1-3.4-4.7-4.8l2.3-2.2c1.7,1.3,3.8,3.2,4.9,4.5
		L280,43.5L280,43.5L280,43.5z M301.8,59.7V63h-18.3v-3.3h2.2V46.1h3.5v13.6h2.8V41.3h-7.8V38h16.9v3.3h-5.5V48h4.9v3.3h-4.9v8.3
		h6.2l0,0L301.8,59.7z"/>
	<path class="st6" d="M331.4,50.6c-0.5,6-1,8.6-2,9.6c-0.8,0.9-1.7,1.2-3,1.3h-4.7c0-1-0.6-2.5-1.3-3.4c1.8,0.2,3.8,0.2,4.6,0.2
		s1,0,1.3-0.3c0.5-0.5,0.9-2.1,1.2-5.5H318V64h-3.7V52.5h-9.8v-3.4h9.8v-4.6h-8.2V41h8.2v-4.9h3.7V41h8.4c-1.1-0.8-2.2-1.5-3.2-2.1
		l2.1-2.4c2,1.1,4.8,2.9,6.2,4l-2.2,2.7c-0.5-0.5-1.3-1.1-2.3-1.8V49h4.3v1.5h0.1V50.6z M318.1,49.1h5.5v-4.6h-5.5V49.1z"/>
</g>
<g>
	<path class="st6" d="M158,71.8h-3.1v-1.1h7.5v1.1h-3.1v9.2H158V71.8z"/>
	<path class="st6" d="M163.4,73.3h1l0.1,1.4h0c0.5-1,1.3-1.6,2.2-1.6c0.3,0,0.6,0,0.8,0.2l-0.2,1.1c-0.3-0.1-0.4-0.1-0.7-0.1
		c-0.6,0-1.4,0.4-1.9,1.8v4.9h-1.3V73.3z"/>
	<path class="st6" d="M168.8,78.1v-4.8h1.3V78c0,1.4,0.4,2,1.4,2c0.8,0,1.3-0.4,2.1-1.3v-5.4h1.3v7.6h-1.1l-0.1-1.2h0
		c-0.7,0.8-1.5,1.4-2.5,1.4C169.5,81.1,168.8,80.1,168.8,78.1z"/>
	<path class="st6" d="M176.5,80.1l0.6-0.8c0.7,0.5,1.3,0.9,2.3,0.9c1,0,1.5-0.5,1.5-1.2c0-0.8-0.9-1.1-1.7-1.4
		c-1.1-0.4-2.3-0.9-2.3-2.2c0-1.2,1-2.2,2.6-2.2c0.9,0,1.8,0.4,2.4,0.9l-0.6,0.8c-0.5-0.4-1.1-0.7-1.8-0.7c-1,0-1.4,0.5-1.4,1.1
		c0,0.7,0.8,1,1.7,1.3c1.1,0.4,2.3,0.9,2.3,2.3c0,1.2-1,2.3-2.8,2.3C178.3,81.1,177.3,80.7,176.5,80.1z"/>
	<path class="st6" d="M183.8,78.6v-4.2h-1.1v-1l1.2-0.1l0.2-2.1h1.1v2.1h2.1v1h-2.1v4.2c0,0.9,0.3,1.5,1.2,1.5
		c0.3,0,0.6-0.1,0.9-0.2l0.3,1c-0.4,0.1-0.9,0.3-1.4,0.3C184.4,81.1,183.8,80.1,183.8,78.6z"/>
	<path class="st6" d="M188.1,77.1c0-2.5,1.7-4,3.4-4c1.9,0,3,1.4,3,3.6c0,0.3,0,0.5-0.1,0.7h-5.1c0.1,1.6,1.1,2.7,2.5,2.7
		c0.7,0,1.3-0.2,1.9-0.6l0.5,0.8c-0.7,0.4-1.5,0.8-2.5,0.8C189.7,81.1,188.1,79.6,188.1,77.1z M193.5,76.5c0-1.5-0.7-2.4-1.9-2.4
		c-1.1,0-2,0.9-2.2,2.4H193.5z"/>
	<path class="st6" d="M195.9,77.1c0-2.5,1.6-4,3.3-4c0.9,0,1.5,0.3,2.1,0.9l-0.1-1.3v-2.9h1.3v11.2h-1l-0.1-0.9h0
		c-0.6,0.6-1.4,1.1-2.3,1.1C197.1,81.1,195.9,79.7,195.9,77.1z M201.3,79v-4c-0.6-0.6-1.2-0.8-1.8-0.8c-1.2,0-2.2,1.2-2.2,2.9
		c0,1.8,0.8,2.9,2.1,2.9C200,80,200.6,79.7,201.3,79z"/>
	<path class="st6" d="M207.6,79.6l0.8-0.9c0.7,0.8,1.8,1.3,2.8,1.3c1.3,0,2.2-0.7,2.2-1.7c0-1-0.7-1.4-1.7-1.8l-1.5-0.6
		c-1-0.4-2.1-1.1-2.1-2.6c0-1.6,1.4-2.7,3.2-2.7c1.2,0,2.3,0.5,3,1.3l-0.7,0.8c-0.6-0.6-1.4-1-2.3-1c-1.2,0-1.9,0.6-1.9,1.5
		c0,1,0.9,1.4,1.7,1.7l1.5,0.6c1.2,0.5,2.1,1.2,2.1,2.7c0,1.6-1.3,2.9-3.5,2.9C209.8,81.1,208.5,80.5,207.6,79.6z"/>
	<path class="st6" d="M216,77.1c0-2.5,1.7-4,3.4-4c1.9,0,3,1.4,3,3.6c0,0.3,0,0.5-0.1,0.7h-5.1c0.1,1.6,1.1,2.7,2.5,2.7
		c0.7,0,1.3-0.2,1.9-0.6l0.5,0.8c-0.7,0.4-1.5,0.8-2.5,0.8C217.7,81.1,216,79.6,216,77.1z M221.4,76.5c0-1.5-0.7-2.4-1.9-2.4
		c-1.1,0-2,0.9-2.2,2.4H221.4z"/>
	<path class="st6" d="M223.8,77.1c0-2.5,1.7-4,3.7-4c1,0,1.7,0.4,2.2,0.9l-0.7,0.9c-0.4-0.4-0.9-0.7-1.5-0.7c-1.4,0-2.4,1.2-2.4,2.9
		s1,2.9,2.4,2.9c0.7,0,1.3-0.3,1.8-0.8l0.5,0.9c-0.7,0.6-1.5,1-2.5,1C225.4,81.1,223.8,79.7,223.8,77.1z"/>
	<path class="st6" d="M231.4,78.1v-4.8h1.3V78c0,1.4,0.4,2,1.4,2c0.8,0,1.3-0.4,2.1-1.3v-5.4h1.3v7.6h-1.1l-0.1-1.2h0
		c-0.7,0.8-1.5,1.4-2.5,1.4C232.1,81.1,231.4,80.1,231.4,78.1z"/>
	<path class="st6" d="M240,73.3h1l0.1,1.4h0c0.5-1,1.3-1.6,2.2-1.6c0.3,0,0.6,0,0.8,0.2l-0.2,1.1c-0.3-0.1-0.4-0.1-0.7-0.1
		c-0.6,0-1.4,0.4-1.9,1.8v4.9H240V73.3z"/>
	<path class="st6" d="M245.2,70.9c0-0.5,0.4-0.8,0.9-0.8c0.5,0,0.9,0.3,0.9,0.8c0,0.5-0.4,0.8-0.9,0.8
		C245.6,71.8,245.2,71.4,245.2,70.9z M245.4,73.3h1.3v7.6h-1.3V73.3z"/>
	<path class="st6" d="M249.5,78.6v-4.2h-1.1v-1l1.2-0.1l0.2-2.1h1.1v2.1h2.1v1h-2.1v4.2c0,0.9,0.3,1.5,1.2,1.5
		c0.3,0,0.6-0.1,0.9-0.2l0.3,1c-0.4,0.1-0.9,0.3-1.4,0.3C250,81.1,249.5,80.1,249.5,78.6z"/>
	<path class="st6" d="M253.8,84.1l0.3-1c0.2,0.1,0.4,0.1,0.6,0.1c0.9,0,1.4-0.7,1.7-1.6l0.2-0.6l-3.1-7.6h1.3l1.6,4.2
		c0.2,0.7,0.5,1.4,0.7,2.1h0.1c0.2-0.7,0.4-1.5,0.6-2.1l1.4-4.2h1.2l-2.9,8.2c-0.5,1.5-1.3,2.6-2.8,2.6
		C254.3,84.2,254,84.2,253.8,84.1z"/>
	<path class="st6" d="M264.5,75.8c0-3.3,1.9-5.3,4.6-5.3c1.2,0,2.2,0.6,2.8,1.3l-0.7,0.8c-0.5-0.6-1.2-1-2.1-1
		c-1.9,0-3.2,1.6-3.2,4.2c0,2.6,1.2,4.2,3.2,4.2c1,0,1.7-0.4,2.4-1.1l0.7,0.8c-0.8,0.9-1.8,1.5-3.2,1.5
		C266.4,81.1,264.5,79.1,264.5,75.8z"/>
	<path class="st6" d="M273.3,77.1c0-2.5,1.7-4,3.4-4c1.9,0,3,1.4,3,3.6c0,0.3,0,0.5-0.1,0.7h-5.1c0.1,1.6,1.1,2.7,2.5,2.7
		c0.7,0,1.3-0.2,1.9-0.6l0.5,0.8c-0.7,0.4-1.5,0.8-2.5,0.8C275,81.1,273.3,79.6,273.3,77.1z M278.7,76.5c0-1.5-0.7-2.4-1.9-2.4
		c-1.1,0-2,0.9-2.2,2.4H278.7z"/>
	<path class="st6" d="M281.7,73.3h1l0.1,1.4h0c0.5-1,1.3-1.6,2.2-1.6c0.3,0,0.6,0,0.8,0.2l-0.2,1.1c-0.3-0.1-0.4-0.1-0.7-0.1
		c-0.6,0-1.4,0.4-1.9,1.8v4.9h-1.3V73.3z"/>
	<path class="st6" d="M287.3,78.6v-4.2h-1.1v-1l1.2-0.1l0.2-2.1h1.1v2.1h2.1v1h-2.1v4.2c0,0.9,0.3,1.5,1.2,1.5
		c0.3,0,0.6-0.1,0.9-0.2l0.3,1c-0.4,0.1-0.9,0.3-1.4,0.3C287.9,81.1,287.3,80.1,287.3,78.6z"/>
	<path class="st6" d="M292.1,70.9c0-0.5,0.4-0.8,0.9-0.8c0.5,0,0.9,0.3,0.9,0.8c0,0.5-0.4,0.8-0.9,0.8
		C292.5,71.8,292.1,71.4,292.1,70.9z M292.4,73.3h1.3v7.6h-1.3V73.3z"/>
	<path class="st6" d="M296.4,72.1c0-1.5,0.7-2.5,2.2-2.5c0.5,0,0.9,0.1,1.3,0.3l-0.3,1c-0.3-0.1-0.6-0.2-0.9-0.2
		c-0.7,0-1.1,0.5-1.1,1.5v1.2h1.6v1h-1.6v6.6h-1.3v-6.6h-1v-1l1-0.1V72.1z M302.6,70.9c0,0.5-0.4,0.8-0.9,0.8
		c-0.5,0-0.9-0.4-0.9-0.8c0-0.5,0.4-0.8,0.9-0.8C302.2,70.1,302.6,70.4,302.6,70.9z M301.1,73.3h1.3v7.6h-1.3V73.3z"/>
	<path class="st6" d="M304.3,77.1c0-2.5,1.7-4,3.7-4c1,0,1.7,0.4,2.2,0.9l-0.7,0.9c-0.4-0.4-0.9-0.7-1.5-0.7c-1.4,0-2.4,1.2-2.4,2.9
		s1,2.9,2.4,2.9c0.7,0,1.3-0.3,1.8-0.8l0.5,0.9c-0.7,0.6-1.5,1-2.5,1C305.9,81.1,304.3,79.7,304.3,77.1z"/>
	<path class="st6" d="M311.4,79c0-1.7,1.4-2.5,4.7-2.8c0-1-0.3-1.9-1.6-1.9c-0.9,0-1.7,0.4-2.3,0.8l-0.5-0.9c0.7-0.4,1.8-1,3-1
		c1.8,0,2.6,1.2,2.6,3.1v4.7h-1.1l-0.1-0.9h0c-0.7,0.6-1.6,1.1-2.5,1.1C312.4,81.1,311.4,80.3,311.4,79z M316.1,79.1V77
		c-2.6,0.3-3.4,0.9-3.4,1.9c0,0.9,0.6,1.2,1.3,1.2C314.7,80.1,315.3,79.7,316.1,79.1z"/>
	<path class="st6" d="M319.8,78.6v-4.2h-1.1v-1l1.2-0.1l0.2-2.1h1.1v2.1h2.1v1h-2.1v4.2c0,0.9,0.3,1.5,1.2,1.5
		c0.3,0,0.6-0.1,0.9-0.2l0.3,1c-0.4,0.1-0.9,0.3-1.4,0.3C320.3,81.1,319.8,80.1,319.8,78.6z"/>
	<path class="st6" d="M324.1,77.1c0-2.5,1.7-4,3.4-4c1.9,0,3,1.4,3,3.6c0,0.3,0,0.5-0.1,0.7h-5.1c0.1,1.6,1.1,2.7,2.5,2.7
		c0.7,0,1.3-0.2,1.9-0.6l0.5,0.8c-0.7,0.4-1.5,0.8-2.5,0.8C325.7,81.1,324.1,79.6,324.1,77.1z M329.4,76.5c0-1.5-0.7-2.4-1.9-2.4
		c-1.1,0-2,0.9-2.2,2.4H329.4z"/>
</g>
</svg>
