<?xml version="1.0" encoding="utf-8"?>
<!-- Generator: Adobe Illustrator 28.0.0, SVG Export Plug-In . SVG Version: 6.00 Build 0)  -->
<svg version="1.1" id="图层_1" xmlns="http://www.w3.org/2000/svg" xmlns:xlink="http://www.w3.org/1999/xlink" x="0px" y="0px"
	 viewBox="0 0 14 14" style="enable-background:new 0 0 14 14;" xml:space="preserve">
<style type="text/css">
	.st0{fill:#DDF8E9;}
	.st1{fill:#4F9B52;}
</style>
<path class="st0" d="M11.9,2.1C10.6,0.8,8.8,0,7,0C5.1,0,3.4,0.7,2.1,2.1C0.8,3.4,0,5.2,0,7c0,1.9,0.7,3.6,2.1,4.9
	C3.4,13.2,5.2,14,7,14c1.9,0,3.6-0.7,4.9-2.1C13.2,10.6,14,8.8,14,7C14,5.2,13.3,3.4,11.9,2.1z M11.2,5.2L6.7,9.7
	C6.6,9.8,6.4,9.9,6.3,9.9C6.2,9.9,6,9.8,5.9,9.7L3.6,7.4c-0.2-0.2-0.2-0.6,0-0.8c0.2-0.2,0.6-0.2,0.8,0l1.9,1.9l4.1-4.1
	c0.2-0.2,0.6-0.2,0.8,0S11.4,5,11.2,5.2z"/>
<path class="st1" d="M11.2,5.2L6.7,9.7C6.6,9.8,6.4,9.9,6.3,9.9C6.2,9.9,6,9.8,5.9,9.7L3.6,7.4c-0.2-0.2-0.2-0.6,0-0.8
	c0.2-0.2,0.6-0.2,0.8,0l1.9,1.9l4.1-4.1c0.2-0.2,0.6-0.2,0.8,0S11.4,5,11.2,5.2z"/>
</svg>
