<?xml version="1.0" encoding="UTF-8"?>
<svg id="_图层_1" data-name="图层_1" xmlns="http://www.w3.org/2000/svg" baseProfile="tiny" version="1.2" viewBox="0 0 30 19.1">
  <!-- Generator: Adobe Illustrator 29.0.0, SVG Export Plug-In . SVG Version: 2.1.0 Build 186)  -->
  <polygon points="0 0 0 19.1 4.1 15 30 15 30 0 0 0" fill="#fff"/>
  <g>
    <path d="M14.6,9.8c0,.2,0,.4,0,.5,0,.2,0,.3,0,.6,0,.2,0,.4-.1.5,0,.1-.2.2-.3.3-.1,0-.3.1-.4.2-.2,0-.4,0-.6,0-.6,0-1.2,0-1.8,0-.2,0-.5,0-.6,0-.2,0-.3-.1-.4-.2-.1,0-.2-.2-.2-.4,0-.2,0-.4,0-.6v-1c-.2.3-.4.5-.6.8-.2.2-.5.5-.8.7-.3.2-.7.4-1,.6-.4.2-.8.4-1.3.6l-.7-1.2c.5-.2.9-.3,1.3-.5.4-.2.7-.3,1-.5.3-.2.5-.4.7-.6s.4-.4.5-.7h-2.4v-2.3c0,0-.2.1-.3.2,0,0-.2.1-.3.2l-.7-1c.3-.2.6-.4.9-.7.3-.2.6-.5.9-.8.3-.3.5-.6.8-.9.2-.3.4-.6.6-.9l1.2.4c0,0,0,.2-.1.2,0,0,0,.1-.2.2h3.4v1.1c-.1.1-.3.3-.4.4-.1.1-.3.3-.4.4h1.8v3.5h-2.6v1.4c0,.2,0,.3,0,.4,0,0,.2.1.4.1.4,0,.8,0,1.1,0,.1,0,.2,0,.3,0,0,0,.1,0,.2,0,0,0,0,0,.1-.1,0,0,0-.1,0-.2,0,0,0-.2,0-.3,0-.1,0-.3,0-.5l1.2.3ZM9.3,7.7c0-.4.1-.8.1-1.2h-1.7v1.2h1.5ZM8.5,4.5c-.1.1-.2.3-.3.4-.1.1-.2.3-.3.4h2.5c.1-.1.3-.2.4-.4.1-.1.3-.3.4-.4h-2.6ZM12.5,6.5h-1.8c0,.2,0,.4,0,.6,0,.2,0,.4,0,.6h1.9v-1.2Z" fill="#ff7125"/>
    <path d="M22.6,10.5c.4.1.8.2,1.1.4.4.1.7.2,1,.3l-.4,1.2c-.2-.1-.5-.2-.9-.4-.3-.1-.7-.3-1.1-.4-.4-.1-.7-.3-1.1-.4-.4-.1-.7-.2-1-.3-.2.2-.4.3-.7.5-.3.1-.6.3-.9.4-.3.1-.7.2-1.1.3-.4,0-.8.2-1.2.3l-.6-1.2c.6,0,1.1-.2,1.5-.3.5,0,.8-.2,1.2-.3s.6-.3.8-.5.3-.5.3-.8h1.5c0,.2,0,.4,0,.5s0,.2-.1.3c.2,0,.5.1.8.2.3,0,.6.2.8.3v-1.5h-4.3v1.5h-1.3v-1.8l-.7.2-.5-1c.6-.1,1.2-.3,1.5-.4.4-.1.7-.3.9-.5h-1.9l.3-2.2h2.1v-.3h-2.2v-1h2.2v-.7h1.2v.7h1v-.7h1.2v.7h2.1v2.3h-2.1v.3h2.6c0,0,0,.1,0,.3,0,.1,0,.2,0,.3,0,.1,0,.2,0,.3,0,.1,0,.2,0,.3,0,.1,0,.2,0,.3,0,0,0,.2-.1.2s-.1,0-.2.1-.2,0-.4,0v2.4h-1.2ZM17.7,6.1h1c0,0,0-.1,0-.2,0,0,0-.1,0-.2h-1v.3ZM23,8l-.2-.6h.3c.1,0,.2,0,.2-.1,0,0,0-.1,0-.2h-1.3v.9h-1.2v-.9h-1.2c-.2.4-.5.7-.9,1h4.2ZM20.9,5.8h-1c0,0,0,.1,0,.2,0,0,0,.1,0,.2h1v-.3ZM19.9,4.8h1v-.3h-1v.3ZM22.2,4.5v.3h.9v-.3h-.9Z" fill="#ff7125"/>
  </g>
</svg>