<?xml version="1.0" encoding="utf-8"?>
<!-- Generator: Adobe Illustrator 28.0.0, SVG Export Plug-In . SVG Version: 6.00 Build 0)  -->
<svg version="1.1" id="图层_1" xmlns="http://www.w3.org/2000/svg" xmlns:xlink="http://www.w3.org/1999/xlink" x="0px" y="0px"
	 viewBox="0 0 24 24" style="enable-background:new 0 0 24 24;" xml:space="preserve">
<style type="text/css">
	.st0{fill:none;stroke:#333333;stroke-width:1.5;stroke-linecap:round;stroke-linejoin:round;stroke-miterlimit:2;}
</style>
<path class="st0" d="M12,10c1.9,0,3.5-1.6,3.5-3.5C15.5,4.6,13.9,3,12,3S8.5,4.6,8.5,6.5C8.5,8.4,10.1,10,12,10z"/>
<path class="st0" d="M4.5,20.4V21h15v-0.6c0-2.2,0-3.4-0.4-4.2c-0.4-0.8-1-1.4-1.7-1.7c-0.9-0.4-2-0.4-4.2-0.4h-2.2
	c-2.2,0-3.4,0-4.2,0.4c-0.8,0.4-1.4,1-1.7,1.7C4.5,17,4.5,18.2,4.5,20.4z"/>
</svg>
