<?xml version="1.0" encoding="utf-8"?>
<!-- Generator: Adobe Illustrator 28.0.0, SVG Export Plug-In . SVG Version: 6.00 Build 0)  -->
<svg version="1.1" id="图层_1" xmlns="http://www.w3.org/2000/svg" xmlns:xlink="http://www.w3.org/1999/xlink" x="0px" y="0px"
	 viewBox="0 0 14 14" style="enable-background:new 0 0 14 14;" xml:space="preserve">
<style type="text/css">
	.st0{fill:#EDEDED;}
	.st1{fill:#bbbbbb;}
</style>
<circle class="st0" cx="7" cy="7" r="7"/>
<g>
	<path class="st1" d="M7.1,9H6.9C6.6,9,6.4,8.7,6.4,8.5V3.6c0-0.3,0.2-0.5,0.5-0.5h0.2c0.3,0,0.5,0.2,0.5,0.5v4.8
		C7.6,8.7,7.4,9,7.1,9z"/>
	<path class="st1" d="M7.1,10.9H6.9c-0.3,0-0.5-0.2-0.5-0.5V10c0-0.3,0.2-0.5,0.5-0.5h0.2c0.3,0,0.5,0.2,0.5,0.5v0.4
		C7.6,10.6,7.4,10.9,7.1,10.9z"/>
</g>
</svg>
