<?xml version="1.0" encoding="utf-8"?>
<!-- Generator: Adobe Illustrator 28.0.0, SVG Export Plug-In . SVG Version: 6.00 Build 0)  -->
<svg version="1.1" id="图层_1" xmlns="http://www.w3.org/2000/svg" xmlns:xlink="http://www.w3.org/1999/xlink" x="0px" y="0px"
	 viewBox="0 0 20 20" style="enable-background:new 0 0 20 20;" xml:space="preserve">
<style type="text/css">
	.st0{fill:#CCCCCC;}
</style>
<path class="st0" d="M10,2c-4.4,0-8,3.6-8,8s3.6,8,8,8s8-3.6,8-8S14.4,2,10,2z M10,15.7c-0.5,0-0.9-0.4-0.9-0.9S9.5,14,10,14
	s0.9,0.4,0.9,0.9S10.5,15.7,10,15.7z M11.6,9.9c-0.5,0.5-1,1-1,1.5v1c0,0.3-0.3,0.6-0.6,0.6s-0.6-0.3-0.6-0.6v-1
	c0-0.9,0.7-1.6,1.3-2.3c0.5-0.5,0.9-0.9,0.9-1.3c0-1-0.8-1.7-1.7-1.7C9,6,8.3,6.8,8.3,7.7C8.3,8,8,8.3,7.7,8.3S7.1,8,7.1,7.7
	c0-1.6,1.3-2.8,2.9-2.8s2.9,1.3,2.9,2.9C12.9,8.6,12.2,9.3,11.6,9.9z"/>
</svg>
