<?xml version="1.0" encoding="utf-8"?>
<!-- Generator: Adobe Illustrator 23.0.0, SVG Export Plug-In . SVG Version: 6.00 Build 0)  -->
<svg version="1.1" id="图层_1" xmlns="http://www.w3.org/2000/svg" xmlns:xlink="http://www.w3.org/1999/xlink" x="0px" y="0px"
	 viewBox="0 0 15 15" style="enable-background:new 0 0 15 15;" xml:space="preserve">
<style type="text/css">
	.st0{fill:#CCCCCC;}
</style>
<path class="st0" d="M7.5,0C3.4,0,0,3.4,0,7.5S3.4,15,7.5,15S15,11.6,15,7.5S11.6,0,7.5,0C7.5,0,7.5,0,7.5,0z M8,11.2
	c-0.1,0.1-0.3,0.2-0.6,0.2c-0.2,0-0.4-0.1-0.6-0.2c-0.1-0.1-0.2-0.3-0.2-0.5c0-0.2,0.1-0.4,0.2-0.5C7,9.9,7.2,9.9,7.4,9.9
	c0.2,0,0.4,0.1,0.6,0.2c0.2,0.1,0.2,0.3,0.2,0.5C8.2,10.8,8.1,11,8,11.2L8,11.2z M9.5,7C9.2,7.3,8.9,7.6,8.6,7.8
	C8.4,8,8.3,8.2,8.2,8.4C8,8.6,8,8.9,8,9.1v0.2H6.9V9.1c0-0.4,0.1-0.7,0.2-1c0.3-0.5,0.7-1,1.2-1.3l0.2-0.2C8.6,6.3,8.7,6,8.8,5.8
	c0-0.3-0.1-0.6-0.3-0.8C8.2,4.7,7.8,4.6,7.5,4.6c-0.4,0-0.8,0.1-1,0.5C6.2,5.4,6.1,5.8,6.2,6.2H5.1c0-0.7,0.2-1.3,0.7-1.8
	c0.5-0.5,1.2-0.7,1.9-0.7c0.6-0.1,1.2,0.1,1.7,0.5c0.4,0.4,0.7,1,0.6,1.5C10,6.2,9.8,6.6,9.5,7L9.5,7z"/>
</svg>
